<ttFont>
          <CharString index="0">
            -103 callsubr
            -104 hmoveto
            -107 callgsubr
            return
          </CharString>
          <CharString index="1">
            rmoveto
            30 106 31 169 97 vvcurveto
            98 -27 97 -114 -91 -77 -76 -88 -14 vhcurveto
            11 -15 17 -8 27 -6 rrcurveto
            85 3 49 63 66 hhcurveto
            60 31 -34 -113 -28 0 -24 -1 -22 hvcurveto
            1 -22 -21 1 -28 hhcurveto
            -149 -66 -51 -80 -78 59 -52 88 42 37 14 21 26 hvcurveto
            -5 -21 -5 -22 -6 -24 rrcurveto
            -6 16 18 -4 15 hhcurveto
            -133 86 rmoveto
            -55 -39 33 53 53 41 53 185 -12 hvcurveto
            -3 -47 -7 -42 -11 -54 rrcurveto
            -24 -31 -39 -13 -41 hhcurveto
            endchar
          </CharString>
          <CharString index="2">
            rrcurveto
            3 4 2 10 0 10 0 9 -2 9 4 flex1
            return
          </CharString>
          <CharString index="3">
            34 59 21 57 7 59 -16 4 -27 1 -19 -2 -5 -55 -14 -53 212 callgsubr
            return
          </CharString>
          <CharString index="4">
            rmoveto
            -107 callgsubr
            return
          </CharString>
          <CharString index="5">
            -100 callsubr
            -49 callsubr
            return
          </CharString>
          <CharString index="6">
            -82 callsubr
            -9 2 return
          </CharString>
          <CharString index="7">
            98 -5 89 -12 61 -12 callsubr
            -77 -128 18 -133 hhcurveto
            -118 -112 -20 -17 -68 -67 callsubr
            15 70 111 18 116 297 callsubr
            17 hvcurveto
            -4 -21 -3 -21 -3 -21 -116 -55 -126 -92 -58 -72 2 -20 5 -18 20 -20 return
          </CharString>
          <CharString index="8">
            -92 -58 -67 -80 189 callgsubr
            hvcurveto
            27 -30 rlineto
            27 37 43 15 32 hhcurveto
            32 18 -15 -29 -45 -59 -66 -71 -66 hvcurveto
            11 -17 18 -17 19 -9 rrcurveto
            45 49 77 89 75 253 callsubr
            return
          </CharString>
          <CharString index="9">
            127 -21 116 -26 99 vhcurveto
            -26 -2 -17 -3 -19 -6 rrcurveto
            35 -134 14 -103 -141 vvcurveto
            -212 -57 -135 -111 -84 -43 72 252 110 19 118 28 111 vhcurveto
            1 -6 -7 1 -9 hhcurveto
            -8 -18 -1 -3 -10 hvcurveto
            -25 -77 -25 -145 -134 vvcurveto
            -271 74 -83 103 return
          </CharString>
          <CharString index="10">
            251 callsubr
            -68 10 -64 17 -58 vhcurveto
            -79 callsubr
            -20 41 return
          </CharString>
          <CharString index="11">
            hhcurveto
            -35 -29 19 46 30 13 42 17 26 hvcurveto
            -11 8 -12 5 -18 356 callsubr
            -41 vvcurveto
            -61 38 -47 64 vhcurveto
            return
          </CharString>
          <CharString index="12">
            rmoveto
            224 -76 121 -146 -161 -110 -168 -223 -209 91 -153 135 198 69 239 169 vhcurveto
            -60 -11 rmoveto
            -169 -61 -181 -144 -120 -47 177 147 200 88 134 115 109 60 -86 -222 vhcurveto
            endchar
          </CharString>
          <CharString index="13">
            378 callsubr
            3 23 6 23 11 6 -81 callgsubr
            -19 -12 -6 -28 -3 -25 -1 return
          </CharString>
          <CharString index="14">
            hhcurveto
            74 51 66 87 82 -45 52 -55 -41 -29 -28 -36 -15 hvcurveto
            4 -17 12 -24 13 -13 rrcurveto
            32 6 17 39 35 hhcurveto
            30 24 -30 -52 -65 -38 -44 -50 return
          </CharString>
          <CharString index="15">
            -94 callgsubr
            -9 109 -2 87 1 85 96 18 101 12 122 1 3 15 1 15 -1 17 return
          </CharString>
          <CharString index="16">
            hhcurveto
            -74 -43 -41 -60 -69 47 -44 89 11 14 2 4 8 hvcurveto
            6 13 4 19 22 vvcurveto
            -6 -8 -19 -5 -22 hhcurveto
            -53 -36 23 38 36 29 20 48 return
          </CharString>
          <CharString index="17">
            -92 callsubr
            -158 -4 -98 -16 -126 -22 return
          </CharString>
          <CharString index="18">
            2 6 2 10 0 10 134 callsubr
            return
          </CharString>
          <CharString index="19">
            vvcurveto
            41 -17 34 -30 26 376 callsubr
            25 13 callgsubr
            19 -69 -93 232 callsubr
            -79 -2 callgsubr
            46 9 46 9 53 6 -9 callgsubr
            return
          </CharString>
          <CharString index="20">
            rmoveto
            -6 46 -2 120 41 vvcurveto
            43 1 55 2 55 vhcurveto
            93 38 55 46 47 hhcurveto
            52 20 -39 -91 -106 -13 -98 -21 -114 hvcurveto
            11 -6 23 -5 16 -1 rrcurveto
            12 45 27 149 132 vvcurveto
            139 -40 46 -75 -48 -51 -30 -84 -49 vhcurveto
            2 43 3 40 2 32 rrcurveto
            2 -12 -10 1 -10 hhcurveto
            -13 -13 -3 -5 -10 hvcurveto
            -166 7 -259 7 -129 vhcurveto
            16 19 3 5 13 hvcurveto
            return
          </CharString>
          <CharString index="21">
            11 27 -96 callgsubr
            return
          </CharString>
          <CharString index="22">
            6 -105 callsubr
            return
          </CharString>
          <CharString index="23">
            6 callgsubr
            -19 61 -1 155 156 vvcurveto
            72 -94 callsubr
            return
          </CharString>
          <CharString index="24">
            rrcurveto
            -86 callgsubr
            19 -74 -98 16 -109 hhcurveto
            -110 -96 -16 -19 -74 hvcurveto
            -3 -5 -2 -10 0 -7 0 -9 2 -10 -5 flex1
            17 76 95 14 108 hhcurveto
            return
          </CharString>
          <CharString index="25">
            -5 -70 callgsubr
            return
          </CharString>
          <CharString index="26">
            88 callgsubr
            -9 -7 flex1
            return
          </CharString>
          <CharString index="27">
            vvcurveto
            55 1 45 3 43 vhcurveto
            94 -17 83 -44 -70 vvcurveto
            -47 -38 -33 -61 -21 67 callgsubr
            24 45 59 64 vvcurveto
            86 -82 84 -171 24 vhcurveto
            -9 -91 -4 -89 -112 return
          </CharString>
          <CharString index="28">
            18 23 2 9 13 hvcurveto
            -26 61 -11 64 64 vvcurveto
            42 5 42 9 42 vhcurveto
            return
          </CharString>
          <CharString index="29">
            282 562 rmoveto
            116 95 -13 -14 72 hvcurveto
            3 6 2 147 callsubr
            288 callgsubr
            -71 -95 14 -117 hhcurveto
            -127 -86 -14 -17 -70 hvcurveto
            -3 241 callsubr
            72 85 13 126 hhcurveto
            return
          </CharString>
          <CharString index="30">
            hhcurveto
            -22 -27 8 16 -17 hvcurveto
            15 -54 rlineto
            -9 16 20 -7 22 hhcurveto
            52 46 40 92 21 hvcurveto
            return
          </CharString>
          <CharString index="31">
            345 callgsubr
            10 0 11 0 10 -1 4 -66 callsubr
            20 -77 -100 13 -99 hhcurveto
            -92 -87 -11 -22 -90 -43 callsubr
            20 102 81 9 86 hhcurveto
            return
          </CharString>
          <CharString index="32">
            rrcurveto
            19 4 8 16 9 -36 callsubr
            -36 -9 -27 -9 -18 -12 rrcurveto
            -20 -13 -8 -18 -13 vvcurveto
            -46 vlineto
            88 -21 -41 60 -60 hhcurveto
            -46 -33 -36 -51 -16 hvcurveto
            hintmask 10101111
            -73 callsubr
            hintmask 01011111
            21 callsubr
            return
          </CharString>
          <CharString index="33">
            rmoveto
            7 228 -2 126 149 vvcurveto
            71 -1 58 -5 67 vhcurveto
            1 -6 -6 1 -8 hhcurveto
            -15 -13 -3 -6 -13 hvcurveto
            14 -216 4 -237 -4 -245 18 1 20 2 10 3 rrcurveto
            endchar
          </CharString>
          <CharString index="34">
            46 -15 -30 28 -47 hhcurveto
            -22 -41 -7 -8 -29 hvcurveto
            -3 -16 callsubr
            6 21 47 8 22 hhcurveto
            28 19 -10 -17 13 hvcurveto
            -77 -20 -37 -73 -61 vvcurveto
            -57 33 -22 36 36 25 24 34 16 vhcurveto
            return
          </CharString>
          <CharString index="35">
            -13 7 -17 4 -15 1 rrcurveto
            -105 -2 -19 -42 -39 hhcurveto
            -45 -22 86 144 65 5 68 11 67 hvcurveto
            47 -2 51 2 55 5 rrcurveto
            4 13 3 14 13 vvcurveto
            -57 -5 -50 -2 -45 2 8 42 11 42 13 41 -20 6 -16 4 -23 2 -12 -47 -9 -44 -7 -42 -24 2 -24 4 -24 5 -5 -13 -4 -14 -1 -15 24 -5 25 -3 27 -2 rrcurveto
            -9 -66 -4 -63 -65 vvcurveto
            return
          </CharString>
          <CharString index="36">
            rmoveto
            10 22 6 20 1 20 -131 -9 -148 5 -155 18 228 244 135 175 102 162 rrcurveto
            2 7 37 2 vvcurveto
            -152 22 -127 18 -159 33 -11 -16 -7 -19 -1 -21 111 -20 117 -17 160 -15 -76 -134 -136 -184 -245 -258 -3 -14 -1 -16 1 -18 131 -22 170 -16 173 -1 rrcurveto
            endchar
          </CharString>
          <CharString index="37">
            15 callsubr
            -24 callgsubr
            344 callgsubr
            hvcurveto
            -19 callgsubr
            return
          </CharString>
          <CharString index="38">
            rmoveto
            38 -12 60 -5 88 9 2 17 1 15 -2 19 -56 -7 -67 1 -61 12 -3 -15 -1 -20 1 -14 rrcurveto
            return
          </CharString>
          <CharString index="39">
            -99 callgsubr
            -28 30 54 152 10 172 17 127 hvcurveto
            1 23 24 111 callsubr
            36 7 43 5 rrcurveto
            -12 -119 -8 -139 -170 vvcurveto
            -85 55 -58 64 return
          </CharString>
          <CharString index="40">
            hvcurveto
            -3 -5 -2 -9 0 -7 0 -9 2 -10 -6 flex1
            return
          </CharString>
          <CharString index="41">
            5 flex1
            return
          </CharString>
          <CharString index="42">
            rmoveto
            10 16 7 24 19 vvcurveto
            -2 -14 -12 -1 -11 hhcurveto
            -62 -45 36 62 48 26 31 41 39 37 -29 -47 28 hvcurveto
            17 -31 rlineto
            return
          </CharString>
          <CharString index="43">
            -67 45 -39 62 33 33 11 23 25 vhcurveto
            5 11 1 12 0 11 0 11 -1 10 7 flex1
            -19 -16 -28 -27 -40 hhcurveto
            -33 -25 18 42 89 109 105 71 37 27 -30 -54 -155 -8 -174 -17 -127 hvcurveto
            54 -23 -28 29 -50 hhcurveto
            return
          </CharString>
          <CharString index="44">
            -9 -8 flex1
            return
          </CharString>
          <CharString index="45">
            117 -50 rmoveto
            22 30 4 5 14 hvcurveto
            -26 143 -12 162 1 226 12 17 25 16 41 12 4 13 1 23 -5 10 rrcurveto
            return
          </CharString>
          <CharString index="46">
            160 callgsubr
            12 0 8 115 callgsubr
            return
          </CharString>
          <CharString index="47">
            16 callsubr
            -5 -4 -5 -3 -4 -3 10 -17 14 -14 16 -11 77 58 86 86 53 67 return
          </CharString>
          <CharString index="48">
            139 callsubr
            28 7 36 7 42 5 rrcurveto
            -39 -33 -18 -34 -44 vvcurveto
            -69 48 -38 66 -4 vhcurveto
            2 hlineto
            -92 -69 1 -19 6 -18 21 -18 rlinecurve
            return
          </CharString>
          <CharString index="49">
            rmoveto
            -17 12 -13 6 -15 6 -125 -304 -86 -191 -149 -287 12 -9 9 -10 19 -6 151 289 101 209 113 285 rrcurveto
            return
          </CharString>
          <CharString index="50">
            159 31 54 107 49 hhcurveto
            23 10 -21 -44 -16 -1 -20 -3 -24 hvcurveto
            13 17 0 4 14 hvcurveto
            2 22 1 20 17 vvcurveto
            77 -21 33 -49 -53 -57 -65 -111 -31 vhcurveto
            2 45 5 45 6 49 rrcurveto
            2 -9 -8 2 -8 hhcurveto
            -13 -13 0 -5 -11 hvcurveto
            -9 -177 7 -184 35 -189 return
          </CharString>
          <CharString index="51">
            14 -4 12 -2 15 -1 rrcurveto
            return
          </CharString>
          <CharString index="52">
            83 -57 67 -87 -90 -51 -68 -66 -43 19 -36 26 -22 vhcurveto
            18 5 24 9 11 14 rrcurveto
            -25 13 -14 28 36 vvcurveto
            42 25 39 59 57 41 -35 -51 -62 -36 -42 -80 -48 vhcurveto
            -77 -46 rlineto
            -20 10 -22 16 -12 vhcurveto
            return
          </CharString>
          <CharString index="53">
            4 6 246 callsubr
            4 callsubr
            17 -73 -95 14 -130 hhcurveto
            -131 -95 -14 -17 -72 hvcurveto
            -2 10 callgsubr
            return
          </CharString>
          <CharString index="54">
            rmoveto
            -54 -44 66 136 150 45 64 81 15 16 -2 -6 13 hvcurveto
            20 -66 13 -69 4 -107 rrcurveto
            -97 -20 -31 -69 -58 hhcurveto
            -18 -298 rmoveto
            71 113 68 348 107 -15 127 -19 83 hvcurveto
            17 -31 -38 10 -36 hhcurveto
            -106 -79 -92 -164 -156 61 -97 96 45 36 25 71 29 hvcurveto
            -252 -8 -66 -50 -50 hhcurveto
            -55 -31 242 callsubr
            41 -91 99 hhcurveto
            endchar
          </CharString>
          <CharString index="55">
            112 -51 rmoveto
            15 153 23 190 -2 201 13 16 24 15 39 11 4 13 1 23 -5 10 -29 -8 -27 -10 return
          </CharString>
          <CharString index="56">
            161 -219 7 150 vvcurveto
            52 28 28 42 52 26 -37 -80 11 vhcurveto
            15 2 15 4 15 6 rrcurveto
            95 -16 -34 54 -82 hhcurveto
            -83 -44 -53 -77 hvcurveto
            -171 219 -8 -144 vvcurveto
            -59 -31 -41 -53 vhcurveto
            return
          </CharString>
          <CharString index="57">
            rrcurveto
            19 3 9 14 8 -36 callsubr
            -43 -10 -26 -12 -12 -8 rrcurveto
            -18 -12 -5 -14 -28 vvcurveto
            -6 0 -10 1 -12 vhcurveto
            87 -29 -55 53 -77 -83 callgsubr
            return
          </CharString>
          <CharString index="58">
            109 -24 92 -75 73 -144 rrcurveto
            20 20 3 9 14 hvcurveto
            return
          </CharString>
          <CharString index="59">
            232 callsubr
            -104 -16 -19 -78 -81 callsubr
            return
          </CharString>
          <CharString index="60">
            -35 56 29 28 9 20 22 vhcurveto
            5 10 2 13 11 vvcurveto
            9 -1 9 -4 6 vhcurveto
            -16 -14 -25 -23 -35 hhcurveto
            -29 return
          </CharString>
          <CharString index="61">
            67 107 68 348 107 -15 127 -19 83 hvcurveto
            -22 6 -26 -8 -15 -15 25 -80 15 -84 1 -147 rrcurveto
            -83 -30 -36 -35 -41 hhcurveto
            -66 -33 80 96 85 9 61 35 126 hvcurveto
            -11 6 -23 5 -16 1 rrcurveto
            -31 -98 -20 -71 -116 vvcurveto
            -143 62 -83 82 42 41 22 57 34 vhcurveto
            -224 -11 -58 -46 -44 hhcurveto
            -50 -26 133 callgsubr
            return
          </CharString>
          <CharString index="62">
            40 callsubr
            9 0 9 8 274 callsubr
            90 92 -13 -14 47 hvcurveto
            2 6 1 71 callgsubr
            17 -44 -94 14 -86 hhcurveto
            -90 -98 -14 -17 -57 150 callsubr
            -11 -6 flex1
            31 7 40 7 44 6 -4 -129 -25 -150 -39 -131 return
          </CharString>
          <CharString index="63">
            28 -4 26 -5 22 -91 callgsubr
            33 35 -2 -4 33 hvcurveto
            -1 return
          </CharString>
          <CharString index="64">
            hvcurveto
            -3 -82 callsubr
            -7 2 -9 -10 flex1
            return
          </CharString>
          <CharString index="65">
            17 4 21 19 7 13 rrcurveto
            44 -15 -43 32 -47 hhcurveto
            -69 -45 -52 -61 -67 50 -45 61 -8 hvcurveto
            -39 -26 -33 -27 -23 -25 2 -20 5 -18 20 -20 return
          </CharString>
          <CharString index="66">
            52 2 44 43 41 45 rrcurveto
            11 -35 7 -44 -49 vvcurveto
            -115 -50 -62 -87 -125 -89 108 311 -82 vhcurveto
            -15 -5 -15 -5 -14 -8 rrcurveto
            return
          </CharString>
          <CharString index="67">
            138 -143 rmoveto
            -12 13 -18 10 -16 3 rrcurveto
            -75 -21 -66 -57 -57 hhcurveto
            -72 -37 86 100 return
          </CharString>
          <CharString index="68">
            -33 callgsubr
            -12 return
          </CharString>
          <CharString index="69">
            -1 8 -66 callsubr
            return
          </CharString>
          <CharString index="70">
            22 callsubr
            -29 139 -24 224 callsubr
            return
          </CharString>
          <CharString index="71">
            vhcurveto
            9 5 15 6 24 -85 callsubr
            return
          </CharString>
          <CharString index="72">
            vvcurveto
            16 0 16 1 16 vhcurveto
            61 -40 55 -62 49 -95 19 -1 19 5 14 9 rrcurveto
            -36 93 -18 118 140 vvcurveto
            25 0 36 1 33 vhcurveto
            17 4 10 14 8 vhcurveto
            12 7 20 9 31 8 -105 callsubr
            -47 -11 -25 -12 -17 -9 rrcurveto
            -21 -11 -11 -15 -30 -48 -2 -50 -27 vvcurveto
            -88 6 -88 11 -70 vhcurveto
            -40 64 -48 46 -50 32 rrcurveto
            9 174 30 123 10 vvcurveto
            17 -9 11 -19 3 vhcurveto
            5 -30 -45 5 -44 hhcurveto
            -79 -104 -14 -17 -54 hvcurveto
            -2 -5 -1 -7 0 -7 0 -10 1 -11 -6 flex1
            14 57 97 13 83 hhcurveto
            36 35 -2 -5 32 hvcurveto
            -4 -17 -3 -17 -3 -18 -114 -49 -126 return
          </CharString>
          <CharString index="73">
            -10 8 -18 10 -11 5 rrcurveto
            -103 -70 -43 -51 -53 hhcurveto
            -40 -28 20 36 38 30 30 62 16 hvcurveto
            -6 21 -14 17 -15 8 rrcurveto
            -49 -17 -53 -42 -63 vvcurveto
            -66 56 -46 69 64 52 61 83 56 vhcurveto
            15 -24 2 -25 -44 vvcurveto
            return
          </CharString>
          <CharString index="74">
            rmoveto
            -54 2 -40 3 -31 vhcurveto
            -60 102 -81 61 -85 34 62 66 101 71 return
          </CharString>
          <CharString index="75">
            -129 -5 -32 -58 -61 -77 callsubr
            return
          </CharString>
          <CharString index="76">
            rmoveto
            13 27 3 3 10 hvcurveto
            -18 278 1 289 24 226 rrcurveto
            3 -11 -10 1 -9 hhcurveto
            -12 -13 -4 -4 -8 hvcurveto
            -17 -282 3 -220 20 -293 rrcurveto
            return
          </CharString>
          <CharString index="77">
            144 callsubr
            -115 14 -93 hhcurveto
            -93 -110 -14 -18 -55 -106 callgsubr
            return
          </CharString>
          <CharString index="78">
            rrcurveto
            52 -15 -60 callsubr
            return
          </CharString>
          <CharString index="79">
            rmoveto
            -65 -38 -41 -58 -50 37 -38 52 60 40 39 68 47 -31 33 -55 hvcurveto
            -5 -32 rmoveto
            20 20 -14 -40 -41 -19 -25 -27 -22 -21 18 34 43 22 25 27 hvcurveto
            return
          </CharString>
          <CharString index="80">
            hvcurveto
            -4 -16 callsubr
            return
          </CharString>
          <CharString index="81">
            -78 callsubr
            170 -779 118 callgsubr
            40 4 52 8 45 vhcurveto
            61 30 33 67 90 vvcurveto
            147 -88 111 -100 -68 -41 -50 -65 -45 20 -47 28 -30 vhcurveto
            -20 callsubr
            return
          </CharString>
          <CharString index="82">
            352 141 rmoveto
            115 68 66 99 56 -19 52 -26 39 hvcurveto
            -10 6 -13 4 -10 2 rrcurveto
            -48 -51 -47 -38 -36 hhcurveto
            -35 -21 18 33 38 19 48 19 50 hvcurveto
            103 -2 82 -12 66 -17 79 callgsubr
            -69 -90 16 -117 hhcurveto
            -122 -90 -16 -19 -69 -26 callgsubr
            66 16 82 13 108 2 rrcurveto
            -17 -45 -16 -49 -37 vvcurveto
            -51 43 -50 64 56 46 37 38 41 vhcurveto
            11 -26 6 -32 -34 vvcurveto
            -85 -50 -46 -87 -126 -92 80 229 -82 vhcurveto
            -15 -5 -14 -6 -13 -7 rrcurveto
            -168 59 86 -168 197 hhcurveto
            return
          </CharString>
          <CharString index="83">
            89 22 53 80 67 hhcurveto
            54 14 -33 -56 -35 -8 -38 -7 -27 hvcurveto
            return
          </CharString>
          <CharString index="84">
            55 45 30 92 27 hvcurveto
            2 -51 2 -46 2 -37 rrcurveto
            -131 56 rmoveto
            -65 -46 76 155 164 82 65 80 29 20 -3 -5 15 hvcurveto
            2 -82 1 -83 2 -77 rrcurveto
            -165 -15 -55 -45 -50 hhcurveto
            endchar
          </CharString>
          <CharString index="85">
            -9 8 -14 8 -10 5 -11 -8 -10 -7 -11 -7 rrcurveto
            -8 42 -2 42 39 vvcurveto
            90 20 83 26 80 146 callsubr
            -71 -44 -72 -68 -68 -91 rrcurveto
            14 75 0 94 75 10 0 10 10 vvcurveto
            11 11 0 11 hhcurveto
            129 95 -13 -14 74 hvcurveto
            -54 callsubr
            60 11 74 11 96 4 -2 -107 -6 -127 -32 -106 11 -12 23 -10 17 -3 46 78 79 87 80 58 rrcurveto
            -19 -71 -15 -87 -92 vvcurveto
            -42 2 -44 9 -41 vhcurveto
            return
          </CharString>
          <CharString index="86">
            60 47 53 44 65 hhcurveto
            50 46 -24 -48 32 hvcurveto
            -44 -56 -69 -65 -60 -49 rrcurveto
            return
          </CharString>
          <CharString index="87">
            216 callgsubr
            16 14 5 6 11 hvcurveto
            -34 27 -20 44 42 vvcurveto
            43 18 31 44 70 63 -76 -127 -109 -46 -54 -84 -128 -101 136 249 317 callgsubr
            -9 return
          </CharString>
          <CharString index="88">
            49 vstem
            268 387 rmoveto
            -40 33 -56 47 -67 43 -8 42 rlinecurve
            6 49 55 4 57 hhcurveto
            37 36 -2 -4 34 hvcurveto
            -15 -113 -5 -102 -136 vvcurveto
            -58 2 -43 4 -34 vhcurveto
            -59 96 -81 57 -84 31 rrcurveto
            293 -258 rmoveto
            -23 81 -3 380 callgsubr
            105 5 66 15 88 376 callsubr
            23 -5 3 11 3 23 -6 12 rrcurveto
            17 -61 -85 14 -83 hhcurveto
            -102 -99 -14 -17 -61 hvcurveto
            -7 -11 2 -21 5 -14 10 2 11 3 12 2 22 -58 99 -47 49 -43 -141 -129 rcurveline
            2 -20 8 -17 25 -18 108 -23 89 -70 73 -133 rrcurveto
            20 20 3 9 14 hvcurveto
            return
          </CharString>
          <CharString index="89">
            -33 113 rmoveto
            -22 -15 15 22 24 20 17 26 19 20 -10 -16 15 hvcurveto
            -37 -22 -20 -15 -21 hhcurveto
            return
          </CharString>
          <CharString index="90">
            -27 -23 34 -41 hhcurveto
            -42 -20 -29 -47 4 hvcurveto
            12 -5 15 -3 15 1 rrcurveto
            26 -2 8 10 15 hhcurveto
            return
          </CharString>
          <CharString index="91">
            -5 -2 188 callsubr
            94 callgsubr
            return
          </CharString>
          <CharString index="92">
            rmoveto
            181 241 70 251 70 277 -22 10 -22 8 -22 6 -29 -176 -39 -151 -61 -141 -83 135 -65 146 -40 201 -23 -2 -20 -6 -21 -9 51 -211 59 -151 116 -160 -40 -84 -49 -81 -59 -82 rrcurveto
            14 -9 16 -7 18 -5 rrcurveto
            endchar
          </CharString>
          <CharString index="93">
            93 11 0 11 10 vvcurveto
            79 -4 72 -11 59 -14 -83 callsubr
            12 13 0 -1 12 hvcurveto
            return
          </CharString>
          <CharString index="94">
            345 rmoveto
            47 -67 40 -58 25 vhcurveto
            -21 callsubr
            3 8 2 9 9 vvcurveto
            return
          </CharString>
          <CharString index="95">
            -14 rrcurveto
            -86 callgsubr
            19 return
          </CharString>
          <CharString index="96">
            -18 2 -20 -1 -18 -2 4 -53 -6 -79 -19 -108 10 -3 13 -3 12 -1 rrcurveto
            34 114 8 58 76 vvcurveto
            return
          </CharString>
          <CharString index="97">
            276 callgsubr
            18 48 28 13 43 17 26 hvcurveto
            -11 8 -12 5 -18 256 callgsubr
            38 -47 64 vhcurveto
            return
          </CharString>
          <CharString index="98">
            -59 -71 -41 -54 hhcurveto
            -39 -33 21 55 33 12 49 19 30 hvcurveto
            -10 9 -12 6 -18 1 rrcurveto
            -21 -38 -19 -52 -46 vvcurveto
            -69 42 -52 72 vhcurveto
            return
          </CharString>
          <CharString index="99">
            9 -23 hhcurveto
            -8 -12 -1 -3 -12 hvcurveto
            -3 -5 -1 -9 -6 callsubr
            -10 259 callgsubr
            3 13 16 2 8 hhcurveto
            35 28 -39 -58 hvcurveto
            -1 -204 -22 -148 -28 -128 rrcurveto
            return
          </CharString>
          <CharString index="100">
            363 566 rmoveto
            129 174 -13 -18 90 hvcurveto
            241 callgsubr
            22 -79 -180 13 -129 hhcurveto
            -132 -146 -13 -22 -90 108 callsubr
            92 141 13 130 hhcurveto
            return
          </CharString>
          <CharString index="101">
            0 -8 0 return
          </CharString>
          <CharString index="102">
            -59 40 -37 43 17 16 6 7 6 vhcurveto
            5 14 2 16 -2 20 rrcurveto
            -7 -9 -14 -9 -19 hhcurveto
            -28 -17 19 30 41 25 15 25 hvcurveto
            return
          </CharString>
          <CharString index="103">
            -33 5 -27 -4 -19 -4 rrcurveto
            -24 2 -15 1 -26 vhcurveto
            23 -3 20 0 27 3 193 callgsubr
            rrcurveto
            return
          </CharString>
          <CharString index="104">
            rmoveto
            -20 -16 -16 -20 -23 16 -20 25 21 15 15 20 24 -17 20 -24 hvcurveto
            endchar
          </CharString>
          <CharString index="105">
            hvcurveto
            -3 -5 -2 235 callgsubr
            return
          </CharString>
          <CharString index="106">
            8 0 8 8 vvcurveto
            63 -7 87 -10 51 vhcurveto
            72 -5 66 -10 54 -13 -83 callsubr
            16 16 0 -1 16 hvcurveto
            9 -45 3 -64 1 -67 rrcurveto
            71 -42 -79 48 -77 -91 callsubr
            return
          </CharString>
          <CharString index="107">
            rmoveto
            23 19 5 8 17 hvcurveto
            98 -44 75 -96 -115 -83 -145 -198 -119 40 -105 119 83 74 69 77 20 343 callsubr
            -16 6 rrcurveto
            -76 -30 -44 -51 -57 hhcurveto
            -80 -33 84 100 143 61 150 85 378 callgsubr
            endchar
          </CharString>
          <CharString index="108">
            rmoveto
            9 7 2 2 6 hvcurveto
            13 148 31 198 37 92 -9 9 -9 5 -12 6 -59 -53 -66 -42 -60 -32 7 -16 8 -9 13 -11 47 28 37 26 33 25 -19 -76 -15 -88 -8 -75 -7 -55 -3 -35 -2 -49 rrcurveto
            7 -1 6 0 8 1 rrcurveto
            return
          </CharString>
          <CharString index="109">
            rmoveto
            -32 -21 22 34 29 17 25 35 21 26 -10 -18 19 hvcurveto
            -54 -3 -25 -28 -37 hhcurveto
            return
          </CharString>
          <CharString index="110">
            rmoveto
            -31 -24 21 31 34 19 21 46 19 23 -4 -13 16 hvcurveto
            -41 2 -20 -49 -50 hhcurveto
            return
          </CharString>
          <CharString index="111">
            9 -66 callsubr
            return
          </CharString>
          <CharString index="112">
            -1 6 -1 6 7 vvcurveto
            62 43 32 59 return
          </CharString>
          <CharString index="113">
            vstem
            491 -78 rmoveto
            19 11 12 13 11 14 -125 191 -53 64 -117 108 100 94 62 89 74 138 -13 15 -15 14 -16 8 -88 -183 -54 -82 -162 -143 rrcurveto
            22 0 23 25 vvcurveto
            114 2 109 21 134 vhcurveto
            -8 2 -11 2 -13 -12 -14 -2 -12 hflex1
            -7 -103 -4 -86 -71 vvcurveto
            -176 6 -122 26 -211 vhcurveto
            15 20 3 2 15 hvcurveto
            -13 104 -7 79 -3 109 27 22 25 20 23 20 140 -135 64 -89 85 -144 rrcurveto
            return
          </CharString>
          <CharString index="114">
            vvcurveto
            59 0 42 2 35 vhcurveto
            103 -20 81 -38 -66 vvcurveto
            -45 -34 -40 -65 -24 4 callgsubr
            48 25 46 65 64 vvcurveto
            83 -77 66 -140 31 vhcurveto
            return
          </CharString>
          <CharString index="115">
            -128 rmoveto
            24 -14 16 -24 -23 -18 -17 -23 -25 18 -17 23 24 14 16 26 vhcurveto
            -452 hmoveto
            24 -15 16 -23 -24 -17 -17 -23 -25 17 -17 24 23 15 16 26 vhcurveto
            hintmask 001000000000101000000000
            358 -97 rmoveto
            25 -16 16 -25 -24 -15 -16 -25 -23 15 -16 24 25 16 16 23 vhcurveto
            -263 hmoveto
            25 -16 16 -24 -23 -16 -16 -25 -23 16 -16 23 24 16 16 23 vhcurveto
            hintmask 010000000000010000000000
            132 -35 rmoveto
            25 -15 16 -25 -25 -14 -16 -25 207 callgsubr
            vhcurveto
            endchar
          </CharString>
          <CharString index="116">
            3 7 2 10 0 8 0 7 -29 callgsubr
            return
          </CharString>
          <CharString index="117">
            rmoveto
            15 14 2 7 15 hvcurveto
            return
          </CharString>
          <CharString index="118">
            hhcurveto
            -95 -77 -67 -71 -45 95 callsubr
            -6 359 callsubr
            -4 10 -17 14 -14 16 -11 return
          </CharString>
          <CharString index="119">
            0 -8 138 callgsubr
            return
          </CharString>
          <CharString index="120">
            448 439 rmoveto
            -50 -36 46 75 -5 hvcurveto
            32 -1 33 -1 31 -3 rrcurveto
            27 -8 20 -20 -34 vvcurveto
            -34 -21 -20 -31 vhcurveto
            96 48 rmoveto
            25 -9 20 -14 16 vhcurveto
            28 -3 25 -5 20 -5 rrcurveto
            -25 callgsubr
            21 -61 -127 9 -101 hhcurveto
            -103 -127 -9 -21 -75 -27 callsubr
            17 78 124 9 102 6 6 0 6 hhcurveto
            -110 7 59 -55 63 hhcurveto
            52 41 36 55 hvcurveto
            return
          </CharString>
          <CharString index="121">
            0 10 0 7 return
          </CharString>
          <CharString index="122">
            hhcurveto
            -47 callgsubr
            return
          </CharString>
          <CharString index="123">
            77 -29 -47 vvcurveto
            -16 -8 -14 -12 -9 vhcurveto
            return
          </CharString>
          <CharString index="124">
            20 19 2 9 15 hvcurveto
            return
          </CharString>
          <CharString index="125">
            218 -13 callsubr
            return
          </CharString>
          <CharString index="126">
            2 21 1 22 2 22 89 -4 85 -12 63 -13 -69 callgsubr
            16 80 99 15 113 9 8 0 9 hhcurveto
            -2 -22 -2 -22 -2 -21 -109 -51 -117 -85 -54 -66 2 -20 5 -18 20 -19 33 -8 34 -5 31 -11 335 callgsubr
            return
          </CharString>
          <CharString index="127">
            101 -4 94 -13 62 -12 callsubr
            -77 -128 18 -133 hhcurveto
            -118 -112 -20 -17 -68 -67 callsubr
            15 70 111 18 116 14 13 0 14 hhcurveto
            -3 -23 -2 -23 154 callsubr
            return
          </CharString>
          <CharString index="128">
            -34 15 25 -21 35 hhcurveto
            45 25 35 52 70 -45 59 -53 16 hvcurveto
            19 13 18 12 21 hhcurveto
            return
          </CharString>
          <CharString index="129">
            rmoveto
            17 callsubr
            return
          </CharString>
          <CharString index="130">
            231 callsubr
            17 -79 -95 6 -114 hhcurveto
            -125 -118 -3 -30 -122 -43 callsubr
            123 24 100 4 103 1 -5 -55 -5 -59 -4 -64 rrcurveto
            71 -37 -60 51 -63 -91 callsubr
            67 76 -68 -68 13 hvcurveto
            -3 -61 -1 -66 -71 vvcurveto
            return
          </CharString>
          <CharString index="131">
            rmoveto
            -33 -21 22 30 29 19 27 32 return
          </CharString>
          <CharString index="132">
            rmoveto
            -13 107 -5 94 87 3 0 3 2 vvcurveto
            12 10 12 9 11 9 89 -122 53 -53 89 -68 16 12 10 18 8 14 -111 76 -55 56 -64 96 96 83 44 58 64 100 -11 12 -13 9 -14 8 -80 -127 -54 -59 -101 -87 rrcurveto
            2 145 11 131 23 149 -15 4 -18 1 -26 -4 rrcurveto
            -21 -145 -9 -142 -139 vvcurveto
            -121 6 -89 13 -145 vhcurveto
            13 24 3 2 14 hvcurveto
            return
          </CharString>
          <CharString index="133">
            rmoveto
            36 69 14 65 8 75 -16 4 -27 1 -19 -2 -3 -76 -12 -66 212 callgsubr
            return
          </CharString>
          <CharString index="134">
            -49 -67 -31 -44 hhcurveto
            -36 -29 21 47 36 17 45 22 29 hvcurveto
            -11 8 -13 5 -18 1 rrcurveto
            -22 -37 -21 -48 -46 vvcurveto
            -63 38 -50 66 vhcurveto
            return
          </CharString>
          <CharString index="135">
            40 -34 28 -49 -54 vvcurveto
            -82 -62 -39 -75 -37 -44 9 17 -51 vhcurveto
            15 -70 return
          </CharString>
          <CharString index="136">
            2 21 2 21 2 22 89 -5 84 -10 64 145 callgsubr
            21 -78 -134 14 -128 hhcurveto
            -130 -118 -14 -21 -88 108 callsubr
            91 112 13 129 hhcurveto
            22 22 0 -1 21 hvcurveto
            -2 -22 -2 -21 198 callsubr
            94 -25 return
          </CharString>
          <CharString index="137">
            rrcurveto
            9 callsubr
            return
          </CharString>
          <CharString index="138">
            rmoveto
            18 25 5 7 15 hvcurveto
            -21 76 -11 78 77 vvcurveto
            69 9 68 22 64 vhcurveto
            -6 19 -12 18 -14 11 rrcurveto
            -18 -33 -35 -8 -32 hhcurveto
            return
          </CharString>
          <CharString index="139">
            13 16 24 15 39 11 rrcurveto
            2 7 1 9 0 10 0 8 148 callgsubr
            -18 -5 -18 -6 -16 -7 rrcurveto
            5 15 3 16 16 vvcurveto
            49 -28 41 -64 49 vhcurveto
            -56 43 -43 12 65 vvcurveto
            13 1 12 2 13 vhcurveto
            -13 1 -17 -2 -12 -4 rrcurveto
            -3 -15 -1 -14 -11 vvcurveto
            -82 39 -5 83 -66 vhcurveto
            61 -48 17 -25 -32 vvcurveto
            -27 -12 -28 -17 -21 vhcurveto
            -31 26 -44 17 -42 10 rrcurveto
            return
          </CharString>
          <CharString index="140">
            -6 rrcurveto
            2 7 1 9 0 10 0 11 -1 4 -66 callsubr
            21 -80 -68 10 -75 hhcurveto
            -79 -84 -11 -20 -85 -43 callsubr
            16 71 97 11 83 hhcurveto
            return
          </CharString>
          <CharString index="141">
            vvcurveto
            44 20 52 25 28 343 callsubr
            -14 7 rrcurveto
            -32 -41 -20 -51 -51 vvcurveto
            return
          </CharString>
          <CharString index="142">
            rmoveto
            -26 111 -14 134 -3 150 rrcurveto
            24 -3 26 -1 26 39 18 2 11 hflex1
            2 12 3 21 15 vvcurveto
            -3 -17 -23 -3 -28 hhcurveto
            -28 -28 1 1 -26 hvcurveto
            6 0 6 6 vvcurveto
            return
          </CharString>
          <CharString index="143">
            1 -18 -18 0 -18 hhcurveto
            -114 -111 -2 callgsubr
            34 7 38 6 42 6 26 -3 25 -23 18 -31 rrcurveto
            -77 -11 -51 -38 -61 vvcurveto
            -55 38 -41 57 59 41 46 68 17 -2 16 -5 16 vhcurveto
            3 hlineto
            82 36 -19 -41 -24 -1 -15 -1 -20 hvcurveto
            -96 -39 -128 -80 -55 -54 88 callsubr
            return
          </CharString>
          <CharString index="144">
            117 callsubr
            29 -107 -148 6 -178 hhcurveto
            -180 -125 -5 -30 -122 -106 callgsubr
            return
          </CharString>
          <CharString index="145">
            vvcurveto
            80 12 76 22 69 262 callsubr
            10 0 10 9 vvcurveto
            1 13 13 0 13 hhcurveto
            110 113 -10 -17 56 hvcurveto
            2 6 1 71 callgsubr
            20 -53 -116 11 -105 hhcurveto
            -99 -107 -12 -19 -62 150 callsubr
            -11 -6 flex1
            return
          </CharString>
          <CharString index="146">
            145 -236 2 callsubr
            286 -291 rmoveto
            20 19 2 9 15 hvcurveto
            -29 139 -24 222 120 7 callsubr
            return
          </CharString>
          <CharString index="147">
            67 callsubr
            -83 -51 -89 -77 -79 -104 rrcurveto
            22 92 11 114 93 return
          </CharString>
          <CharString index="148">
            -6 17 -6 10 -11 9 rrcurveto
            -32 -17 -18 -13 -24 hhcurveto
            return
          </CharString>
          <CharString index="149">
            88 31 -56 -140 -10 hvcurveto
            19 -1 26 4 14 11 rrcurveto
            152 6 -47 77 -117 hhcurveto
            -157 -107 -162 -246 return
          </CharString>
          <CharString index="150">
            -28 32 -66 15 vhcurveto
            -40 9 -41 9 -18 8 -10 47 rlinecurve
            -10 -2 -15 -6 -12 -8 13 -69 36 -11 69 -15 rrcurveto
            51 -13 32 -11 -43 vvcurveto
            -29 -9 -44 -12 -37 vhcurveto
            67 -11 -42 41 -56 hhcurveto
            -51 -37 -41 -55 -53 37 -38 43 19 20 11 18 10 hvcurveto
            -2 15 -8 22 -8 15 rrcurveto
            -18 -8 -12 -14 -18 hhcurveto
            -16 -14 12 25 30 19 20 29 return
          </CharString>
          <CharString index="151">
            -109 -52 -116 -84 -54 -66 2 -20 5 -18 20 -19 return
          </CharString>
          <CharString index="152">
            60 20 -35 -24 21 hvcurveto
            endchar
          </CharString>
          <CharString index="153">
            87 -51 66 -74 -31 -29 -12 -22 -24 hvcurveto
            68 -67 51 -88 -107 -91 -70 -105 2 vhcurveto
            -13 12 27 -9 17 hhcurveto
            -2 6 -3 12 14 vvcurveto
            66 67 62 92 58 38 -29 -51 vhcurveto
            return
          </CharString>
          <CharString index="154">
            rmoveto
            -33 96 -60 60 -70 35 57 46 90 57 62 33 -5 -114 -13 -117 -28 -96 rrcurveto
            return
          </CharString>
          <CharString index="155">
            rmoveto
            65 callgsubr
            hintmask 11110000
            42 callsubr
            -207 82 -113 140 hvcurveto
            hintmask 11101000
            125 69 85 160 8 hvcurveto
            endchar
          </CharString>
          <CharString index="156">
            57 67 27 56 74 callgsubr
          </CharString>
          <CharString index="157">
            79 callsubr
            -56 -13 -34 -18 -17 -25 -30 23 -51 21 -56 12 rrcurveto
            -2 -5 -1 -8 0 -9 0 -8 1 326 callsubr
            return
          </CharString>
          <CharString index="158">
            -8 -37 -5 -41 -4 -43 -35 4 -36 6 -38 8 70 99 50 103 40 106 -15 6 -19 7 -19 1 -43 -133 -40 -82 -83 -116 3 -10 3 -9 6 -9 rrcurveto
            return
          </CharString>
          <CharString index="159">
            hhcurveto
            -50 -42 -35 -59 -62 45 -44 58 55 37 40 52 14 hvcurveto
            return
          </CharString>
          <CharString index="160">
            52 hstem
            -377 47 430 48 vstem
            -52 callsubr
            -21 -13 rrcurveto
            198 -18 -127 126 -206 hhcurveto
            -101 -72 -38 -66 -33 20 -26 36 -15 hvcurveto
            41 16 rlineto
            -29 9 -21 17 24 vvcurveto
            37 42 23 86 return
          </CharString>
          <CharString index="161">
            49 45 -1 -3 41 hvcurveto
            -4 -30 -3 -32 -3 -33 -143 9 -46 13 return
          </CharString>
          <CharString index="162">
            rmoveto
            26 19 3 6 13 hvcurveto
            -13 45 -9 109 108 vvcurveto
            77 3 76 7 58 105 callgsubr
            -43 -10 -20 -10 -11 -7 -21 -14 -5 -13 -5 -28 -3 -14 -2 -15 -2 -16 rrcurveto
            96 -30 -62 63 -92 hhcurveto
            return
          </CharString>
          <CharString index="163">
            -91 10 -87 17 -78 vhcurveto
            18 23 4 11 13 hvcurveto
            -26 82 -11 86 86 vvcurveto
            57 5 57 9 56 vhcurveto
            -26 41 return
          </CharString>
          <CharString index="164">
            76 43 -66 -133 1 hvcurveto
            23 2 19 3 17 5 rrcurveto
            133 2 -54 103 -112 hhcurveto
            -154 -96 -173 -245 -211 80 -116 112 hvcurveto
            return
          </CharString>
          <CharString index="165">
            15 10 9 11 13 18 -67 45 -51 50 -34 47 54 37 49 47 45 61 -10 15 -11 9 -18 13 -54 -80 -60 -57 -54 -32 42 -74 55 -62 77 -58 rrcurveto
            return
          </CharString>
          <CharString index="166">
            59 24 -57 -111 -116 -34 -77 -56 -57 -35 75 102 116 43 68 56 hvcurveto
            return
          </CharString>
          <CharString index="167">
            63 32 25 -25 -47 -136 -8 -154 -15 -112 hvcurveto
            50 -20 -26 26 -44 hhcurveto
            return
          </CharString>
          <CharString index="168">
            50 hstem
            246 54 195 82 callgsubr
            261 return
          </CharString>
          <CharString index="169">
            78 callgsubr
            233 callgsubr
            31 83 17 175 5 137 30 15 30 13 29 11 rrcurveto
            -8 -56 -3 -56 -54 vvcurveto
            -170 -218 47 callsubr
            endchar
          </CharString>
          <CharString index="170">
            38 34 22 34 28 hvcurveto
            21 -29 10 -35 -40 vvcurveto
            -84 -45 -51 -85 -154 -116 166 366 -87 vhcurveto
            -15 -7 -13 -8 -13 -11 rrcurveto
            -256 61 108 -304 226 hhcurveto
            -1 286 rmoveto
            -26 -20 17 26 27 20 21 29 26 25 -16 -25 18 hvcurveto
            -36 -25 -23 -14 -24 hhcurveto
            endchar
          </CharString>
          <CharString index="171">
            124 callgsubr
            40 28 42 81 37 hvcurveto
            1 13 14 0 13 hhcurveto
            288 callsubr
            -12 -104 -7 -123 -123 vvcurveto
            return
          </CharString>
          <CharString index="172">
            hhcurveto
            105 60 81 127 50 -9 54 -13 45 hvcurveto
            -9 10 -13 11 -11 6 rrcurveto
            -46 -48 -55 -30 -38 hhcurveto
            return
          </CharString>
          <CharString index="173">
            hvcurveto
            -25 callgsubr
            return
          </CharString>
          <CharString index="174">
            -11 19 -13 14 -20 10 return
          </CharString>
          <CharString index="175">
            -84 callsubr
            234 callgsubr
            95 -31 return
          </CharString>
          <CharString index="176">
            -67 -38 56 95 3 hvcurveto
            -21 1 -16 -3 -15 -4 rrcurveto
            -118 65 -71 87 vhcurveto
            return
          </CharString>
          <CharString index="177">
            45 47 29 35 41 vhcurveto
            367 callsubr
            -111 -78 112 289 -70 245 callsubr
            -205 49 74 -228 177 65 callsubr
            return
          </CharString>
          <CharString index="178">
            -1 -20 6 -19 16 -18 return
          </CharString>
          <CharString index="179">
            vvcurveto
            107 -53 110 -86 -54 -35 -50 -65 -24 6 -25 9 -18 vhcurveto
            -5 11 22 -3 19 hhcurveto
            -14 19 -7 29 24 vvcurveto
            49 17 29 34 53 33 -70 -97 -85 -28 -57 -66 -106 -73 144 172 -54 vhcurveto
            -15 -6 -13 -10 -11 -11 rrcurveto
            -169 54 86 -172 132 hhcurveto
            return
          </CharString>
          <CharString index="180">
            -4 -10 -1 -21 5 -15 55 -13 37 -21 6 -32 1 -191 8 -175 10 -153 rrcurveto
            endchar
          </CharString>
          <CharString index="181">
            151 callsubr
            13 16 24 15 39 11 4 13 1 23 -5 10 -44 -12 -41 -18 -21 -23 -31 26 -45 17 -42 10 -4 -10 -1 -21 5 -15 59 -15 39 -23 2 -39 rrcurveto
            200 callgsubr
            return
          </CharString>
          <CharString index="182">
            -56 -47 -30 -44 hhcurveto
            -36 -28 19 41 25 7 26 9 19 hvcurveto
            -10 8 -12 5 -18 1 rrcurveto
            -12 -26 -10 -30 -32 vvcurveto
            -61 36 -43 68 vhcurveto
            return
          </CharString>
          <CharString index="183">
            106 callgsubr
            79 60 88 88 54 67 11 -28 6 -33 1 -38 rrcurveto
            -3 return
          </CharString>
          <CharString index="184">
            vvcurveto
            -52 -28 -33 -48 vhcurveto
            -110 -5 142 -104 hhcurveto
            -47 -43 -33 -63 hvcurveto
            return
          </CharString>
          <CharString index="185">
            124 callsubr
            119 122 vvcurveto
            return
          </CharString>
          <CharString index="186">
            2 7 246 callsubr
            8 5 flex1
            return
          </CharString>
          <CharString index="187">
            208 callsubr
            19 -69 -158 16 -113 98 callsubr
            return
          </CharString>
          <CharString index="188">
            99 callsubr
            56 357 callsubr
            -1 -29 0 -30 -32 155 callgsubr
            return
          </CharString>
          <CharString index="189">
            rrcurveto
            13 -53 -68 10 -62 hhcurveto
            -71 -85 -12 -16 -54 -106 callgsubr
            40 10 55 8 55 4 rrcurveto
            -126 -4 -25 -56 -53 hhcurveto
            -21 -24 8 16 -16 hvcurveto
            15 -54 rlineto
            -9 15 17 -7 21 hhcurveto
            48 40 34 92 17 hvcurveto
            return
          </CharString>
          <CharString index="190">
            254 callgsubr
            -13 20 hvcurveto
            -60 -6 -26 -29 -37 hhcurveto
            endchar
          </CharString>
          <CharString index="191">
            -101 -43 103 136 1 hvcurveto
            -22 -2 -20 -6 -16 -9 rrcurveto
            -122 45 -147 157 vhcurveto
            return
          </CharString>
          <CharString index="192">
            46 23 26 35 36 26 -27 -36 3 vhcurveto
            112 callsubr
            return
          </CharString>
          <CharString index="193">
            36 36 23 39 25 hvcurveto
            17 -18 11 -23 -28 vvcurveto
            -50 -34 -47 -84 -116 -138 103 304 -54 vhcurveto
            -16 -3 -16 -4 -11 -9 return
          </CharString>
          <CharString index="194">
            53 callgsubr
            45 callgsubr
            return
          </CharString>
          <CharString index="195">
            rrcurveto
            -19 9 -20 18 -17 vhcurveto
            return
          </CharString>
          <CharString index="196">
            12 -38 8 -45 -50 vvcurveto
            -116 return
          </CharString>
          <CharString index="197">
            vvcurveto
            42 callgsubr
            return
          </CharString>
          <CharString index="198">
            -32 -11 -23 -17 -25 vhcurveto
            24 -27 -30 15 -32 hhcurveto
            -49 -32 -38 -44 -48 41 -34 44 hvcurveto
            return
          </CharString>
          <CharString index="199">
            31 29 19 30 22 hvcurveto
            10 -17 6 -20 -19 vvcurveto
            return
          </CharString>
          <CharString index="200">
            204 callsubr
            rrcurveto
            return
          </CharString>
          <CharString index="201">
            531 92 rmoveto
            54 callsubr
            -27 76 rrcurveto
            1 29 30 0 32 hhcurveto
            -6 -386 rmoveto
            116 -57 104 -100 43 vhcurveto
            49 -16 43 -26 24 vhcurveto
            23 1 25 2 25 1 rrcurveto
            return
          </CharString>
          <CharString index="202">
            hvcurveto
            4 -22 7 -20 10 -20 176 callgsubr
            return
          </CharString>
          <CharString index="203">
            15 16 235 callsubr
            return
          </CharString>
          <CharString index="204">
            65 callsubr
            -24 -28 12 47 58 41 87 43 55 hvcurveto
            -83 32 58 -75 100 175 callgsubr
            return
          </CharString>
          <CharString index="205">
            hhcurveto
            -114 -104 -16 -19 -78 -81 callsubr
            55 11 65 11 72 5 rrcurveto
            return
          </CharString>
          <CharString index="206">
            rmoveto
            -79 2 -52 2 -37 vhcurveto
            -44 59 -77 33 -72 32 return
          </CharString>
          <CharString index="207">
            -158 -4 -98 -16 -126 -22 return
          </CharString>
          <CharString index="208">
            139 -43 120 -79 119 -133 return
          </CharString>
          <CharString index="209">
            790 52 hstemhm
            46 47 121 callsubr
            return
          </CharString>
          <CharString index="210">
            71 -41 -64 46 161 callgsubr
            81 69 -79 -91 21 hvcurveto
            -2 1 -1 -2 vvcurveto
            return
          </CharString>
          <CharString index="211">
            -11 0 -11 -11 vvcurveto
            -108 -34 -110 -31 -51 -42 71 callsubr
            124 -16 71 -18 65 -95 rrcurveto
            -5 58 rmoveto
            -47 62 -68 25 -92 21 57 31 84 27 59 15 1 -71 2 -60 4 -50 rrcurveto
            endchar
          </CharString>
          <CharString index="212">
            329 199 rmoveto
            -48 2 -39 3 -33 vhcurveto
            -58 106 -82 63 -84 36 152 callsubr
            return
          </CharString>
          <CharString index="213">
            113 25 212 77 hhcurveto
            32 18 -25 -29 hvcurveto
            1 vlineto
            -21 0 -20 -22 vvcurveto
            return
          </CharString>
          <CharString index="214">
            -13 -15 45 hvcurveto
            144 callsubr
            return
          </CharString>
          <CharString index="215">
            -81 callsubr
            18 return
          </CharString>
          <CharString index="216">
            -94 8 44 180 37 219 45 return
          </CharString>
          <CharString index="217">
            vvcurveto
            -56 -35 -34 -52 vhcurveto
            return
          </CharString>
          <CharString index="218">
            1 26 157 callgsubr
            18 -62 -81 13 -97 -48 callgsubr
            return
          </CharString>
          <CharString index="219">
            -42 callsubr
            99 -23 87 -67 68 -126 rrcurveto
            16 -15 -19 8 -25 hhcurveto
            return
          </CharString>
          <CharString index="220">
            -37 1 -35 2 -34 3 5 50 7 46 11 35 rrcurveto
            1 -7 -10 1 -9 hhcurveto
            -14 -1 -9 -2 -6 -3 rrcurveto
            return
          </CharString>
          <CharString index="221">
            53 -9 51 -7 50 -6 rrcurveto
            -1 -16 0 -17 -17 vvcurveto
            -21 1 -21 1 -22 vhcurveto
            4 -1 5 -1 8 -1 rrcurveto
            return
          </CharString>
          <CharString index="222">
            -17 72 -8 70 65 vvcurveto
            76 11 72 21 65 146 callsubr
            return
          </CharString>
          <CharString index="223">
            rmoveto
            -23 81 -4 380 callgsubr
            return
          </CharString>
          <CharString index="224">
            hvcurveto
            -88 callgsubr
            return
          </CharString>
          <CharString index="225">
            20 -1 22 0 15 8 rrcurveto
            return
          </CharString>
          <CharString index="226">
            hvcurveto
            15 -70 -96 11 -95 hhcurveto
            -112 -105 -16 -19 -77 -2 callsubr
            -8 2 -11 -6 flex1
            16 79 100 15 111 10 11 0 10 hhcurveto
            -14 0 -13 -1 -13 vhcurveto
            -118 return
          </CharString>
          <CharString index="227">
            25 -4 22 -5 21 139 callsubr
            10 return
          </CharString>
          <CharString index="228">
            5 48 hintmask 10100000
            -62 callsubr
            hintmask 11000000
            -36 -9 -33 -14 -23 -18 rrcurveto
            return
          </CharString>
          <CharString index="229">
            vstem
            43 181 rmoveto
            104 44 77 39 83 59 3 35 rcurveline
            -74 57 -84 43 -106 41 -7 -12 -5 -12 -1 -13 93 -40 76 -37 59 -43 -65 -44 -70 -38 -96 -41 3 -14 4 -7 6 -17 rrcurveto
            return
          </CharString>
          <CharString index="230">
            78 callsubr
            72 3 return
          </CharString>
          <CharString index="231">
            rmoveto
            126 callgsubr
            return
          </CharString>
          <CharString index="232">
            -24 -41 45 363 45 276 47 return
          </CharString>
          <CharString index="233">
            hvcurveto
            9 -6 11 -5 13 -2 14 48 19 50 21 41 rrcurveto
            hintmask 1111110101000000
            7 -82 32 -26 -56 vvcurveto
            -37 -14 -40 -20 -34 vhcurveto
            23 -21 -30 14 -31 hhcurveto
            -51 -32 -41 -46 -51 39 -34 46 hvcurveto
            return
          </CharString>
          <CharString index="234">
            -49 callsubr
            -74 203 -33 callsubr
            69 33 rrcurveto
            -7 -75 -4 -77 -90 vvcurveto
            return
          </CharString>
          <CharString index="235">
            5 48 hintmask 01010000
            -62 callsubr
            hintmask 11100000
            -36 -9 -33 -14 -23 return
          </CharString>
          <CharString index="236">
            363 474 rmoveto
            73 -56 52 -77 -82 -63 -64 -79 -74 56 -52 74 82 66 65 79 vhcurveto
            -232 -2 rmoveto
            51 31 33 53 60 42 -36 -59 -53 -34 -35 -54 -57 -41 38 61 vhcurveto
            return
          </CharString>
          <CharString index="237">
            -48 -65 -23 -44 hhcurveto
            -46 -26 37 40 -20 hvcurveto
            -11 -3 -20 -9 -10 -9 rrcurveto
            -61 28 38 -41 65 return
          </CharString>
          <CharString index="238">
            98 -32 95 -30 36 -100 rrcurveto
            20 18 3 7 15 hvcurveto
            return
          </CharString>
          <CharString index="239">
            hhcurveto
            21 24 4 10 24 hvcurveto
            -20 -68 -9 -78 -78 vvcurveto
            return
          </CharString>
          <CharString index="240">
            98 131 139 129 return
          </CharString>
          <CharString index="241">
            0 7 -38 callsubr
            return
          </CharString>
          <CharString index="242">
            22 15 4 5 5 return
          </CharString>
          <CharString index="243">
            172 callgsubr
            -203 -140 -20 -23 -86 hvcurveto
            return
          </CharString>
          <CharString index="244">
            20 18 2 7 15 hvcurveto
            return
          </CharString>
          <CharString index="245">
            -54 callgsubr
            21 -82 -94 12 -124 hhcurveto
            -138 -86 -9 -24 -103 -106 callgsubr
            return
          </CharString>
          <CharString index="246">
            -35 callgsubr
            41 callgsubr
            return
          </CharString>
          <CharString index="247">
            76 46 40 58 hvcurveto
            2 0 2 2 vvcurveto
            35 7 43 6 48 4 rrcurveto
            -41 -34 -20 -35 -45 vvcurveto
            -69 48 -38 66 -4 vhcurveto
            2 hlineto
            -92 -69 1 -19 6 -18 21 -18 rlinecurve
            return
          </CharString>
          <CharString index="248">
            rmoveto
            -50 19 -51 18 -53 15 40 22 51 21 43 13 5 -37 7 -36 8 -35 rrcurveto
            endchar
          </CharString>
          <CharString index="249">
            34 -29 -33 19 -37 hhcurveto
            -61 -44 -46 -67 -91 82 -65 93 225 callgsubr
            25 19 vvcurveto
            -2 -14 -13 -1 -11 hhcurveto
            -65 -47 33 53 43 22 25 37 35 33 -26 return
          </CharString>
          <CharString index="250">
            49 110 43 40 43 103 55 -51 49 101 50 hstemhm
            46 40 return
          </CharString>
          <CharString index="251">
            -88 callgsubr
            18 -42 return
          </CharString>
          <CharString index="252">
            -6 15 16 -3 17 hhcurveto
            7 13 6 28 21 vvcurveto
            return
          </CharString>
          <CharString index="253">
            vhcurveto
            67 callsubr
            return
          </CharString>
          <CharString index="254">
            9 0 8 0 9 return
          </CharString>
          <CharString index="255">
            vvcurveto
            113 29 46 47 35 23 -28 -43 -28 -5 -20 -5 -12 240 callsubr
            68 -37 55 -67 -83 -56 -62 -160 vhcurveto
            return
          </CharString>
          <CharString index="256">
            66 callgsubr
            -83 -51 -89 -77 -79 -104 rrcurveto
            22 92 11 114 93 return
          </CharString>
          <CharString index="257">
            hvcurveto
            213 callsubr
            return
          </CharString>
          <CharString index="258">
            rmoveto
            11 157 9 189 1 198 return
          </CharString>
          <CharString index="259">
            61 56 99 54 69 28 rrcurveto
            -6 -68 -4 return
          </CharString>
          <CharString index="260">
            97 -52 67 -48 58 -111 rrcurveto
            return
          </CharString>
          <CharString index="261">
            -2 -21 166 callsubr
            return
          </CharString>
          <CharString index="262">
            191 38 rmoveto
            132 callgsubr
            38 -8 35 -16 35 vhcurveto
            65 -94 51 370 callgsubr
            return
          </CharString>
          <CharString index="263">
            rmoveto
            35 2 39 2 38 vhcurveto
            34 -3 33 -3 33 -1 6 12 3 14 1 14 rrcurveto
            return
          </CharString>
          <CharString index="264">
            -135 -118 -79 -91 -31 vhcurveto
            -1 -12 -1 -11 -11 vvcurveto
            -119 57 -84 117 return
          </CharString>
          <CharString index="265">
            rrcurveto
            -60 callgsubr
            86 -12 -44 74 -88 hhcurveto
            return
          </CharString>
          <CharString index="266">
            53 -15 35 -16 19 -17 rrcurveto
            -23 -57 -14 -99 -102 vvcurveto
            274 callgsubr
            return
          </CharString>
          <CharString index="267">
            42 17 rrcurveto
            -7 -38 -97 callsubr
            -51 return
          </CharString>
          <CharString index="268">
            118 callsubr
            -65 74 179 callsubr
            -59 26 -61 21 50 28 70 25 54 14 rrcurveto
            -9 -46 -7 -50 -39 vvcurveto
            endchar
          </CharString>
          <CharString index="269">
            248 callgsubr
            0 9 0 8 -2 -32 callgsubr
            return
          </CharString>
          <CharString index="270">
            -36 24 callgsubr
            return
          </CharString>
          <CharString index="271">
            rmoveto
            7 17 7 15 1 19 -127 -5 -83 8 -92 14 return
          </CharString>
          <CharString index="272">
            -3 -13 -2 -12 -17 vvcurveto
            return
          </CharString>
          <CharString index="273">
            85 callgsubr
            2 -62 3 -46 4 -36 rrcurveto
            31 -25 -30 15 -44 hhcurveto
            return
          </CharString>
          <CharString index="274">
            63 78 41 54 hhcurveto
            57 15 -46 -46 23 hvcurveto
            return
          </CharString>
          <CharString index="275">
            hhcurveto
            -30 -27 -21 -41 -10 hvcurveto
            return
          </CharString>
          <CharString index="276">
            10 0 7 0 return
          </CharString>
          <CharString index="277">
            268 callsubr
            32 hvcurveto
            -42 -53 -70 -67 -62 -51 248 callgsubr
            8 vvcurveto
            return
          </CharString>
          <CharString index="278">
            -68 -48 -49 -72 -81 59 -54 83 281 callgsubr
            -60 -33 30 49 46 29 26 46 return
          </CharString>
          <CharString index="279">
            -55 -52 -27 -43 hhcurveto
            -29 -22 20 47 29 11 32 12 22 hvcurveto
            -10 9 -12 6 -18 1 rrcurveto
            -15 -31 -15 -35 -37 vvcurveto
            -64 33 -48 59 vhcurveto
            return
          </CharString>
          <CharString index="280">
            hhcurveto
            184 callgsubr
            -46 return
          </CharString>
          <CharString index="281">
            rmoveto
            13 17 3 3 10 hvcurveto
            -2 51 -1 38 74 vvcurveto
            return
          </CharString>
          <CharString index="282">
            84 -18 78 -28 47 -69 118 callsubr
            return
          </CharString>
          <CharString index="283">
            39 42 -26 hvcurveto
            -11 -5 -16 -11 -10 -13 rrcurveto
            -58 33 return
          </CharString>
          <CharString index="284">
            92 callgsubr
            55 return
          </CharString>
          <CharString index="285">
            hstemhm
            220 46 175 43 3 46 return
          </CharString>
          <CharString index="286">
            rmoveto
            -8 0 -8 -7 vvcurveto
            -38 44 return
          </CharString>
          <CharString index="287">
            11 35 36 vvcurveto
            68 -53 37 -60 return
          </CharString>
          <CharString index="288">
            91 callgsubr
            -26 -68 -141 -84 -82 -38 -27 18 40 24 return
          </CharString>
          <CharString index="289">
            49 -42 32 -60 -38 -34 279 callgsubr
            31 29 44 hhcurveto
            30 20 -13 -25 return
          </CharString>
          <CharString index="290">
            190 callsubr
            vhcurveto
            return
          </CharString>
          <CharString index="291">
            282 196 callgsubr
            return
          </CharString>
          <CharString index="292">
            -8 45 -3 49 2 rrcurveto
            1 7 1 2 8 vvcurveto
            1 11 -3 16 -1 11 -60 -6 -50 -2 -65 1 5 84 2 45 1 50 rrcurveto
            return
          </CharString>
          <CharString index="293">
            39 46 11 39 hhcurveto
            56 14 -50 -29 25 hvcurveto
            endchar
          </CharString>
          <CharString index="294">
            rcurveline
            2 -20 7 -18 24 -18 return
          </CharString>
          <CharString index="295">
            -7 0 -9 0 -8 return
          </CharString>
          <CharString index="296">
            737 203 callgsubr
            return
          </CharString>
          <CharString index="297">
            238 callsubr
            -95 -132 -126 -114 return
          </CharString>
          <CharString index="298">
            138 30 198 167 44 -4 44 -6 29 return
          </CharString>
          <CharString index="299">
            -43 -142 313 callgsubr
            return
          </CharString>
          <CharString index="300">
            18 4 16 6 16 8 return
          </CharString>
          <CharString index="301">
            -2 -5 -1 -9 0 -9 0 -7 1 -9 -7 flex1
            59 -15 39 -23 2 -39 187 callgsubr
            return
          </CharString>
          <CharString index="302">
            7 -51 19 -19 -39 vvcurveto
            -46 -36 -18 -77 -46 278 callsubr
            return
          </CharString>
          <CharString index="303">
            226 callgsubr
            -68 -121 7 hvcurveto
            return
          </CharString>
          <CharString index="304">
            70 203 callgsubr
            return
          </CharString>
          <CharString index="305">
            -2 -21 44 callsubr
            return
          </CharString>
          <CharString index="306">
            -41 141 -5 218 119 207 callsubr
            return
          </CharString>
          <CharString index="307">
            -5 3 11 3 23 -6 12 rrcurveto
            17 -59 -77 14 -97 hhcurveto
            hintmask 11110110
            -97 -91 -14 -17 -72 hvcurveto
            -7 -11 2 -21 5 -14 return
          </CharString>
          <CharString index="308">
            92 6 45 -47 -76 vvcurveto
            -56 -26 -31 -42 -40 -35 35 82 vhcurveto
            -18 -1 -16 -2 -15 -6 rrcurveto
            -98 5 55 -45 63 hhcurveto
            return
          </CharString>
          <CharString index="309">
            571 rmoveto
            -104 callsubr
            return
          </CharString>
          <CharString index="310">
            574 rmoveto
            17 -1 16 1 19 4 -3 59 6 53 20 67 -12 6 -12 3 -16 1 -30 -73 -10 -65 5 -55 rrcurveto
            return
          </CharString>
          <CharString index="311">
            -9 109 -2 87 1 85 96 18 101 12 122 1 3 15 1 15 -1 17 100 callsubr
            return
          </CharString>
          <CharString index="312">
            -58 1 -43 2 -32 vhcurveto
            -57 114 -81 67 -84 37 240 callgsubr
            endchar
          </CharString>
          <CharString index="313">
            rmoveto
            1 19 -5 19 -11 15 rrcurveto
            return
          </CharString>
          <CharString index="314">
            vvcurveto
            142 3 44 9 81 vhcurveto
            return
          </CharString>
          <CharString index="315">
            vvcurveto
            49 -23 36 -38 25 vhcurveto
            71 -5 68 -9 44 -9 -66 callgsubr
            return
          </CharString>
          <CharString index="316">
            70 16 104 16 144 5 -3 -33 -3 -32 -2 -32 -88 -34 -118 -90 -54 -53 88 callsubr
            return
          </CharString>
          <CharString index="317">
            -35 6 -3 rcurveline
            -130 -137 3 -19 8 -18 25 -18 rlinecurve
            return
          </CharString>
          <CharString index="318">
            -69 51 -46 71 135 callsubr
            return
          </CharString>
          <CharString index="319">
            rmoveto
            -22 -12 11 22 73 4 81 6 return
          </CharString>
          <CharString index="320">
            -3 -101 callsubr
            return
          </CharString>
          <CharString index="321">
            106 6 82 51 106 vvcurveto
            92 return
          </CharString>
          <CharString index="322">
            -13 -13 -12 -24 -4 -17 rrcurveto
            return
          </CharString>
          <CharString index="323">
            -98 -10 45 453 45 return
          </CharString>
          <CharString index="324">
            6 -66 callsubr
            return
          </CharString>
          <CharString index="325">
            rmoveto
            66 callgsubr
            return
          </CharString>
          <CharString index="326">
            rmoveto
            -60 102 -81 61 -85 34 15 16 18 16 19 16 65 -17 60 -44 44 -81 1 -43 1 -33 3 -27 rrcurveto
            return
          </CharString>
          <CharString index="327">
            -15 vvcurveto
            -65 -36 -37 310 callgsubr
            -77 51 -135 rrcurveto
            return
          </CharString>
          <CharString index="328">
            rmoveto
            20 19 1 5 15 hvcurveto
            -11 81 -1 134 82 vvcurveto
            return
          </CharString>
          <CharString index="329">
            48 -43 54 hstemhm
            23 47 0 42 87 42 83 37 63 49 return
          </CharString>
          <CharString index="330">
            rrcurveto
            241 callgsubr
            return
          </CharString>
          <CharString index="331">
            222 120 vvcurveto
            return
          </CharString>
          <CharString index="332">
            3 8 2 9 return
          </CharString>
          <CharString index="333">
            323 callsubr
            -42 -25 -31 -43 -16 4 callgsubr
            35 19 28 58 58 vvcurveto
            return
          </CharString>
          <CharString index="334">
            -50 callgsubr
            38 29 -28 -41 vhcurveto
            return
          </CharString>
          <CharString index="335">
            2 -11 -10 0 -10 hhcurveto
            -19 -16 -2 -3 -13 hvcurveto
            -24 2 -15 1 -26 vhcurveto
            23 -3 20 0 27 3 return
          </CharString>
          <CharString index="336">
            352 206 callsubr
            return
          </CharString>
          <CharString index="337">
            86 78 55 rrcurveto
            -15 -61 -10 -74 -79 vvcurveto
            return
          </CharString>
          <CharString index="338">
            62 29 -47 -57 13 hvcurveto
            return
          </CharString>
          <CharString index="339">
            16 -113 hhcurveto
            -114 return
          </CharString>
          <CharString index="340">
            13 58 91 13 75 hhcurveto
            return
          </CharString>
          <CharString index="341">
            62 -20 47 658 48 return
          </CharString>
          <CharString index="342">
            2 6 15 hvcurveto
            return
          </CharString>
          <CharString index="343">
            8 65 7 70 4 78 rrcurveto
            -49 36 61 -42 64 hhcurveto
            64 178 callgsubr
            return
          </CharString>
          <CharString index="344">
            rmoveto
            10 16 7 24 19 vvcurveto
            -2 -14 -12 -1 -11 hhcurveto
            -67 -50 32 56 48 22 31 35 29 25 return
          </CharString>
          <CharString index="345">
            180 callsubr
            -55 -53 -30 -42 -35 vhcurveto
            12 0 12 12 vvcurveto
            86 -56 57 -64 return
          </CharString>
          <CharString index="346">
            64 47 -7 44 81 39 24 49 48 37 99 50 hstemhm
            return
          </CharString>
          <CharString index="347">
            vhcurveto
            145 callsubr
            return
          </CharString>
          <CharString index="348">
            10 callgsubr
            14 return
          </CharString>
          <CharString index="349">
            133 callgsubr
            -69 12 return
          </CharString>
          <CharString index="350">
            -32 273 callgsubr
            return
          </CharString>
          <CharString index="351">
            137 callsubr
            -14 72 return
          </CharString>
          <CharString index="352">
            vhcurveto
            -14 -6 -15 -7 -12 -9 rrcurveto
            return
          </CharString>
          <CharString index="353">
            1 147 callsubr
            -1 return
          </CharString>
          <CharString index="354">
            278 callgsubr
            2 return
          </CharString>
          <CharString index="355">
            57 69 37 48 hhcurveto
            return
          </CharString>
          <CharString index="356">
            149 -3 54 205 49 101 50 113 50 hstem
            180 46 205 43 69 51 vstem
            return
          </CharString>
          <CharString index="357">
            29 40 hhcurveto
            24 20 -11 -16 15 hvcurveto
            10 10 7 16 2 18 rrcurveto
            15 -19 -26 11 -32 hhcurveto
            return
          </CharString>
          <CharString index="358">
            -3 -39 -38 vvcurveto
            return
          </CharString>
          <CharString index="359">
            rmoveto
            -26 -15 12 17 18 17 17 29 23 23 -10 -17 17 hvcurveto
            -24 -22 -20 -13 -26 hhcurveto
            return
          </CharString>
          <CharString index="360">
            vvcurveto
            158 callgsubr
            return
          </CharString>
          <CharString index="361">
            214 callsubr
            -61 74 -66 40 vhcurveto
            return
          </CharString>
          <CharString index="362">
            23 16 19 29 23 24 -12 -19 21 return
          </CharString>
          <CharString index="363">
            50 hstemhm
            28 46 73 52 214 45 return
          </CharString>
          <CharString index="364">
            34 135 43 -37 43 return
          </CharString>
          <CharString index="365">
            vvcurveto
            -159 14 -94 14 return
          </CharString>
          <CharString index="366">
            vvcurveto
            69 callgsubr
            return
          </CharString>
          <CharString index="367">
            14 -19 -26 7 -27 52 callsubr
            return
          </CharString>
          <CharString index="368">
            6 callgsubr
            -20 65 -20 151 156 vvcurveto
            72 3 61 7 56 vhcurveto
            return
          </CharString>
          <CharString index="369">
            vhcurveto
            40 callsubr
            return
          </CharString>
          <CharString index="370">
            -66 callgsubr
            16 -58 -94 19 -98 hhcurveto
            return
          </CharString>
          <CharString index="371">
            rmoveto
            -23 -19 -18 -23 -27 19 -23 28 25 17 17 23 28 -20 23 -27 hvcurveto
            endchar
          </CharString>
          <CharString index="372">
            -68 -48 -45 -66 return
          </CharString>
          <CharString index="373">
            1 -24 0 -15 2 -23 18 -2 15 0 21 2 1 20 0 21 -1 22 rrcurveto
            return
          </CharString>
          <CharString index="374">
            -1 24 0 15 -2 23 -18 2 -15 0 -21 -2 -1 -20 0 -21 1 -22 rrcurveto
            return
          </CharString>
          <CharString index="375">
            344 rmoveto
            48 -66 40 -59 25 vhcurveto
            64 50 52 40 64 hhcurveto
            50 46 -25 -46 return
          </CharString>
          <CharString index="376">
            144 callgsubr
            36 1 26 vhcurveto
            return
          </CharString>
          <CharString index="377" raw="1">
            6dfb0e1f 88390a0b  
          </CharString>
          <CharString index="378">
            -125 4 -55 3 -37 vhcurveto
            endchar
          </CharString>
          <CharString index="379">
            -31 vvcurveto
            -115 -42 -57 -80 return
          </CharString>
          <CharString index="380">
            -120 -60 -98 -108 vhcurveto
            return
          </CharString>
          <CharString index="381">
            vvcurveto
            3 29 30 1 30 hhcurveto
            return
          </CharString>
          <CharString index="382">
            561 50 hstemhm
            317 47 return
          </CharString>
          <CharString index="383">
            -91 49 108 43 return
          </CharString>
          <CharString index="384">
            46 -23 46 hstemhm
            return
          </CharString>
          <CharString index="385">
            vhcurveto
            -77 -46 rlineto
            -20 10 -22 16 -12 vhcurveto
            96 -23 58 -74 52 -132 rrcurveto
            return
          </CharString>
          <CharString index="386">
            34 53 -12 53 153 50 254 42 hstemhm
            25 49 82 56 244 47 return
          </CharString>
          <CharString index="387">
            rmoveto
            26 -14 15 -24 -24 -17 -16 -24 -23 17 -18 24 22 16 17 23 vhcurveto
            return
          </CharString>
          <CharString index="388">
            62 29 -48 -57 13 hvcurveto
            7 -40 -49 5 -54 318 callgsubr
            return
          </CharString>
          <CharString index="389">
            -6 -14 hvcurveto
            17 -15 -22 10 -21 hhcurveto
            -40 -25 -30 -35 -42 27 -28 35 hvcurveto
            return
          </CharString>
          <CharString index="390">
            rmoveto
            188 callgsubr
            return
          </CharString>
          <CharString index="391">
            10 rrcurveto
            3 12 2 14 14 vvcurveto
            return
          </CharString>
          <CharString index="392">
            713 47 hstemhm
            38 58 -15 60 return
          </CharString>
          <CharString index="393">
            47 109 40 55 50 return
          </CharString>
          <CharString index="394">
            -94 29 65 -46 70 hhcurveto
            return
          </CharString>
          <CharString index="395">
            43 40 -3 -4 35 hvcurveto
            return
          </CharString>
          <CharString index="396">
            42 269 49 -22 50 89 48 56 50 58 277 callsubr
            35 41 return
          </CharString>
          <CharString index="397">
            25 -15 15 -24 -24 -16 -16 -24 -24 16 -17 24 24 15 16 25 vhcurveto
            return
          </CharString>
          <CharString index="398">
            331 -113 rmoveto
            37 100 18 235 140 vvcurveto
            61 -6 84 -10 return
          </CharString>
          <CharString index="399">
            247 callgsubr
            152 callgsubr
            return
          </CharString>
          <CharString index="400">
            41 callsubr
            -24 -12 15 24 return
          </CharString>
          <CharString index="401">
            102 callgsubr
            hstem
            31 55 221 55 vstem
            return
          </CharString>
          <CharString index="402">
            -99 -247 45 206 47 416 46 return
          </CharString>
          <CharString index="403">
            -58 -72 50 hstem
            73 60.5 return
          </CharString>
          <CharString index="404">
            hhcurveto
            16 16 0 -1 return
          </CharString>
          <CharString index="405">
            -2 -38 -1 -39 -36 return
          </CharString>
          <CharString index="406">
            144 129 rcurveline
            return
          </CharString>
          <CharString index="407">
            6 -35 47 634 47 hstemhm
            48 60 303 59 -48 50 hintmask 11101000
            return
          </CharString>
          <CharString index="408">
            -105 callsubr
            -36 -9 return
          </CharString>
          <CharString index="409">
            368 callsubr
            147 169 vvcurveto
            return
          </CharString>
          <CharString index="410">
            331 -42 174 callsubr
            return
          </CharString>
          <CharString index="411">
            -72 8 -72 17 -62 vhcurveto
            endchar
          </CharString>
          <CharString index="412">
            75 23 -48 -53 26 hvcurveto
            endchar
          </CharString>
          <CharString index="413">
            47 148 40 return
          </CharString>
          <CharString index="414">
            50 hstemhm
            0 426 -359 47 225 51 hintmask 11011000
            390 return
          </CharString>
          <CharString index="415">
            -13 -106 -7 -126 -126 vvcurveto
            -153 13 -93 14 -66 vhcurveto
            return
          </CharString>
          <CharString index="416">
            -4 -49 -3 -86 -48 vvcurveto
            -198 0 -118 23 -289 vhcurveto
            return
          </CharString>
          <CharString index="417">
            hhcurveto
            128 62 -58 -98 -122 -120 -83 -194 -52 hvcurveto
            return
          </CharString>
          <CharString index="418">
            417 -17 rmoveto
            118 62 83 96 59 -23 50 -31 41 hvcurveto
            return
          </CharString>
          <CharString index="419">
            49 hstemhm
            -2 46 -12 51 246 47 return
          </CharString>
          <CharString index="420">
            277 rmoveto
            72 378 callsubr
            return
          </CharString>
          <CharString index="421">
            rmoveto
            -34 -22 20 29 31 23 19 33 return
          </CharString>
          <CharString index="422">
            hhcurveto
            -53 -44 -36 -65 -61 44 -33 58 return
          </CharString>
          <CharString index="423">
            rrcurveto
            26 -24 -29 13 -40 hhcurveto
            return
          </CharString>
          <CharString index="424">
            379 callsubr
            116 50 return
          </CharString>
          <CharString index="425">
            15 56 108 13 94 hhcurveto
            return
          </CharString>
          <CharString index="426">
            vhcurveto
            100 323 callsubr
            return
          </CharString>
          <CharString index="427">
            hhcurveto
            -29 -27 -21 -40 -11 hvcurveto
            return
          </CharString>
          <CharString index="428">
            13 -2 23 -2 14 vhcurveto
            return
          </CharString>
          <CharString index="429">
            1 5 0 5 7 vvcurveto
            return
          </CharString>
          <CharString index="430">
            -20 83 -47 -74 vvcurveto
            return
          </CharString>
          <CharString index="431">
            -32 -22 -30 -49 vhcurveto
            return
          </CharString>
          <CharString index="432">
            -38 46 190 51 return
          </CharString>
          <CharString index="433">
            -8 -8 flex1
            return
          </CharString>
          <CharString index="434">
            46 -33 46 184 50 -48 52 hstemhm
            150 53 210 return
          </CharString>
          <CharString index="435">
            114 123 rcurveline
            104 -52 rlineto
            -1 -41 -1 -41 -42 vvcurveto
            return
          </CharString>
          <CharString index="436">
            hvcurveto
            79 callsubr
            return
          </CharString>
          <CharString index="437">
            17 -21 -30 11 -30 hhcurveto
            -51 -32 -31 -35 -39 39 -26 46 return
          </CharString>
          <CharString index="438">
            42 113 40 109 46 -41 43 125 30 -23 35 return
          </CharString>
          <CharString index="439">
            118 callsubr
            endchar
          </CharString>
          <CharString index="440">
            103 69 51 97 return
          </CharString>
          <CharString index="441">
            -113 -46 -96 -52 -60 -48 71 callsubr
            return
          </CharString>
          <CharString index="442">
            hhcurveto
            113 102 142 203 121 -50 77 -74 return
          </CharString>
          <CharString index="443">
            -1 40 -2 40 -5 39 -13 3 -14 0 -13 -3 rrcurveto
            return
          </CharString>
          <CharString index="444">
            67 557 59 hstem
            115 47 137 48 47 46 return
          </CharString>
          <CharString index="445">
            -168 -76 -60 -70 -8 hvcurveto
            -1 return
          </CharString>
          <CharString index="446">
            371 callsubr
            -56 return
          </CharString>
          <CharString index="447">
            vhcurveto
            -18 -8 -15 -13 -14 -16 rrcurveto
            return
          </CharString>
          <CharString index="448">
            83 rlinecurve
            -12 -1 -17 -7 -14 -10 return
          </CharString>
          <CharString index="449">
            -72 275 callsubr
            return
          </CharString>
          <CharString index="450">
            vhcurveto
            -10 12 -12 8 return
          </CharString>
          <CharString index="451">
            vvcurveto
            -44 30 -30 47 return
          </CharString>
          <CharString index="452">
            -85 55 -58 64 return
          </CharString>
          <CharString index="453">
            vvcurveto
            86 -56 57 -64 -95 -132 -126 -114 return
          </CharString>
          <CharString index="454">
            -71 35 61 50 99 60 58 25 -6 -126 -15 return
          </CharString>
          <CharString index="455">
            15 68 85 16 96 hhcurveto
            27 26 -1 -2 25 hvcurveto
            return
          </CharString>
          <CharString index="456">
            -1 9 8 -1 9 hhcurveto
            10 10 1 2 11 hvcurveto
            return
          </CharString>
          <CharString index="457">
            -197 532 48 hstem
            42 53 168 43 vstem
            return
          </CharString>
          <CharString index="458">
            214 callgsubr
            hhcurveto
            endchar
          </CharString>
          <CharString index="459">
            43 217 48 -43 54 return
          </CharString>
          <CharString index="460">
            -33 -22 -23 -17 -27 hhcurveto
            return
          </CharString>
          <CharString index="461">
            115 36 182 48 return
          </CharString>
          <CharString index="462">
            41 63 50 hstemhm
            70 45 return
          </CharString>
          <CharString index="463">
            1 rrcurveto
            -18 -34 -17 -46 return
          </CharString>
          <CharString index="464">
            49 83 62 51 24 rrcurveto
            return
          </CharString>
          <CharString index="465">
            -8 63 -3 87 50 vvcurveto
            return
          </CharString>
          <CharString index="466">
            -4 -6 -4 -5 return
          </CharString>
          <CharString index="467">
            8 43 49 5 30 hhcurveto
            53 13 -16 -18 hvcurveto
            return
          </CharString>
          <CharString index="468">
            hstemhm
            36 47 189 50 115 49 61 47 return
          </CharString>
          <CharString index="469">
            -89 41 213 callgsubr
            return
          </CharString>
          <CharString index="470">
            -51 -44 -32 -56 -29 hvcurveto
            9 0 10 9 vvcurveto
            return
          </CharString>
          <CharString index="471">
            rmoveto
            69 53 53 82 72 -45 47 -83 15 hvcurveto
            return
          </CharString>
          <CharString index="472">
            -43 104 -39 77 -59 83 -35 3 rcurveline
            -57 -74 return
          </CharString>
          <CharString index="473">
            228 -165 52 -15 51 83 47 1 48 return
          </CharString>
          <CharString index="474">
            5 -31 3 -35 272 callsubr
            return
          </CharString>
          <CharString index="475">
            70 callgsubr
            14 118 10 return
          </CharString>
          <CharString index="476">
            -24 97 rmoveto
            -15 -10 10 16 14 13 12 16 return
          </CharString>
          <CharString index="477">
            -180 58 95 -192 200 hhcurveto
            endchar
          </CharString>
          <CharString index="478">
            299 callsubr
            -40 33 return
          </CharString>
          <CharString index="479">
            -173 11 45 435 40 return
          </CharString>
          <CharString index="480">
            -57 54 140 47 84 41 return
          </CharString>
          <CharString index="481">
            vvcurveto
            -45 0 -40 1 -35 vhcurveto
            return
          </CharString>
          <CharString index="482">
            48 -29 42 106 35 23 49 return
          </CharString>
          <CharString index="483">
            vhcurveto
            27 -5 26 -5 return
          </CharString>
          <CharString index="484">
            -166 49 -38 49 return
          </CharString>
          <CharString index="485">
            3 62 6 55 vhcurveto
            return
          </CharString>
          <CharString index="486">
            49 191 47 return
          </CharString>
          <CharString index="487">
            flex1
            87 -12 -44 75 -84 hhcurveto
            hintmask 11110101
            return
          </CharString>
          <CharString index="488">
            -54 332 37 193 50 hstem
            49 49 return
          </CharString>
          <CharString index="489">
            19 -427 rmoveto
            137 callsubr
            return
          </CharString>
          <CharString index="490">
            49 33 41 22 39 hhcurveto
            35 19 -17 -29 return
          </CharString>
          <CharString index="491">
            31 -30 -33 18 -38 hhcurveto
            -57 -41 -41 -59 return
          </CharString>
          <CharString index="492">
            vvcurveto
            64 -113 rmoveto
            -10 48 -4 63 62 return
          </CharString>
          <CharString index="493">
            14 23 8 28 29 vvcurveto
            57 -44 32 -49 return
          </CharString>
          <CharString index="494">
            9 -80 49 hstem
            58 61 295 60 vstem
            return
          </CharString>
          <CharString index="495">
            45 hstemhm
            -5 51 49 58 8 52 74 51 return
          </CharString>
          <CharString index="496">
            vhcurveto
            188 callgsubr
            endchar
          </CharString>
          <CharString index="497">
            49 286 41 return
          </CharString>
          <CharString index="498">
            29 112 44 return
          </CharString>
        <CharString name=".notdef">
          -529 endchar
        </CharString>
        <CharString name=".null">
          -529 endchar
        </CharString>
        <CharString name="A">
          379 callgsubr
          hstem
          25 557 vstem
          526 -103 -103 callgsubr
        </CharString>
        <CharString name="AE">
          275 -45 45 208 45 110 45 276 47 hstem
          358 69 vstem
          425 -45 -92 callsubr
          -156 -4 -97 -16 -123 -21 -12 3 -15 3 -21 2 -71 -276 -70 -182 -147 -235 12 -12 13 -11 27 -7 rrcurveto
          44 76 37 69 32 69 58 10 69 7 73 2 9 -82 11 -86 13 -85 rrcurveto
          -211 280 rmoveto
          57 128 43 128 44 163 3 -111 10 -140 16 -150 -59 -3 -60 -6 -54 -9 rrcurveto
          endchar
        </CharString>
        <CharString name="Aacute">
          379 callgsubr
          467 178 hstem
          333 62 vstem
          333 747 rmoveto
          -104 callsubr
          193 -850 -103 callgsubr
        </CharString>
        <CharString name="Abreve">
          379 callgsubr
          479 44 hstem
          205 50 112 45 vstem
          205 867 -30 callgsubr
          321 -970 -103 callgsubr
        </CharString>
        <CharString name="Acircumflex">
          379 callgsubr
          hstem
          25 557 vstem
          408 742 -100 callgsubr
          118 -845 -103 callgsubr
        </CharString>
        <CharString name="Adieresis">
          379 callgsubr
          469 118 hstem
          25 557 vstem
          414 857 -107 callsubr
          216 -960 -103 callgsubr
        </CharString>
        <CharString name="Agrave">
          379 callgsubr
          468 178 hstem
          226 62 vstem
          329 755 -68 callgsubr
          197 -858 -103 callgsubr
        </CharString>
        <CharString name="Amacron">
          379 callgsubr
          476 51 hstem
          218 184 vstem
          215 768 -69 callsubr
          311 -871 -103 callgsubr
        </CharString>
        <CharString name="Aogonek">
          76 -289 48 474 47 hstem
          460 55 vstem
          537 -289 rmoveto
          45 28 21 36 23 hvcurveto
          293 callsubr
          36 17 34 50 47 hvcurveto
          -51 351 -65 187 -123 245 -20 4 -17 1 -26 2 -58 -266 -57 -185 -140 -246 13 -11 13 -11 26 -6 44 85 36 76 30 74 79 13 97 7 99 -2 23 -93 21 -107 19 -132 rrcurveto
          -43 -36 -22 -38 -42 344 callsubr
          vhcurveto
          -332 550 rmoveto
          46 120 32 116 31 139 58 -116 42 -106 37 -134 -81 -1 -87 -6 -78 -12 rrcurveto
          endchar
        </CharString>
        <CharString name="Aring">
          379 callgsubr
          463 35 120 32 hstem
          227 49 89 51 vstem
          330 930 -28 callsubr
          201 -1001 -103 callgsubr
        </CharString>
        <CharString name="Atilde">
          379 callgsubr
          468 47 -13 47 hstemhm
          203 42 130 42 hintmask 11011000
          352 795 rmoveto
          hintmask 10111000
          -17 callsubr
          hintmask 11011000
          -17 callgsubr
          174 -898 -103 callgsubr
        </CharString>
        <CharString name="B">
          33 -20 45 357 35 279 44 hstemhm
          72 63 274 60 -10 60 hintmask 11110100
          209 -20 rmoveto
          177 133 128 150 89 -58 56 -113 14 hvcurveto
          hintmask 11111000
          102 46 19 65 49 vvcurveto
          100 -82 63 -147 -58 -58 -11 -24 -53 vhcurveto
          -70 1 -49 -48 vvcurveto
          -167 3 -115 9 -244 vhcurveto
          hintmask 11110100
          -18 27 49 -14 49 hhcurveto
          38 716 rmoveto
          hintmask 11111000
          111 51 -51 -73 -92 -67 -59 -215 -18 hvcurveto
          -1 81 1 92 8 104 rrcurveto
          hintmask 11110100
          10 33 38 6 41 hhcurveto
          -29 -671 rmoveto
          -29 -29 6 11 -25 hvcurveto
          -5 66 -2 61 96 vvcurveto
          27 0 29 -1 32 vhcurveto
          13 37 72 16 58 hhcurveto
          124 41 -56 -83 -114 -105 -104 -136 hvcurveto
          endchar
        </CharString>
        <CharString name="C">
          300 callsubr
          472 210 48 callsubr
        </CharString>
        <CharString name="CR">
          -529 endchar
        </CharString>
        <CharString name="Cacute">
          6 -35 47 634 47 59 178 hstemhm
          48 60 220 62 21 59 -48 50 hintmask 11111010
          328 752 rmoveto
          -104 callsubr
          144 -542 rmoveto
          65 callgsubr
          hintmask 11111100
          42 callsubr
          -207 82 -113 140 hvcurveto
          hintmask 11111010
          125 69 85 160 8 hvcurveto
          endchar
        </CharString>
        <CharString name="Ccaron">
          300 callsubr
          307 735 -102 callgsubr
          165 -525 48 callsubr
        </CharString>
        <CharString name="Ccedilla">
          6 -250 43 90 37 48 44 634 47 hstemhm
          48 60 204 53 46 59 -48 50 hintmask 11111101
          262 -250 rmoveto
          162 callgsubr
          9 17 5 15 3 15 118 5 65 85 8 155 rrcurveto
          65 callgsubr
          hintmask 11111110
          42 callsubr
          -188 67 -110 117 -19 hvcurveto
          -5 -24 -10 -22 -15 -22 -41 callgsubr
          hintmask 11111101
          208 callgsubr
        </CharString>
        <CharString name="D">
          366 callgsubr
          131 -12 39 callgsubr
        </CharString>
        <CharString name="Dcaron">
          366 callgsubr
          256 760 -102 callgsubr
          -125 -772 39 callgsubr
        </CharString>
        <CharString name="Dcroat">
          -37 callgsubr
        </CharString>
        <CharString name="E">
          125 callsubr
          hstem
          58 70 vstem
          126 -41 -95 callgsubr
        </CharString>
        <CharString name="Eacute">
          125 callsubr
          26 178 hstemhm
          58 70 110 62 vstemhm
          238 761 rmoveto
          -104 callsubr
          -112 -802 -94 callgsubr
          hintmask 10101000
          93 callsubr
          hintmask 11111100
          3 -183 24 -276 41 -275 rrcurveto
          endchar
        </CharString>
        <CharString name="Ecaron">
          125 callsubr
          hstem
          58 70 vstem
          249 778 rmoveto
          7 12 1 2 7 hvcurveto
          22 50 21 28 57 52 -9 8 -10 7 -15 8 -44 -31 -26 -25 -21 -31 -22 32 -25 23 -45 31 -15 -7 -8 -6 -10 -10 50 -47 27 -30 24 -53 rrcurveto
          -1 5 12 -1 6 hhcurveto
          -123 -819 -95 callgsubr
        </CharString>
        <CharString name="Ecircumflex">
          125 callsubr
          hstem
          58 70 vstem
          342 768 -100 callgsubr
          -216 -809 -95 callgsubr
        </CharString>
        <CharString name="Edieresis">
          125 callsubr
          37 118 hstem
          58 70 vstem
          349 880 -107 callsubr
          -119 -921 -95 callgsubr
        </CharString>
        <CharString name="Edotaccent">
          125 callsubr
          43 118 hstem
          58 70 vstem
          310 886 -103 callsubr
          -184 -927 -95 callgsubr
        </CharString>
        <CharString name="Egrave">
          125 callsubr
          23 178 hstemhm
          58 70 53 62 vstemhm
          284 765 -68 callgsubr
          -158 -806 -94 callgsubr
          hintmask 10101000
          93 callsubr
          hintmask 11111100
          3 -183 24 -276 41 -275 rrcurveto
          endchar
        </CharString>
        <CharString name="Emacron">
          125 callsubr
          47 51 hstemhm
          58 70 24 184 hintmask 10111100
          149 794 -69 callsubr
          hintmask 11111000
          -23 -835 -95 callgsubr
        </CharString>
        <CharString name="Eogonek">
          -24 -218 48 129 45 363 45 276 47 hstem
          58 70 213 55 vstem
          418 -218 rmoveto
          45 28 21 36 23 hvcurveto
          293 callsubr
          36 17 34 50 47 hvcurveto
          2 12 0 21 -4 17 -96 -21 -78 -7 -114 -4 -20 127 -13 117 -8 85 86 16 59 9 117 9 1 17 -2 15 -3 13 -100 -9 -74 -13 -88 -14 -9 109 -2 87 1 85 rrcurveto
          96 18 101 12 122 1 3 15 1 15 -1 17 100 callsubr
          3 -183 24 -276 41 -275 92 3 83 4 115 14 rrcurveto
          -50 -39 -25 -40 -45 344 callsubr
          vhcurveto
          endchar
        </CharString>
        <CharString name="Eth">
          -37 callgsubr
        </CharString>
        <CharString name="Euro">
          -32 -40 44 197 41 89 41 252 44 hstemhm
          106 55 248 53 -49 46 hintmask 11111010
          283 -40 rmoveto
          hintmask 11111100
          118 51 89 154 10 hvcurveto
          -19 7 -15 1 -19 -1 rrcurveto
          -122 4 -41 -84 -78 hhcurveto
          -74 -43 69 130 -13 hvcurveto
          50 3 51 7 64 284 callsubr
          -70 -10 -52 -6 -51 -3 rrcurveto
          -1 15 0 16 0 16 0 15 0 14 13 flex1
          52 3 51 7 65 284 callsubr
          -68 -10 -52 -6 -50 -3 rrcurveto
          hintmask 11111010
          169 18 73 81 70 hhcurveto
          71 28 -57 -137 -14 hvcurveto
          18 1 17 3 14 6 rrcurveto
          160 12 -43 68 -94 hhcurveto
          -119 -84 -114 -182 -21 hvcurveto
          -29 -29 1 2 -34 244 callgsubr
          -2 33 29 0 28 hhcurveto
          -1 -16 0 -17 0 -17 0 -13 0 -13 -13 flex1
          -28 -28 1 2 -32 244 callgsubr
          -2 34 30 0 29 hhcurveto
          -156 16 64 -85 94 hhcurveto
          endchar
        </CharString>
        <CharString name="F">
          -32 400 46 234 43 hstem
          103 53 vstem
          156 -74 rmoveto
          2 119 -2 84 -5 196 rrcurveto
          16 -1 16 17 vvcurveto
          73 11 83 10 81 5 rrcurveto
          18 -2 14 -3 14 vhcurveto
          -81 -6 -76 -8 -78 -14 -4 87 -9 88 -12 87 113 8 88 13 124 22 1 10 0 8 -2 10 -1 7 -3 9 -3 7 -126 -25 -90 -13 -165 -13 40 -253 11 -247 -6 -300 rrcurveto
          12 -1 24 1 17 3 rrcurveto
          endchar
        </CharString>
        <CharString name="G">
          27 -21 48 650 47 hstemhm
          48 60 292 67 -64 59 hintmask 11110000
          520 -23 40 callgsubr
          hintmask 11101000
          57 callsubr
          hintmask 11110000
          167 callgsubr
          endchar
        </CharString>
        <CharString name="Gbreve">
          27 -21 48 650 47 42 44 hstemhm
          48 60 66 50 112 45 19 67 -64 59 hintmask 11111100
          174 874 -30 callgsubr
          hintmask 11111110
          346 -897 40 callgsubr
          hintmask 11111101
          57 callsubr
          hintmask 11111110
          167 callgsubr
          endchar
        </CharString>
        <CharString name="H">
          60 352 48 hstem
          68 58 328 56 vstem
          510 -55 rmoveto
          208 -9 340 -12 244 vhcurveto
          4 -7 -9 1 -7 hhcurveto
          -13 -9 -2 -4 -14 hvcurveto
          7 -78 6 -126 4 -132 -113 -1 -103 -7 -105 -18 -1 131 3 126 7 79 rrcurveto
          3 -11 -9 1 -11 hhcurveto
          -15 -12 -2 -3 -9 hvcurveto
          -216 4 -229 14 -256 vhcurveto
          17 -2 20 2 15 4 -6 89 -4 116 -1 116 rrcurveto
          15 105 110 4 106 hhcurveto
          4 -151 2 -152 -96 vvcurveto
          -3 12 25 -5 19 hhcurveto
          endchar
        </CharString>
        <CharString name="I">
          -310 -28 707 hstem
          83 53 vstem
          131 -22 -74 callsubr
        </CharString>
        <CharString name="Iacute">
          -310 -28 944 -179 178 hstemhm
          83 53 -29 62 hintmask 01010000
          107 737 rmoveto
          -104 callsubr
          hintmask 10100000
          24 -759 -74 callsubr
        </CharString>
        <CharString name="Icircumflex">
          -310 -28 910 hstem
          83 53 vstem
          181 727 -100 callgsubr
          -50 -749 -74 callsubr
        </CharString>
        <CharString name="Idieresis">
          -310 753 118 hstem
          83 53 vstem
          199 861 -107 callsubr
          36 -883 -74 callsubr
        </CharString>
        <CharString name="Idotaccent">
          -310 758 118 hstem
          83 53 vstem
          152 866 -103 callsubr
          -21 -888 -74 callsubr
        </CharString>
        <CharString name="Igrave">
          -310 -28 943 -179 178 hstemhm
          7 62 14 53 hintmask 01110000
          110 743 -68 callgsubr
          hintmask 10010000
          21 -765 -74 callsubr
        </CharString>
        <CharString name="Imacron">
          -310 771 51 hstemhm
          5 184 -106 53 hintmask 11000000
          2 783 -69 callsubr
          hintmask 10100000
          129 -805 -74 callsubr
        </CharString>
        <CharString name="Iogonek">
          -310 -226 48 hstemhm
          9 55 19 53 vstemhm
          86 -226 rmoveto
          45 28 21 36 23 hvcurveto
          293 callsubr
          36 17 34 50 47 hvcurveto
          hintmask 10100000
          7 228 -2 126 149 vvcurveto
          71 -1 58 -5 67 vhcurveto
          1 -6 -6 1 -8 hhcurveto
          -15 -13 -3 -6 -13 hvcurveto
          14 -216 4 -237 -4 -245 rrcurveto
          1 hlineto
          hintmask 11100000
          -49 -39 -26 -40 -45 344 callsubr
          vhcurveto
          endchar
        </CharString>
        <CharString name="J">
          -84 -88 47 hstem
          302 60 vstem
          197 -88 rmoveto
          68 44 50 81 25 hvcurveto
          22 74 6 97 108 vvcurveto
          131 -12 143 -14 129 vhcurveto
          -11 -11 -1 -2 -10 hvcurveto
          -13 -2 -12 -4 -9 -5 rrcurveto
          20 -178 12 -141 -160 vvcurveto
          -193 -38 -80 -64 -56 -31 47 177 -21 vhcurveto
          -21 -5 -17 -5 -16 -9 rrcurveto
          -161 17 53 -91 89 hhcurveto
          endchar
        </CharString>
        <CharString name="K">
          18 -78 782 hstem
          68 58 6 callsubr
          endchar
        </CharString>
        <CharString name="L">
          296 callsubr
          vstem
          458 -72 rmoveto
          321 callsubr
          -8 callgsubr
          245 callgsubr
          endchar
        </CharString>
        <CharString name="Lacute">
          -58 -72 50 730 178 hstemhm
          73 60.5 -18.5 62 hintmask 11010000
          115 708 rmoveto
          -104 callsubr
          343 -780 rmoveto
          321 callsubr
          hintmask 10100000
          -8 callgsubr
          rrcurveto
          hintmask 11010000
          245 callgsubr
          endchar
        </CharString>
        <CharString name="Lcaron">
          296 callsubr
          124.5 62 vstem
          262 470 26 callsubr
          196 -542 rmoveto
          321 callsubr
          -8 callgsubr
          245 callgsubr
          endchar
        </CharString>
        <CharString name="Lslash">
          -74 -72 50 hstemhm
          74 51.5 -47.5 50 hintmask 10100000
          109 -97 rmoveto
          245 callgsubr
          321 callsubr
          -100 -105 -9 -12 -86 hvcurveto
          -14 100 -8 86 -5 82 69 44 65 48 72 56 -10 20 -7 10 -11 11 rrcurveto
          hintmask 11000000
          -65 -50 -58 -43 -58 -38 -2 36 0 37 -1 36 -1 96 0 88 8 96 rrcurveto
          1 -5 -9 1 -8 hhcurveto
          -17 -10 -2 -6 -15 hvcurveto
          -4 -134 3 -139 10 -143 -41 -25 -42 -25 -46 -24 7 -18 8 -15 12 -12 rrcurveto
          hintmask 10100000
          37 21 35 20 34 21 7 -95 11 -96 13 -99 rrcurveto
          endchar
        </CharString>
        <CharString name="M">
          195 -58 812 hstem
          71 51 467 44 vstem
          576 -58 rmoveto
          20 19 3 6 18 hvcurveto
          8 246 7 313 -11 226 -18 8 -20 6 -20 4 -97 -167 -73 -157 -51 -167 -53 186 -82 173 -92 132 -20 -5 -19 -8 -18 -9 -10 -231 15 -282 37 -223 18 -1 19 3 17 6 rrcurveto
          -34 202 -14 172 139 vvcurveto
          63 -1 29 4 45 vhcurveto
          100 -158 62 -151 51 -176 13 -1 15 2 12 5 62 201 65 148 84 138 4 -319 -4 -185 -13 -216 rrcurveto
          endchar
        </CharString>
        <CharString name="N">
          87 -40 797 hstem
          69 62 353 53 vstem
          153 -34 -93 callgsubr
          endchar
        </CharString>
        <CharString name="Nacute">
          87 739 178 hstem
          69 62 182 62 109 53 vstem
          313 739 rmoveto
          -104 callsubr
          -160 -773 -93 callgsubr
          endchar
        </CharString>
        <CharString name="Ncaron">
          87 -40 939 hstem
          69 62 353 53 vstem
          293 743 -102 callgsubr
          -140 -777 -93 callgsubr
          endchar
        </CharString>
        <CharString name="Ntilde">
          87 783 47 -13 47 hstemhm
          69 62 47 42 130 42 92 53 hintmask 10101100
          327 830 rmoveto
          hintmask 01111100
          -17 callsubr
          hintmask 10101100
          -17 callgsubr
          -174 -864 -93 callgsubr
          endchar
        </CharString>
        <CharString name="O">
          234 callsubr
          hstem
          48 61 372 60 vstem
          541 388 -95 callsubr
        </CharString>
        <CharString name="OE">
          353 -41 45 -44 47 360 45 253 48 -25 47 hstemhm
          48 61 337 59 hintmask 10101110
          503 -41 -90 callsubr
          rrcurveto
          hintmask 01010110
          -18 1 -18 -19 vvcurveto
          48 -33 -47 27 -62 hhcurveto
          -160 -86 -168 -223 -209 95 -153 141 104 59 82 112 30 hvcurveto
          hintmask 10101110
          7 -64 9 -66 10 -65 rrcurveto
          hintmask 01010110
          -57 398 rmoveto
          -204 2 -50 -146 -112 hhcurveto
          -127 -50 177 147 200 62 134 116 102 55 -108 -200 2 hvcurveto
          endchar
        </CharString>
        <CharString name="Oacute">
          234 callsubr
          35 178 hstem
          48 61 201 62 109 60 vstem
          310 768 rmoveto
          -104 callsubr
          231 -380 -95 callsubr
        </CharString>
        <CharString name="Ocircumflex">
          234 callsubr
          hstem
          48 61 372 60 vstem
          410 766 -100 callgsubr
          131 -378 -95 callsubr
        </CharString>
        <CharString name="Odieresis">
          234 callsubr
          55 118 hstem
          48 61 372 60 vstem
          416 896 -107 callsubr
          229 -508 -95 callsubr
        </CharString>
        <CharString name="Ograve">
          234 callsubr
          40 178 hstem
          48 61 123 62 187 60 vstem
          335 780 -68 callgsubr
          206 -392 -95 callsubr
        </CharString>
        <CharString name="Ohungarumlaut">
          234 callsubr
          33 178 hstem
          48 61 155 62 43 62 50 60 vstem
          369 766 rmoveto
          -104 callsubr
          -105 hmoveto
          -104 callsubr
          277 -378 -95 callsubr
        </CharString>
        <CharString name="Omacron">
          234 callsubr
          83 51 hstem
          48 61 117 184 71 60 vstem
          223 828 -69 callsubr
          318 -440 -95 callsubr
        </CharString>
        <CharString name="Oslash">
          46 -20 47 658 48 hstem
          40 61 372 60 vstem
          101 351 rmoveto
          200 88 134 115 41 35 -12 -28 26 vhcurveto
          -92 -203 -81 -173 -84 -156 rrcurveto
          -33 65 -15 91 82 vvcurveto
          167 -324 rmoveto
          -36 -30 16 26 -23 hvcurveto
          90 172 84 170 85 186 rrcurveto
          23 -49 12 -72 -99 vvcurveto
          -169 -61 -181 -144 vhcurveto
          -2 -47 rmoveto
          198 69 239 169 122 -23 92 -44 58 hvcurveto
          16 35 16 37 16 37 -15 12 -11 7 -14 6 -15 -33 -15 -33 -14 -32 rrcurveto
          25 -33 -39 12 -47 hhcurveto
          -161 -110 -168 -223 -119 29 -100 50 -65 hvcurveto
          -20 -36 -21 -36 -21 -35 12 -10 12 -8 22 -7 17 32 17 32 17 32 rrcurveto
          -27 32 38 -15 42 hhcurveto
          endchar
        </CharString>
        <CharString name="Otilde">
          234 callsubr
          54 47 -13 47 hstemhm
          48 61 102 42 130 42 56 60 hintmask 11101011
          360 834 rmoveto
          hintmask 11011111
          -17 callsubr
          hintmask 11101011
          -17 callgsubr
          181 -446 -95 callsubr
        </CharString>
        <CharString name="P">
          7 698 44 hstem
          69 54 314 60 vstem
          142 -68 rmoveto
          -11 120 -6 89 -2 96 rrcurveto
          238 71 136 92 147 vvcurveto
          113 -81 82 -174 -57 -51 -8 -13 -58 vhcurveto
          309 callsubr
          9 -3 30 -1 11 3 rrcurveto
          -19 425 rmoveto
          97 3 97 12 132 vhcurveto
          10 35 35 5 39 310 callsubr
          23 0 24 25 vvcurveto
          endchar
        </CharString>
        <CharString name="Q">
          51 -40 47 618 48 hstem
          44 60 367 60 vstem
          528 -101 rmoveto
          15 10 14 15 11 16 -47 57 -34 41 -31 34 rrcurveto
          48 72 27 101 112 vvcurveto
          174 -60 142 -153 -166 -108 -168 -227 -205 97 -113 121 65 55 27 46 43 vhcurveto
          32 -36 32 -43 39 -55 rrcurveto
          -265 108 rmoveto
          -99 -60 107 173 204 86 134 121 107 53 -97 -182 -96 -19 -82 -34 -59 hvcurveto
          -29 28 -30 24 -38 29 -11 -7 -8 -17 -7 -9 36 -29 31 -27 30 -31 rrcurveto
          -40 -34 -44 -23 -51 hhcurveto
          endchar
        </CharString>
        <CharString name="R">
          376 callgsubr
          272 59 vstem
          474 -24 -82 callgsubr
          endchar
        </CharString>
        <CharString name="Racute">
          20 724 46 32 178 hstem
          91 56 80 62 130 59 vstem
          227 802 rmoveto
          -104 callsubr
          247 -826 -82 callgsubr
          endchar
        </CharString>
        <CharString name="Rcaron">
          376 callgsubr
          272 59 vstem
          237 811 -102 callgsubr
          237 -835 -82 callgsubr
          endchar
        </CharString>
        <CharString name="S">
          -68 -40 47 285 callsubr
          216 60 hintmask 11011000
          417 140 rmoveto
          -58 callgsubr
          hintmask 11101000
          84 callsubr
          hintmask 11011000
          102 75 72 108 hvcurveto
          endchar
        </CharString>
        <CharString name="Sacute">
          -68 -40 47 713 47 35 178 hstemhm
          38 58 -15 60 111 62 43 60 hintmask 11101110
          252 802 rmoveto
          -104 callsubr
          165 -662 rmoveto
          -58 callgsubr
          hintmask 11110110
          84 callsubr
          hintmask 11101110
          102 75 72 108 hvcurveto
          endchar
        </CharString>
        <CharString name="Scaron">
          -68 -40 47 285 callsubr
          216 60 hintmask 11011000
          253 798 -102 callgsubr
          164 -658 rmoveto
          -58 callgsubr
          hintmask 11101000
          84 callsubr
          hintmask 11011000
          102 75 72 108 hvcurveto
          endchar
        </CharString>
        <CharString name="T">
          63 740 51 hstem
          300 58 vstem
          300 25 rmoveto
          19 1 25 3 11 4 rrcurveto
          -52 callgsubr
          endchar
        </CharString>
        <CharString name="Tcaron">
          63 740 51 hstem
          300 58 vstem
          277 819 -102 callgsubr
          23 -794 rmoveto
          19 1 25 3 11 4 rrcurveto
          -52 callgsubr
          endchar
        </CharString>
        <CharString name="Thorn">
          -9 563 44 hstem
          61 54 319 60 vstem
          134 -68 rmoveto
          -5 64 -4 55 -3 52 rrcurveto
          239 72 133 92 145 vvcurveto
          113 -81 82 -174 -40 -37 -4 -7 -39 vhcurveto
          3 35 3 37 4 41 -21 9 -21 4 -23 -1 rrcurveto
          309 callsubr
          11 -4 22 0 17 3 rrcurveto
          -19 425 rmoveto
          60 1 60 4 69 vhcurveto
          13 39 41 4 44 310 callsubr
          -3 67 -2 64 76 vvcurveto
          endchar
        </CharString>
        <CharString name="U">
          387 callsubr
          474 363 rmoveto
          -98 callsubr
          149 90 120 323 vhcurveto
          endchar
        </CharString>
        <CharString name="Uacute">
          9 -80 49 717 178 hstem
          58 61 145 62 88 60 vstem
          264 686 rmoveto
          -104 callsubr
          210 -323 rmoveto
          -98 callsubr
          149 90 120 323 vhcurveto
          endchar
        </CharString>
        <CharString name="Ucircumflex">
          387 callsubr
          344 735 -100 callgsubr
          130 -372 rmoveto
          -98 callsubr
          149 90 120 323 vhcurveto
          endchar
        </CharString>
        <CharString name="Udieresis">
          9 -80 49 768 118 hstem
          58 61 295 60 vstem
          363 845 -107 callsubr
          215 -482 rmoveto
          -98 callsubr
          149 90 120 323 vhcurveto
          endchar
        </CharString>
        <CharString name="Ugrave">
          9 -80 49 720 178 hstem
          58 61 53 62 180 60 vstem
          275 696 -68 callgsubr
          199 -333 rmoveto
          -98 callsubr
          149 90 120 323 vhcurveto
          endchar
        </CharString>
        <CharString name="Uhungarumlaut">
          9 -80 49 730 178 hstem
          58 61 81 62 43 62 47 60 vstem
          305 699 rmoveto
          -104 callsubr
          -105 hmoveto
          -104 callsubr
          274 -336 rmoveto
          -98 callsubr
          149 90 120 323 vhcurveto
          endchar
        </CharString>
        <CharString name="Umacron">
          9 -80 49 742 51 hstemhm
          58 61 26 184 85 60 vstemhm
          142 723 -69 callsubr
          332 -360 rmoveto
          127 -21 116 -26 99 vhcurveto
          -26 -2 -17 -3 -19 -6 rrcurveto
          35 -134 14 -103 -141 vvcurveto
          -212 -57 -135 -111 vhcurveto
          hintmask 11101000
          -84 -43 72 252 110 19 118 28 111 hvcurveto
          1 -6 -7 1 -9 hhcurveto
          -8 -18 -1 -3 -10 hvcurveto
          -25 -77 -25 -145 -134 vvcurveto
          -271 74 -83 103 vhcurveto
          hintmask 11111000
          149 90 120 323 hvcurveto
          endchar
        </CharString>
        <CharString name="Uogonek">
          9 -264 44 140 49 hstem
          58 61 78 55 162 60 vstem
          276 -264 rmoveto
          39 32 17 36 23 hvcurveto
          41 callsubr
          -21 -15 18 32 40 26 43 49 27 hvcurveto
          89 48 58 106 269 vvcurveto
          -98 callsubr
          vhcurveto
          4 6 0 6 hhcurveto
          -38 -35 -16 -31 -41 vvcurveto
          -49 33 -28 46 vhcurveto
          endchar
        </CharString>
        <CharString name="Uring">
          9 -80 49 711 35 120 32 hstem
          58 61 34 49 89 51 72 60 vstem
          256 867 -28 callsubr
          223 -472 rmoveto
          -98 callsubr
          149 90 120 323 vhcurveto
          endchar
        </CharString>
        <CharString name="V">
          20 -95 855 hstem
          26 477 vstem
          266 205 callgsubr
          -84 212 -57 214 -26 231 -22 -3 -14 -5 -21 -10 36 -263 65 -231 95 -216 rrcurveto
          16 11 1 4 17 hvcurveto
          endchar
        </CharString>
        <CharString name="W">
          186 -62 772 hstem
          20 673 vstem
          219 -53 rmoveto
          60 141 38 117 28 126 17 -111 29 -104 49 -153 18 1 13 2 18 4 124 282 45 190 35 253 rrcurveto
          11 -21 -19 4 -17 hhcurveto
          -25 -240 -48 -194 -95 -241 -59 192 -22 140 -7 169 -18 -2 -18 -3 -17 -4 -17 -166 -32 -117 -73 -211 -77 252 -36 178 -14 209 -26 -2 -16 -4 -16 -6 23 -247 36 -161 100 -314 rrcurveto
          13 1 14 4 13 4 rrcurveto
          endchar
        </CharString>
        <CharString name="X">
          112 -24 786 hstem
          20 566 vstem
          526 -24 rmoveto
          16 8 15 11 12 13 -68 162 -55 121 -61 110 70 93 67 96 64 107 -12 17 -16 15 -17 8 -58 -108 -61 -94 -64 -88 -61 103 -70 96 -96 116 -22 -9 -18 -13 -18 -16 rrcurveto
          99 -106 75 -96 72 -120 -92 -121 -95 -108 -112 -118 7 -12 11 -11 14 -9 112 114 92 107 89 113 57 -103 57 -121 67 -157 rrcurveto
          endchar
        </CharString>
        <CharString name="Y">
          -25 -80 807 hstem
          18 447 vstem
          144 -80 -15 callsubr
        </CharString>
        <CharString name="Yacute">
          -25 717 178 hstem
          244 62 vstem
          244 717 rmoveto
          -104 callsubr
          -100 -797 -15 callsubr
        </CharString>
        <CharString name="Ydieresis">
          -25 771 118 hstem
          18 447 vstem
          345 879 -107 callsubr
          -97 -959 -15 callsubr
        </CharString>
        <CharString name="Z">
          56 -34 58 hstem
          26 529 vstem
          500 -34 -71 callsubr
        </CharString>
        <CharString name="Zacute">
          56 -34 58 719 178 hstem
          349 62 vstem
          349 743 rmoveto
          -104 callsubr
          151 -777 -71 callsubr
        </CharString>
        <CharString name="Zcaron">
          56 -34 58 hstem
          26 529 vstem
          338 743 -102 callgsubr
          162 -777 -71 callsubr
        </CharString>
        <CharString name="Zdotaccent">
          56 -34 58 722 118 hstem
          26 529 vstem
          395 854 -103 callsubr
          105 -888 -71 callsubr
        </CharString>
        <CharString name="a">
          109 callsubr
          hstem
          28 58 229 59 vstem
          313 -34 -106 callsubr
        </CharString>
        <CharString name="aacute">
          109 callsubr
          37 178 hstemhm
          28 58 164 62 3 59 hintmask 11111100
          250 570 rmoveto
          -104 callsubr
          hintmask 11101010
          63 -604 -106 callsubr
        </CharString>
        <CharString name="abreve">
          109 callsubr
          38 44 hstemhm
          28 58 54 50 112 45 -32 59 hintmask 11111101
          140 679 rmoveto
          -31 6 -17 12 -18 vhcurveto
          hintmask 11111110
          -25 18 29 -17 43 hhcurveto
          42 28 12 24 16 hvcurveto
          12 20 5 27 -4 35 -16 3 -19 0 -14 -4 rrcurveto
          -42 12 -13 -31 -48 hhcurveto
          -52 -12 26 45 5 hvcurveto
          hintmask 11111101
          -13 1 -20 -2 -17 -6 rrcurveto
          173 -713 -106 callsubr
        </CharString>
        <CharString name="acircumflex">
          109 callsubr
          hstem
          28 58 229 59 vstem
          329 565 -100 callgsubr
          -16 -599 -106 callsubr
        </CharString>
        <CharString name="acute">
          -269 571 178 hstem
          113 62 vstem
          113 202 callsubr
          endchar
        </CharString>
        <CharString name="adieresis">
          109 callsubr
          51 118 hstem
          28 58 229 59 vstem
          355 692 -107 callsubr
          62 -726 -106 callsubr
        </CharString>
        <CharString name="ae">
          169 -10 45 -27 44 180 37 -26 41 194 46 -36 45 hstemhm
          28 58 227 55 221 55 hintmask 0101011110000000
          529 284 134 callgsubr
          hintmask 0101101110000000
          -24 callsubr
          hintmask 0101011110000000
          181 callgsubr
          hintmask 1001101110000000
          -40 callsubr
          16 1 15 -49 callgsubr
          -68 -55 -51 -65 -37 vhcurveto
          hintmask 0110011110000000
          65 -14 -39 60 -80 hhcurveto
          -91 -77 -76 -88 -14 hvcurveto
          11 -15 17 -8 27 -6 rrcurveto
          85 3 49 63 66 hhcurveto
          60 31 -34 -113 -18 1 -23 -1 -33 hvcurveto
          1 -23 -20 1 -29 hhcurveto
          -152 -63 -58 -78 -73 49 -52 88 70 57 27 57 45 hvcurveto
          hintmask 1001011110000000
          -62 26 46 -40 69 hhcurveto
          hintmask 1001101110000000
          80 86 79 72 23 hvcurveto
          hintmask 0110011110000000
          -497 -89 rmoveto
          -55 -29 33 48 58 49 55 178 -14 hvcurveto
          -2 0 -3 -2 vvcurveto
          -36 4 -35 9 -31 vhcurveto
          -48 -43 -55 -23 -58 hhcurveto
          endchar
        </CharString>
        <CharString name="agrave">
          109 callsubr
          39 178 hstem
          28 58 87 62 80 59 vstem
          276 579 -68 callgsubr
          37 -613 -106 callsubr
        </CharString>
        <CharString name="amacron">
          109 callsubr
          48 51 hstemhm
          28 58 65 184 -20 59 hintmask 11111100
          148 593 -69 callsubr
          hintmask 11111010
          165 -627 -106 callsubr
        </CharString>
        <CharString name="ampersand">
          215 -54 44 689 42 hstem
          40 55 125 55 152 55 76 53 vstem
          275 528 rmoveto
          103 39 48 44 46 23 -39 -59 -74 -44 -57 -99 -23 vhcurveto
          -6 33 -3 34 34 vvcurveto
          34 -538 rmoveto
          -127 -87 76 123 98 63 66 83 23 hvcurveto
          38 -129 83 -107 111 -81 rrcurveto
          -43 -44 -56 -26 -64 hhcurveto
          336 -26 rmoveto
          18 8 15 13 7 17 -50 21 -46 23 -40 26 rrcurveto
          38 55 24 72 91 vvcurveto
          30 -2 29 -5 36 vhcurveto
          -25 3 -19 -2 -13 -3 rrcurveto
          8 -36 3 -28 -40 vvcurveto
          -68 -19 -62 -33 -49 vhcurveto
          -115 83 -69 100 -30 110 rrcurveto
          124 31 66 67 95 vvcurveto
          82 -50 53 -68 -91 -53 -76 -116 -40 4 -39 8 -37 vhcurveto
          -134 -37 -58 -88 -103 vvcurveto
          -130 94 -109 176 73 75 29 56 57 vhcurveto
          40 -26 44 -22 46 -19 rrcurveto
          endchar
        </CharString>
        <CharString name="aogonek">
          -97 -230 48 190 44 180 37 219 45 hstem
          28 58 92 55 82 59 vstem
          180 52 rmoveto
          -55 -39 33 53 53 41 53 185 -12 hvcurveto
          -3 -47 -7 -42 -11 -54 rrcurveto
          -24 -31 -39 -13 -41 hhcurveto
          171 -225 rmoveto
          293 callsubr
          34 16 33 45 44 hvcurveto
          -1 6 7 -1 6 hhcurveto
          30 106 31 169 97 vvcurveto
          98 -27 97 -114 -91 -77 -76 -88 -14 vhcurveto
          11 -15 17 -8 27 -6 rrcurveto
          85 3 49 63 66 hhcurveto
          60 31 -34 -113 -28 0 -24 -1 -22 hvcurveto
          1 -22 -21 1 -28 hhcurveto
          -149 -66 -51 -80 -78 59 -52 88 42 37 14 21 26 hvcurveto
          -5 -21 -5 -21 -6 -25 rrcurveto
          -57 -41 -29 -43 -48 344 callsubr
          45 28 21 36 23 vhcurveto
          endchar
        </CharString>
        <CharString name="approxequal">
          -201 223 40 -6 40 42 40 -6 40 hstemhm
          29 36 195 39 hintmask 10101100
          222 379 rmoveto
          hintmask 10011100
          111 callgsubr
          1 -116 rmoveto
          hintmask 01101100
          111 callgsubr
          endchar
        </CharString>
        <CharString name="aring">
          109 callsubr
          39 35 120 32 hstemhm
          28 58 64 49 89 51 -24 59 hintmask 1111111100000000
          253 759 -28 callsubr
          hintmask 1111111010000000
          65 -761 -106 callsubr
        </CharString>
        <CharString name="asa_ba">
          -73 275 callsubr
          -21 114 hintmask 11000000
          391 -4 116 callsubr
          105 5 65 16 88 vhcurveto
          hintmask 10100000
          26 -4 25 -5 21 -91 callgsubr
          34 36 -3 -4 34 hvcurveto
          -3 -17 -2 -16 -2 -17 -116 -55 -126 -92 -58 -72 2 -20 5 -18 20 -20 rrcurveto
          hintmask 11000000
          127 callsubr
          -293 -73 rmoveto
          60 -12 80 -43 39 -62 11 5 8 6 5 8 -37 73 -86 54 -64 21 333 callgsubr
        </CharString>
        <CharString name="asa_ba.half">
          -72 callgsubr
          152 rmoveto
          -40 2 -29 2 -23 vhcurveto
          -58 78 -77 49 -81 25 61 48 96 50 66 24 rrcurveto
          -7 -56 -4 -59 -67 vvcurveto
          -57 -175 rmoveto
          -39 78 -73 43 -75 19 -21 -37 rcurveline
          76 -12 69 -39 47 -75 rrcurveto
          endchar
        </CharString>
        <CharString name="asa_ba_ukaar">
          107 165 285 callgsubr
          317 47 62 29 112 43 callgsubr
          -77 -90 vvcurveto
          74 -203 rmoveto
          -19 68 -6 104 -2 80 rrcurveto
          -53 29 43 -30 50 -93 callsubr
          -46 -45 36 69 -24 hvcurveto
          1 96 7 64 16 87 -102 callsubr
          -367 130 rmoveto
          80 -16 101 -77 54 -100 11 5 8 6 5 8 -49 110 -110 87 -84 27 333 callgsubr
        </CharString>
        <CharString name="asa_ba_uukaar">
          107 568 50 hstem
          317 47 117 43 callgsubr
          -77 -90 vvcurveto
          74 -203 116 callsubr
          25 0 23 1 22 vhcurveto
          43 21 42 19 41 17 rrcurveto
          -7 -39 -97 callsubr
          -49 -16 -51 -22 -51 -23 rlinecurve
          4 49 6 45 10 54 -102 callsubr
          -367 130 rmoveto
          80 -16 101 -77 54 -100 11 5 8 6 5 8 -49 110 -110 87 -84 27 333 callgsubr
        </CharString>
        <CharString name="asa_ra">
          -73 561 50 hstemhm
          316 47 -21 114 hintmask 11000000
          390 -4 116 callsubr
          105 5 65 16 88 vhcurveto
          hintmask 10100000
          26 -4 25 -5 21 -91 callgsubr
          34 36 -3 -4 34 hvcurveto
          -3 -17 -2 -16 -2 -17 -116 -55 -126 -92 -58 -72 2 -20 5 -18 20 -20 rrcurveto
          hintmask 11000000
          -49 callsubr
          -74 239 rmoveto
          -34 57 -46 38 -49 22 48 37 52 33 40 19 -6 -65 -4 -66 -1 -75 rrcurveto
          5 -161 rmoveto
          -60 102 -81 61 -85 34 15 16 18 16 19 17 65 -18 60 -43 44 -80 rrcurveto
          -44 2 -34 3 -27 vhcurveto
          endchar
        </CharString>
        <CharString name="asa_ra.half">
          -72 callgsubr
          184 rmoveto
          -33 41 -44 28 -47 17 47 26 49 24 39 14 -6 -47 -4 -49 -1 -54 rrcurveto
          4 -124 rmoveto
          -58 78 -77 49 -81 25 13 10 14 10 15 10 66 -12 60 -34 44 -60 1 -32 1 -25 2 -19 rrcurveto
          endchar
        </CharString>
        <CharString name="asa_ra_ukaar">
          107 165 285 callgsubr
          317 47 62 391 callsubr
          vstem
          317 233 rmoveto
          -34 58 -46 38 -49 23 48 37 52 33 41 19 -7 -65 -4 -67 -1 -76 rrcurveto
          5 -159 219 callsubr
          69 -78 rmoveto
          -19 68 -6 104 -2 80 rrcurveto
          -53 29 43 -30 50 -93 callsubr
          -46 -45 36 69 -24 hvcurveto
          1 96 7 64 16 87 -102 callsubr
          endchar
        </CharString>
        <CharString name="asa_ra_uukaar">
          107 568 50 hstemhm
          317 47 -35 39 113 44 hintmask 11010000
          317 233 rmoveto
          -34 58 -46 38 -49 23 rrcurveto
          hintmask 10110000
          48 37 52 33 41 19 rrcurveto
          hintmask 11010000
          -7 -65 -4 -67 -1 -76 rrcurveto
          74 -237 116 callsubr
          25 0 23 1 22 vhcurveto
          43 21 42 19 41 17 rrcurveto
          -7 -39 -97 callsubr
          rlineto
          hintmask 10110000
          -49 -16 -51 -22 -51 -23 4 49 6 45 10 54 -100 callsubr
          rrcurveto
          hintmask 11010000
          -49 callsubr
          -69 78 219 callsubr
          endchar
        </CharString>
        <CharString name="asciicircum">
          -152 215 280 hstem
          30 317 vstem
          310 215 rmoveto
          13 3 7 4 17 6 365 callsubr
          -43 -84 -41 -106 12 -7 12 -5 13 -1 40 93 37 76 43 59 44 -65 38 -70 41 -96 rrcurveto
          endchar
        </CharString>
        <CharString name="asciitilde">
          -201 288 40 -6 40 hstemhm
          29 36 195 39 hintmask 10110000
          222 328 rmoveto
          hintmask 01110000
          -29 -50 34 -45 hhcurveto
          -44 -29 -31 -42 4 hvcurveto
          11 -4 12 -4 13 1 rrcurveto
          28 -2 11 12 26 hhcurveto
          hintmask 10110000
          29 50 -34 49 hhcurveto
          44 31 31 43 -4 hvcurveto
          -14 6 -9 2 -16 -1 rrcurveto
          -26 2 -14 -15 -26 hhcurveto
          endchar
        </CharString>
        <CharString name="asterisk">
          -102 314 395 hstemhm
          192 41 -39 42 hintmask 11000000
          239 317 rmoveto
          -4 55 -2 45 59 vvcurveto
          60 -43 35 -23 41 -21 4 6 2 1 4 7 6 9 6 15 4 10 -50 23 -41 21 -50 29 67 32 37 18 39 25 -3 6 0 2 -4 7 -4 10 -11 13 -6 9 rrcurveto
          hintmask 10100000
          -45 -33 -39 -24 -49 -29 6 73 2 42 -2 46 rrcurveto
          1 -8 -2 1 -8 hhcurveto
          -10 -16 -1 -2 -10 hvcurveto
          4 -55 2 -45 -57 vvcurveto
          -59 41 -36 22 -41 22 -4 -6 -2 -1 -4 -7 -6 -9 -6 -15 -4 -10 49 -24 41 -20 49 -29 -65 -31 -37 -19 -39 -25 3 -6 0 -2 4 -7 4 -10 11 -13 6 -9 rrcurveto
          hintmask 11000000
          46 31 38 25 50 30 -7 -74 -2 -42 2 -45 rrcurveto
          -1 8 2 -1 8 hhcurveto
          10 16 1 2 10 hvcurveto
          endchar
        </CharString>
        <CharString name="at">
          346 -93 44 134 44 -33 44 349 44 141 44 hstemhm
          45 55 154 55 182 49 210 55 hintmask 1101111110000000
          411 -93 rmoveto
          81 78 21 39 64 hvcurveto
          -9 18 -5 11 -14 13 rrcurveto
          -41 -49 -61 -17 -77 hhcurveto
          -197 -122 137 217 224 138 145 196 213 103 -147 -170 -141 -57 -87 -75 -54 -24 50 133 60 3 70 8 112 hvcurveto
          -26 6 -23 -4 -14 -6 rrcurveto
          -9 0 -9 -9 vvcurveto
          6 -19 -21 4 -20 hhcurveto
          -99 -75 -88 -150 hvcurveto
          hintmask 1011111110000000
          -123 58 -76 76 48 38 25 64 25 vhcurveto
          hintmask 1101111110000000
          -68 17 42 -32 59 hhcurveto
          105 83 104 166 183 -104 180 -255 -247 -154 -165 -261 -235 153 -150 213 hvcurveto
          hintmask 1011111110000000
          -21 233 rmoveto
          -48 -33 56 108 118 57 67 70 22 17 -3 -5 13 hvcurveto
          1 -82 2 -90 -50 vvcurveto
          -1 vlineto
          -87 -22 -38 -31 -41 hhcurveto
          endchar
        </CharString>
        <CharString name="atilde">
          109 callsubr
          61 47 -13 47 hstemhm
          28 58 39 42 130 42 -24 59 hintmask 1111010100000000
          274 641 rmoveto
          hintmask 1110111010000000
          -17 callsubr
          hintmask 1111010100000000
          -17 callgsubr
          hintmask 1111010010000000
          39 -675 -106 callsubr
        </CharString>
        <CharString name="b">
          -102 -30 45 453 45 hstem
          56 50 221 59 vstem
          167 -30 rmoveto
          131 88 127 209 143 -53 64 -84 -60 -45 -29 -52 -33 hvcurveto
          6 99 10 104 14 87 rrcurveto
          2 -10 -7 2 -11 hhcurveto
          -14 -11 -1 -4 -13 hvcurveto
          -12 -92 -7 -175 -151 vvcurveto
          -30 -2 -149 7 -110 vhcurveto
          -29 28 34 -15 44 hhcurveto
          4 45 rmoveto
          -30 -18 8 15 -17 hvcurveto
          -3 49 1 56 0 91 0 31 1 34 37 flex1
          91 31 52 41 41 hhcurveto
          61 36 -49 -114 -157 -43 -133 -113 hvcurveto
          endchar
        </CharString>
        <CharString name="backslash">
          -64 -198 943 hstem
          15 480 vstem
          446 -198 rmoveto
          22 7 14 8 13 10 -136 234 -151 333 -152 351 -14 -6 -11 -7 -16 -11 131 -314 158 -327 142 -278 rrcurveto
          endchar
        </CharString>
        <CharString name="bar">
          -265 -171 896 hstem
          100 56 vstem
          120 -171 rmoveto
          13 25 3 3 10 hvcurveto
          -10 206 -9 419 14 265 -26 2 -23 -6 -14 -7 -1 -288 6 -323 15 -274 rrcurveto
          endchar
        </CharString>
        <CharString name="bn_a">
          83 97 52 309 40 69 49 hstem
          201 46 137 45 73 51 vstem
          483 -18 rmoveto
          45 93 25 202 159 vvcurveto
          39 0 37 -3 34 vhcurveto
          22 -3 21 -4 19 -4 rrcurveto
          2 6 2 10 0 11 0 8 -1 217 callsubr
          19 -74 -115 16 -117 hhcurveto
          -121 -102 -16 -19 -83 hvcurveto
          -3 -82 callsubr
          -11 2 -9 -6 flex1
          17 85 99 15 119 hhcurveto
          69 67 -5 -8 60 hvcurveto
          2 -42 1 -35 -44 vvcurveto
          -164 -12 -137 -31 -101 vhcurveto
          -19 41 -24 38 -27 34 rrcurveto
          26 34 14 48 55 72 callsubr
          26 23 7 12 19 hvcurveto
          30 -33 27 -40 25 -49 rrcurveto
          -7 11 16 -5 16 hhcurveto
          endchar
        </CharString>
        <CharString name="bn_aa">
          307 92 52 309 40 77 49 hstem
          202 46 137 45 60 46 173 32 vstem
          752 -26 rmoveto
          -14 153 -3 171 23 191 11 18 26 16 41 12 4 13 1 23 -5 10 -44 -11 -40 -18 -21 -23 rrcurveto
          66 -73 -173 24 -149 hhcurveto
          -125 -119 -17 -21 -92 hvcurveto
          -7 -11 2 -21 5 -14 rrcurveto
          19 95 115 16 123 hhcurveto
          57 66 -3 -9 61 hvcurveto
          -19 -83 -8 -144 -124 vvcurveto
          -65 2 -45 3 -34 vhcurveto
          -25 41 -30 35 -32 29 rrcurveto
          15 30 7 37 41 72 callsubr
          41 32 16 27 23 hvcurveto
          45 -38 41 -50 36 -63 rrcurveto
          19 20 3 9 14 hvcurveto
          -22 81 -4 131 87 vvcurveto
          96 6 95 14 65 vhcurveto
          80 -16 64 -27 9 -43 -22 -213 0 -146 -1 -138 13 -1 31 2 22 5 rrcurveto
          endchar
        </CharString>
        <CharString name="bn_aakaar">
          -51 632 hstem
          100 48 vstem
          127 -51 74 callsubr
          endchar
        </CharString>
        <CharString name="bn_aakaar.b">
          541 45 hstem
          100 48 vstem
          127 -51 151 callsubr
          13 16 24 15 39 11 4 13 1 23 -5 10 -42 -11 -38 -17 -22 -22 rrcurveto
          38 -20 -35 17 -28 hhcurveto
          -10 -13 -1 -4 -16 hvcurveto
          -3 -5 -1 -9 -6 callsubr
          -10 259 callgsubr
          5 19 10 1 8 hhcurveto
          32 28 -35 -55 3 hvcurveto
          -2 -207 -13 -151 -24 -135 rrcurveto
          287 callgsubr
          endchar
        </CharString>
        <CharString name="bn_ai">
          108 279 callsubr
          68 36 hintmask 01111111
          429 -17 rmoveto
          15 17 235 callsubr
          14 112 10 127 2 157 rrcurveto
          67 53 38 62 72 vvcurveto
          88 -56 42 -103 21 vhcurveto
          -69 14 -71 13 -33 21 -18 341 callsubr
          21 -113 60 -18 118 -21 rrcurveto
          94 -17 64 -13 -77 vvcurveto
          -51 -27 -47 -41 -30 vhcurveto
          11 0 11 11 346 callsubr
          -64 callsubr
          hintmask 10111111
          -9 callsubr
          hintmask 01111111
          167 callsubr
          endchar
        </CharString>
        <CharString name="bn_aikaar">
          -285 -63 44 681 45 -30 46 hstemhm
          70 56 83 35 hintmask 10111000
          196 -63 0 callgsubr
          2 7 246 callsubr
          8 5 flex1
          76 -8 -31 66 -70 hhcurveto
          hintmask 11011000
          -34 -41 -16 -31 hhcurveto
          -40 -21 32 35 -21 hvcurveto
          -11 -4 -17 -9 -10 -11 rrcurveto
          -52 29 32 -36 56 40 34 15 37 hhcurveto
          hintmask 10111000
          50 15 -50 -56 7 hvcurveto
          -36 -12 -23 -15 -13 -19 -30 23 -51 21 -56 12 rrcurveto
          -2 -5 -1 -8 0 -9 0 -8 1 326 callsubr
          159 callsubr
          endchar
        </CharString>
        <CharString name="bn_aikaar.init">
          -252 -63 44 681 45 -30 46 hstemhm
          55 57 130 35 hintmask 10111000
          182 -63 rmoveto
          34 34 24 38 21 hvcurveto
          150 callgsubr
          76 -8 -31 66 -70 hhcurveto
          hintmask 11011000
          -34 -41 -16 -31 hhcurveto
          -40 -21 32 35 -21 hvcurveto
          -11 -4 -17 -9 -10 -11 rrcurveto
          -52 29 32 -36 56 40 34 15 37 hhcurveto
          hintmask 10111000
          49 16 -50 -55 7 hvcurveto
          -125 -41 -62 -119 -196 vvcurveto
          -165 52 -114 75 vhcurveto
          endchar
        </CharString>
        <CharString name="bn_anusvar">
          -91 330 43 183 43 hstem
          85 46 186 46 vstem
          129 callsubr
          291 -493 rmoveto
          -88 161 -151 117 -133 53 -12 -17 -5 -15 -3 -19 124 -38 136 -111 97 -155 16 6 11 7 8 11 rrcurveto
          endchar
        </CharString>
        <CharString name="bn_au">
          181 253 callgsubr
          45 36 hintmask 1111110110000000
          311 callsubr
          13 19 11 24 9 25 rrcurveto
          59 53 43 66 75 vvcurveto
          78 -46 51 -108 22 vhcurveto
          -64 13 -86 17 -29 21 -16 78 rlinecurve
          -12 -1 -18 -4 -14 -6 22 -121 57 -13 120 -23 rrcurveto
          97 -19 61 -15 -71 vvcurveto
          hintmask 1111111010000000
          -41 -20 -45 -31 -30 vhcurveto
          97 callgsubr
          hintmask 1111110110000000
          63 callsubr
        </CharString>
        <CharString name="bn_aukaar">
          582 -63 44 4 222 callgsubr
          0 244 -174 56 142 243 callgsubr
          -37 43 111 48 -2 34 hintmask 000000010000010000100000
          609 544 rmoveto
          26 -15 15 -25 -25 -14 -15 -26 207 callgsubr
          vhcurveto
          405 -595 151 callsubr
          rrcurveto
          hintmask 000000010000000001010000
          32 callsubr
          hintmask 000000010000000001100000
          194 callsubr
          hintmask 000000010000010000100000
          287 callgsubr
          hintmask 100000000100000000000000
          -818 -12 0 callgsubr
          hintmask 000000101000000000000000
          50 callsubr
          hintmask 100000000100000000000000
          159 callsubr
          hintmask 000000100000101000000000
          544 127 callgsubr
          357 -95 282 callgsubr
          -452 -1 280 callsubr
          hintmask 000010000010000010000000
          -34 -127 rmoveto
          291 callgsubr
          522 hmoveto
          290 callsubr
          hintmask 000100000001000100000000
          -36 8 callsubr
        </CharString>
        <CharString name="bn_aumark">
          -51 958 hstemhm
          -54 43 111 48 -2 34 hintmask 11100000
          127 -51 151 callsubr
          rrcurveto
          hintmask 11010000
          32 callsubr
          hintmask 11100000
          194 callsubr
          -5 13 31 -4 22 hhcurveto
          endchar
        </CharString>
        <CharString name="bn_aumark_reph">
          -51 1022 hstemhm
          -54 43 11 17 83 48 -2 34 hintmask 11010000
          127 -51 151 callsubr
          rrcurveto
          hintmask 11001000
          13 16 24 15 39 11 rrcurveto
          2 7 1 9 0 10 0 8 148 callgsubr
          -18 -5 -18 -6 -16 -7 rrcurveto
          5 15 3 16 16 vvcurveto
          36 -15 31 -32 33 vhcurveto
          76 74 74 95 28 75 -5 8 -13 5 -12 4 -31 -76 -72 -89 -77 -67 -4 3 -5 4 -4 3 rrcurveto
          -56 43 -43 12 65 vvcurveto
          13 1 12 2 13 vhcurveto
          -13 1 -17 -2 -12 -4 rrcurveto
          -3 -15 -1 -14 -11 vvcurveto
          -81 38 -6 82 -64 vhcurveto
          hintmask 11101000
          -28 -21 -28 -18 -26 -13 10 -18 9 -15 14 -10 26 16 29 23 30 26 rrcurveto
          34 -31 10 -21 -25 vvcurveto
          -27 -12 -28 -17 -21 vhcurveto
          -31 26 -44 17 -42 10 rrcurveto
          -2 -5 -1 -9 0 -9 0 -7 1 -9 -7 flex1
          hintmask 11010000
          59 -15 39 -23 2 -39 200 callgsubr
          endchar
        </CharString>
        <CharString name="bn_avagraha">
          -98 175 49 132 42 112 41 hstemhm
          59 45 204 38 -29 48 hintmask 11110100
          175 398 rmoveto
          -46 -25 28 34 31 21 19 38 38 36 -20 -30 28 hvcurveto
          -37 -20 -27 -25 -43 hhcurveto
          246 -463 174 callgsubr
          52 -20 52 -31 40 hvcurveto
          hintmask 11111000
          19 50 8 45 5 46 rrcurveto
          7 -11 -14 3 -13 hhcurveto
          -3 -26 -5 -42 -16 -50 rrcurveto
          31 -36 -43 20 -46 hhcurveto
          -57 -43 -31 -58 -65 54 -41 66 hvcurveto
          hintmask 11110100
          55 36 29 39 22 hvcurveto
          16 -27 9 -32 -31 vvcurveto
          -69 -47 -41 -83 -47 -56 13 23 -61 vhcurveto
          20 -70 101 callsubr
          rlinecurve
          endchar
        </CharString>
        <CharString name="bn_b_ba">
          247 574 50 hstemhm
          317 47 273 47 -21 114 hintmask 11100000
          400 574 rmoveto
          hintmask 11010000
          108 86 -8 -10 69 hvcurveto
          -2 -18 -3 -17 -2 -17 -111 -52 -120 -87 -61 -70 rrcurveto
          111 5 72 17 96 vhcurveto
          hintmask 11100000
          14 0 0 0 hvcurveto
          311 -578 116 callsubr
          105 5 66 16 87 vhcurveto
          hintmask 11010000
          26 -4 24 -5 22 -5 rrcurveto
          -89 callsubr
          20 -76 -124 23 -178 hhcurveto
          -189 -129 -21 -22 -81 -106 callgsubr
          74 17 112 18 158 3 -4 -23 -3 -24 -3 -23 -116 -55 -124 -91 -58 -72 2 -20 5 -18 20 -20 -49 callsubr
          -20 69 -5 107 -2 81 4 -9 6 -8 9 -9 rrcurveto
          hintmask 11100000
          127 callsubr
          -320 hmoveto
          -54 2 -40 3 -31 vhcurveto
          -60 102 -81 61 -85 34 61 65 101 71 69 34 rrcurveto
          -7 -75 -3 -78 -89 vvcurveto
          endchar
        </CharString>
        <CharString name="bn_b_bha">
          388 callgsubr
          hstem
          211 45 161 47 61 46 vstem
          417 199 rmoveto
          -16 0 -15 -13 vvcurveto
          -54 97 -77 57 -79 32 59 61 103 63 66 29 rrcurveto
          -12 -91 -6 -93 -111 vvcurveto
          -44 -459 rmoveto
          122 76 72 113 51 -15 55 -22 42 hvcurveto
          -9 8 -14 8 -10 5 -10 -7 -9 -7 -9 -6 rrcurveto
          -11 68 2 90 59 vvcurveto
          106 6 67 15 88 vhcurveto
          42 -5 36 -6 32 -6 rrcurveto
          -54 callsubr
          14 74 94 13 130 hhcurveto
          54 47 -2 -4 43 hvcurveto
          -113 -51 -127 -82 -55 -68 2 -20 5 -18 20 -20 97 -21 82 -63 67 -122 1 -20 1 -15 2 -13 rrcurveto
          -19 -35 -31 -10 -33 86 callgsubr
          370 callsubr
        </CharString>
        <CharString name="bn_b_da">
          32 566 50 hstem
          315 36 122 48 vstem
          546 -58 rmoveto
          115 callsubr
          -63 -39 -68 -57 -60 -77 rrcurveto
          22 93 11 114 -14 callsubr
          -1 -9 0 -10 -10 vvcurveto
          -93 -39 -138 -62 -52 -50 rrcurveto
          -19 8 -21 18 -16 vhcurveto
          85 -27 68 -52 36 -105 268 callgsubr
          258 callgsubr
          188 callgsubr
          -286 248 rmoveto
          -33 89 -66 54 -72 34 59 43 102 45 61 27 -8 -95 -18 -102 -25 -95 rrcurveto
          endchar
        </CharString>
        <CharString name="bn_b_da_ukaar">
          107 165 285 callgsubr
          317 47 62 29 112 43 callgsubr
          -78 -89 vvcurveto
          74 -203 rmoveto
          -19 68 -6 104 -2 80 rrcurveto
          -53 29 43 -30 50 -93 callsubr
          -46 -45 36 69 -24 hvcurveto
          1 96 7 64 16 87 -102 callsubr
          endchar
        </CharString>
        <CharString name="bn_b_da_uukaar">
          107 568 50 hstem
          317 47 117 43 callgsubr
          -78 -89 vvcurveto
          74 -203 116 callsubr
          25 0 23 1 22 vhcurveto
          43 21 42 19 41 17 rrcurveto
          -7 -39 -97 callsubr
          -49 -16 -51 -22 -51 -23 rlinecurve
          4 49 6 45 10 54 -102 callsubr
          endchar
        </CharString>
        <CharString name="bn_b_dha">
          32 566 50 hstem
          340 46 76 44 vstem
          340 368 rmoveto
          -16 0 -17 -17 vvcurveto
          -37 -17 -41 -22 -40 -25 -36 25 -43 12 -40 13 62 66 107 71 66 28 rrcurveto
          1 -32 1 -34 -35 vvcurveto
          122 -213 rmoveto
          56 callsubr
          -35 -11 -37 -14 -36 -16 rlinecurve
          8 0 8 8 vvcurveto
          63 -7 87 -10 51 vhcurveto
          72 -5 66 -10 54 -13 -83 callsubr
          16 16 0 -1 16 hvcurveto
          2 -12 2 -13 2 -14 -113 -51 -122 -88 -56 -68 2 -20 5 -18 20 -19 39 -10 42 -4 35 -18 -46 -30 -41 -31 -25 -24 62 callsubr
        </CharString>
        <CharString name="bn_b_ja">
          249 callsubr
          180 372 rmoveto
          -4 vlineto
          -34 30 -36 18 -45 14 41 26 60 24 50 21 rrcurveto
          -21 -44 -15 -47 -38 vvcurveto
          388 -382 31 callsubr
          -73 -36 40 73 -32 hvcurveto
          117 -1 122 -16 87 -17 rrcurveto
          -89 callsubr
          21 -81 -132 17 -124 hhcurveto
          -124 -135 -17 -21 -82 -106 callgsubr
          64 14 92 12 95 6 -84 -35 -115 -45 -42 -42 rrcurveto
          -22 7 -18 12 -16 vhcurveto
          77 -13 47 -20 52 -59 rrcurveto
          -26 21 33 -15 31 hhcurveto
          45 47 29 35 41 hvcurveto
          367 callsubr
          -94 -77 73 198 -48 245 callsubr
          -146 35 72 -157 153 97 callsubr
          304 callsubr
        </CharString>
        <CharString name="bn_b_la">
          -72 -234 56 167 55 -51 51 517 50 hstemhm
          -10 41 288 48 -31 121 hintmask 11011100
          319 -16 callgsubr
          -151 -437 237 callsubr
          -25 -39 23 hvcurveto
          24 -43 rlineto
          hintmask 10111100
          -57 callgsubr
          31 30 -34 -124 16 vhcurveto
          2 -22 2 -19 2 -18 rrcurveto
          249 callgsubr
          hintmask 10111010
          29 -5 27 -5 23 -91 callgsubr
          32 33 -2 -4 32 hvcurveto
          -1 -18 -2 -18 -2 -18 85 callgsubr
          rrcurveto
          44 -19 -25 18 -29 320 callsubr
          hintmask 11011100
          283 callgsubr
        </CharString>
        <CharString name="bn_b_ra">
          -72 -177 49 -37 49 677 374 callgsubr
          -31 121 hintmask 10111000
          319 -16 callgsubr
          hintmask 01111000
          19 -427 rmoveto
          249 callgsubr
          hintmask 01110100
          29 -5 27 -5 23 -91 callgsubr
          32 33 -2 -4 32 hvcurveto
          -1 -18 -2 -18 -2 -18 166 callsubr
          hintmask 10111000
          -51 -39 -12 -40 -101 callgsubr
          hintmask 01111000
          48 45 12 47 74 callgsubr
        </CharString>
        <CharString name="bn_b_ra_ukaar">
          107 -177 49 -37 49 281 49 191 47 116 374 callgsubr
          59 391 callsubr
          hintmask 1011111010000000
          319 -16 callgsubr
          hintmask 0111111110000000
          382 callsubr
          -22 126 -2 202 131 vvcurveto
          -51 29 42 -28 48 -93 callsubr
          -44 -43 34 63 -25 hvcurveto
          1 104 3 65 8 86 20 callsubr
          hintmask 1011111010000000
          -51 -39 -12 -40 -101 callgsubr
          hintmask 0111111010000000
          48 45 12 47 hhcurveto
          hintmask 0111111110000000
          45 callsubr
        </CharString>
        <CharString name="bn_b_ra_uukaar">
          107 -177 49 -37 49 684 374 callgsubr
          124 44 hintmask 10111100
          319 -16 callgsubr
          hintmask 01111100
          382 callsubr
          -23 136 -1 223 127 vvcurveto
          44 23 46 18 44 16 rrcurveto
          -7 -39 -97 callsubr
          -53 -17 -55 -20 -54 -24 rlinecurve
          1 94 3 62 8 82 20 callsubr
          hintmask 10111100
          -51 -39 -12 -40 -101 callgsubr
          hintmask 01111100
          48 45 12 47 74 callgsubr
        </CharString>
        <CharString name="bn_ba">
          342 callsubr
          -21 114 hintmask 11000000
          391 -4 116 callsubr
          105 5 65 16 88 vhcurveto
          hintmask 10100000
          26 -4 25 -5 21 -91 callgsubr
          34 36 -3 -4 34 hvcurveto
          -3 -17 -2 -16 -2 -17 -116 -55 -126 -92 -58 -72 2 -20 5 -18 20 -20 rrcurveto
          hintmask 11000000
          127 callsubr
          endchar
        </CharString>
        <CharString name="bn_ba.half">
          -72 callgsubr
          152 rmoveto
          -40 2 -29 2 -23 vhcurveto
          -58 78 -77 49 -81 25 61 48 96 50 66 24 rrcurveto
          -7 -56 -4 -59 -67 vvcurveto
          endchar
        </CharString>
        <CharString name="bn_ba_phala">
          -529 -249 273 hstem
          -33 50 vstem
          32 -242 118 callgsubr
          37 8 48 9 42 vhcurveto
          -48 16 -96 -30 -98 -33 -47 -38 rlinecurve
          71 callsubr
          175 callsubr
          -65 74 179 callsubr
          -60 26 -60 21 49 29 67 27 52 15 rrcurveto
          -7 -47 -3 -52 -40 vvcurveto
          endchar
        </CharString>
        <CharString name="bn_bh_la">
          -21 -91 56 167 55 -51 51 90 48 238 50 hstemhm
          0 508 -470 41 20 45 269 45 hintmask 1101101010000000
          258 563 rmoveto
          hintmask 1101110000000000
          94 111 -13 -15 45 hvcurveto
          -30 callsubr
          hintmask 1101101010000000
          318 callsubr
          -42 -654 237 callsubr
          -26 -38 23 hvcurveto
          24 -43 rlineto
          hintmask 1011101110000000
          -57 callgsubr
          36 29 -44 -173 14 vhcurveto
          16 21 1 6 15 hvcurveto
          14 118 10 142 169 320 callgsubr
          -34 callsubr
          -61 -9 -123 -10 -111 vhcurveto
          111 -17 -34 43 -45 320 callsubr
          hintmask 1101101010000000
          283 callgsubr
        </CharString>
        <CharString name="bn_bh_ra">
          -21 -33 52 -20 51 227 48 238 50 hstemhm
          0 508 -480 46 25 45 269 45 hintmask 10110011
          258 563 rmoveto
          hintmask 10111000
          94 111 -13 -15 45 hvcurveto
          -30 callsubr
          hintmask 10110011
          318 callsubr
          hintmask 01110011
          130 -645 368 callsubr
          142 169 320 callgsubr
          -34 callsubr
          -72 -8 -166 -15 -116 vhcurveto
          50 -20 -26 26 -45 hhcurveto
          hintmask 10110111
          27 callsubr
          hintmask 01110011
          53 72 32 46 hhcurveto
          52 135 callgsubr
        </CharString>
        <CharString name="bn_bh_ra_ukaar">
          197 -33 52 -20 51 115 49 63 48 80 47 116 50 hstemhm
          28 46 25 45 269 45 58 391 callsubr
          hintmask 1011110110100000
          347 568 rmoveto
          146 145 -13 -20 88 hvcurveto
          -86 callgsubr
          21 -86 -143 16 -149 hhcurveto
          -138 -131 -17 -20 -79 -67 callsubr
          17 81 130 16 136 hhcurveto
          hintmask 0111110111100000
          41 -650 70 callgsubr
          11 91 8 106 4 121 rrcurveto
          -50 28 42 -29 49 -93 callsubr
          -44 -43 33 62 -24 hvcurveto
          15 0 15 16 320 callgsubr
          -34 callsubr
          -72 -8 -166 -15 -116 vhcurveto
          50 -20 -26 26 -45 hhcurveto
          hintmask 1011111110100000
          27 callsubr
          hintmask 0111110110100000
          53 72 32 46 hhcurveto
          hintmask 0111110111100000
          52 135 callgsubr
        </CharString>
        <CharString name="bn_bh_ra_uukaar">
          197 -33 52 -20 51 227 48 243 50 hstemhm
          28 46 25 45 269 45 113 44 hintmask 10110111
          347 568 rmoveto
          146 145 -13 -20 88 hvcurveto
          -86 callgsubr
          21 -86 -143 16 -149 hhcurveto
          -138 -131 -17 -20 -79 -67 callsubr
          17 81 130 16 136 hhcurveto
          hintmask 01110111
          41 -650 368 callsubr
          142 169 3 0 2 2 vvcurveto
          42 21 41 19 40 16 rrcurveto
          -7 -39 -97 callsubr
          -53 -17 -56 -25 -54 -25 rlinecurve
          -8 17 -10 15 -11 12 -34 callsubr
          -72 -8 -166 -15 -116 vhcurveto
          50 -20 -26 26 -45 hhcurveto
          hintmask 10111111
          27 callsubr
          hintmask 01110111
          53 72 32 46 hhcurveto
          52 135 callgsubr
        </CharString>
        <CharString name="bn_bha">
          66 -17 55 226 48 250 50 hstem
          211 45 269 46 vstem
          297 562 rmoveto
          129 95 -13 -14 74 hvcurveto
          -54 callsubr
          14 74 94 13 130 hhcurveto
          76 -579 rmoveto
          122 76 86 137 61 -15 66 -22 50 hvcurveto
          -9 10 -14 10 -10 6 rrcurveto
          -63 -72 -50 -34 -55 hhcurveto
          -40 -28 20 36 38 30 30 62 16 hvcurveto
          -6 21 -14 17 -15 8 rrcurveto
          -49 -17 -53 -42 -63 vvcurveto
          -66 59 -46 69 61 52 37 46 53 vhcurveto
          12 -37 8 -44 -45 vvcurveto
          -123 -58 -60 -94 -127 -100 109 308 -84 vhcurveto
          -15 -7 -14 -8 -13 -10 rrcurveto
          -216 58 95 -231 200 hhcurveto
          endchar
        </CharString>
        <CharString name="bn_bha.half">
          66 140 48 163 39 172 50 hstem
          211 45 269 46 vstem
          297 562 rmoveto
          129 95 -13 -14 74 hvcurveto
          -54 callsubr
          14 74 94 13 130 hhcurveto
          76 -422 rmoveto
          122 76 65 103 45 -15 50 -22 37 hvcurveto
          -10 9 -16 8 -11 6 rrcurveto
          -47 -72 -50 -26 -55 hhcurveto
          -38 -26 14 25 29 30 22 62 12 hvcurveto
          -7 18 -17 13 -17 7 rrcurveto
          -46 -12 -50 -34 -49 vvcurveto
          -49 59 -35 69 61 52 28 34 53 vhcurveto
          12 -28 8 -33 -33 vvcurveto
          -88 -57 -43 -92 -128 -103 79 227 -83 vhcurveto
          -15 -5 -14 -6 -13 -7 rrcurveto
          -162 58 95 -174 200 hhcurveto
          endchar
        </CharString>
        <CharString name="bn_bisarga">
          -96 5 45 171 45 64 43 183 43 hstemhm
          85 46 -41 45 177 45 -40 46 hintmask 11111001
          129 callsubr
          hintmask 11110110
          226 -332 rmoveto
          72 -56 54 -74 -77 -60 -60 -76 -73 56 -52 72 78 61 60 75 vhcurveto
          -222 3 rmoveto
          48 31 30 50 58 38 -40 -54 -49 -31 -28 -49 -57 -40 38 55 vhcurveto
          endchar
        </CharString>
        <CharString name="bn_c_ca">
          190 -17 42 33 37 479 50 hstemhm
          64 44 214 48 -14 47 -3 45 183 51 hintmask 11111001
          230 callgsubr
          77 rrcurveto
          hintmask 11110011
          7 58 70 5 81 14 13 0 13 hhcurveto
          hintmask 11111001
          -7 -45 -13 -91 -10 -92 -6 38 -24 21 -39 16 rrcurveto
          hintmask 11110011
          378 -135 rmoveto
          59 -25 29 -48 22 vhcurveto
          -64 29 -67 46 -30 93 rrcurveto
          3 0 2 1 3 vhcurveto
          121 -6 86 -17 66 -14 rrcurveto
          -89 callsubr
          19 -72 -118 24 -170 hhcurveto
          -170 -116 -23 -20 -73 -106 callgsubr
          28 6 33 7 40 7 rrcurveto
          -12 -82 -25 -168 -96 vvcurveto
          -125 61 -26 49 vhcurveto
          hintmask 11110101
          83 75 82 102 28 hvcurveto
          -3 -32 -1 -30 -25 vvcurveto
          -143 65 -29 51 vhcurveto
          hintmask 11110011
          373 callgsubr
          hvcurveto
          hintmask 11111001
          -513 -191 27 callgsubr
          hintmask 11110101
          298 -70 77 callgsubr
          endchar
        </CharString>
        <CharString name="bn_c_ch_ba">
          238 callgsubr
          -19 50 37 48 hintmask 1011110011000000
          230 callgsubr
          76 rrcurveto
          hintmask 1011101000000000
          63 7 75 5 89 1 rrcurveto
          hintmask 1011110011000000
          242 callgsubr
          hintmask 1011110101000000
          143 -139 196 callgsubr
          -278 -187 27 callgsubr
          hintmask 0111110011000000
          416 -248 57 callgsubr
          -67 15 -55 26 -41 62 rrcurveto
          hintmask 1011101000000000
          138 -3 95 -21 70 -34 callgsubr
          hintmask 0111110101000000
          77 63 75 97 6 hvcurveto
          28 callsubr
          50 -23 48 -27 45 -32 rlinecurve
          -81 -27 -77 -32 -40 -32 275 callgsubr
          hintmask 1011110011000000
          84 -18 78 -28 47 -69 rrcurveto
          hintmask 0111110011000000
          332 callsubr
        </CharString>
        <CharString name="bn_c_ch_ra">
          201 -192 49 -31 49 183 37 7 53 86 41 292 50 hstemhm
          64 44 121 47 85 49 -32 352 -181 52 -3 46 25 48 hintmask 0110111110010000
          230 callgsubr
          76 rrcurveto
          hintmask 0110111101000000
          63 7 75 5 89 1 rrcurveto
          hintmask 0110111110010000
          242 callgsubr
          hintmask 0110111110100000
          143 -139 212 callsubr
          66 hvcurveto
          30 -51 39 -33 59 -15 rrcurveto
          1 151 callgsubr
          -278 -187 27 callgsubr
          hintmask 0101111110010000
          426 -329 10 callsubr
          4 58 1 61 3 66 32 -29 32 -33 32 -36 100 callgsubr
          hintmask 0101111110011000
          254 callsubr
          -66 15 -55 26 -42 62 rrcurveto
          hintmask 0110111101000000
          138 -3 96 -21 69 -34 callgsubr
          hintmask 0101111110101000
          77 63 75 97 6 hvcurveto
          28 callsubr
          rlineto
          hintmask 0110111110010000
          64 -29 61 -37 58 -46 -3 -64 0 -61 -4 -54 rrcurveto
          37 -26 -33 18 -49 hhcurveto
          hintmask 1010111110010000
          -54 -50 -18 -42 -51 callgsubr
          hintmask 0110111110010000
          49 58 18 49 hhcurveto
          hintmask 0101111110010000
          62 21 -35 -25 22 hvcurveto
          endchar
        </CharString>
        <CharString name="bn_c_cha">
          238 callgsubr
          68 48 hintmask 1011110110000000
          230 callgsubr
          76 rrcurveto
          hintmask 1011101000000000
          63 7 75 5 89 1 rrcurveto
          hintmask 1011110110000000
          242 callgsubr
          475 -521 rmoveto
          hintmask 0111110110000000
          -80 83 -82 68 -85 51 rrcurveto
          254 callsubr
          -66 15 -55 26 -42 62 rrcurveto
          hintmask 1011101000000000
          138 -3 96 -21 69 -34 callgsubr
          hintmask 0111110110000000
          77 63 75 97 6 hvcurveto
          28 callsubr
          343 callgsubr
          rlinecurve
          hintmask 1011110110000000
          14 12 12 12 10 14 rrcurveto
          -332 382 212 callsubr
          66 hvcurveto
          30 -51 39 -33 59 -15 rrcurveto
          1 151 callgsubr
          -278 -187 27 callgsubr
          endchar
        </CharString>
        <CharString name="bn_c_nya">
          268 -199 53 -12 53 -15 50 69 44 5 50 23 37 56 42 -18 49 65 42 180 50 hstemhm
          25 49 -26 49 59 56 47 51 146 47 44 257 callsubr
          hintmask 001101101101111101000000
          141 256 rmoveto
          -29 -15 16 47 49 11 95 12 77 hvcurveto
          20 -37 38 -28 37 -15 rrcurveto
          31 -13 13 -9 -25 vvcurveto
          -79 -60 -78 -58 vhcurveto
          510 -326 rmoveto
          -50 -60 33 64 -43 hvcurveto
          hintmask 001101011101111110000000
          2 38 1 39 1 41 rrcurveto
          64 43 54 29 51 -27 callgsubr
          hintmask 001101011101111101000000
          92 callsubr
          hintmask 001101101101111101000000
          324 callsubr
          hintmask 010101011101111110000000
          -18 callsubr
          -189 -293 rmoveto
          15 17 235 callsubr
          hintmask 001101011101111101000000
          236 callsubr
          hintmask 001101011101111110000000
          19 29 238 callsubr
          -24 -26 -8 -14 -26 vhcurveto
          2 12 1 13 12 vvcurveto
          41 -16 23 -33 12 vhcurveto
          -38 15 -40 22 -25 39 rrcurveto
          8 72 87 5 103 hhcurveto
          175 118 -21 -18 84 hvcurveto
          -89 callsubr
          20 -76 -123 23 -179 hhcurveto
          -198 -136 -20 -23 -85 -106 callgsubr
          21 5 24 5 28 4 rrcurveto
          -11 -60 -14 -97 -58 vvcurveto
          hintmask 010011101101111110000000
          -99 53 -21 42 8 9 1 1 8 vhcurveto
          -8 -20 -4 -21 -21 vvcurveto
          -64 callsubr
          hintmask 101101011110111110000000
          -9 callsubr
          hintmask 010101011101111110000000
          167 callsubr
          endchar
        </CharString>
        <CharString name="bn_c_ra">
          -103 -192 49 -31 49 108 42 534 50 hstemhm
          -31 47 -16 426 -359 47 198 34 -7 51 hintmask 0111101010000000
          175 25 77 callgsubr
          hintmask 0111101100000000
          127 -259 10 callsubr
          8 113 3 122 6 133 rrcurveto
          hintmask 0111101010000000
          17 44 10 49 50 vvcurveto
          59 -25 29 -48 22 vhcurveto
          -62 28 -66 44 -31 89 rrcurveto
          1 21 21 1 19 hhcurveto
          hintmask 0111010000000000
          37 callgsubr
          hintmask 0111101100000000
          260 callgsubr
          48 45 28 44 36 vhcurveto
          -3 -84 -3 -79 -5 -71 rrcurveto
          36 -24 -29 18 -45 hhcurveto
          hintmask 1011101010000000
          -47 -43 -18 -36 -51 callgsubr
          hintmask 0111101010000000
          43 50 18 43 hhcurveto
          hintmask 0111101100000000
          56 16 -35 -25 23 hvcurveto
          endchar
        </CharString>
        <CharString name="bn_ca">
          -103 -17 42 534 307 callsubr
          286 rmoveto
          59 -25 29 -48 22 vhcurveto
          -62 28 -66 44 -31 89 rrcurveto
          1 21 21 1 19 hhcurveto
          hintmask 11100000
          37 callgsubr
          hintmask 11011000
          260 callgsubr
          373 callgsubr
          vhcurveto
          -215 -261 77 callgsubr
          endchar
        </CharString>
        <CharString name="bn_ca.half">
          -103 138 36 385 307 callsubr
          365 rmoveto
          44 -25 22 -48 17 vhcurveto
          -59 20 -61 30 -33 59 rrcurveto
          1 19 19 1 17 hhcurveto
          hintmask 11100000
          37 callgsubr
          hintmask 11011000
          28 7 38 6 39 4 rrcurveto
          -14 -72 -24 -135 -78 vvcurveto
          -107 65 -22 51 111 96 112 115 vhcurveto
          -215 -191 rmoveto
          -40 -21 19 55 61 14 119 18 96 hvcurveto
          27 -49 53 -37 51 -19 rrcurveto
          44 -17 18 -10 -32 vvcurveto
          -93 -83 -93 -81 vhcurveto
          endchar
        </CharString>
        <CharString name="bn_ch_ba">
          -49 102 53 86 41 281 50 hstemhm
          73 50 139 52 -19 50 37 48 hintmask 11111010
          157 184 callsubr
          hintmask 11110110
          138 -435 57 callgsubr
          -61 14 -51 22 -40 52 rrcurveto
          2 32 33 2 30 -13 callgsubr
          23 6 31 6 34 4 rrcurveto
          -8 -64 -7 -75 -89 vvcurveto
          -51 46 -31 49 vhcurveto
          hintmask 11111010
          77 63 75 97 6 hvcurveto
          28 callsubr
          50 -23 48 -27 45 -32 rlinecurve
          -81 -27 -77 -32 -40 -32 275 callgsubr
          hintmask 11110110
          175 callsubr
          endchar
        </CharString>
        <CharString name="bn_ch_ra">
          -49 377 callsubr
          208 53 86 41 281 50 hstemhm
          -17 47 42 50 139 52 -3 46 25 48 hintmask 0111111100000000
          156 184 callsubr
          hintmask 0111111010000000
          148 -516 10 callsubr
          4 58 1 61 3 66 32 -29 32 -33 32 -36 100 callgsubr
          hintmask 0111111101000000
          254 callsubr
          -61 14 -51 22 -40 51 rrcurveto
          3 33 33 2 30 -13 callgsubr
          22 6 31 6 34 4 rrcurveto
          -8 -64 -7 -75 -89 vvcurveto
          -51 46 -31 49 77 63 75 97 6 vhcurveto
          28 callsubr
          rlineto
          hintmask 0111111010000000
          65 -29 60 -37 58 -46 -2 -64 -2 -61 -1 -54 rrcurveto
          48 -27 -26 26 -47 hhcurveto
          hintmask 1011111010000000
          -43 -38 -11 -33 -51 callgsubr
          hintmask 0111111010000000
          186 callsubr
        </CharString>
        <CharString name="bn_cha">
          -49 102 53 86 41 281 50 hstem
          73 50 139 52 68 48 vstem
          157 282 rmoveto
          -22 -12 11 22 66 3 74 5 61 hvcurveto
          28 -42 43 -24 59 -14 rrcurveto
          1 151 callgsubr
          296 -420 rmoveto
          100 callgsubr
          254 callsubr
          -67 15 -61 18 -39 53 rrcurveto
          4 37 38 2 35 -13 callgsubr
          23 6 30 6 34 4 rrcurveto
          -8 -62 -6 -76 -90 vvcurveto
          -51 46 -31 49 77 63 75 97 6 vhcurveto
          28 callsubr
          343 callgsubr
          rlinecurve
          endchar
        </CharString>
        <CharString name="bn_cha.half">
          -49 222 43 56 36 206 50 hstem
          73 50 139 51 69 48 vstem
          157 357 rmoveto
          -22 -12 8 17 48 3 54 5 44 hvcurveto
          28 -33 43 -22 60 -11 rrcurveto
          -4 vlineto
          -53 -52 -48 -53 vhcurveto
          296 -307 rmoveto
          14 9 12 9 10 9 -76 59 -76 49 -79 37 rrcurveto
          97 7 75 38 78 vvcurveto
          67 -61 54 -66 30 vhcurveto
          -66 10 -61 13 -39 38 rrcurveto
          4 37 38 2 34 -13 callgsubr
          22 6 31 6 34 4 rrcurveto
          -8 -45 -6 -54 -65 vvcurveto
          -42 46 -24 48 76 61 54 71 9 vhcurveto
          41 -25 28 -31 -38 vvcurveto
          -59 -62 -28 -75 -37 -44 5 13 -51 vhcurveto
          15 -51 119 -40 105 -57 101 -85 rlinecurve
          endchar
        </CharString>
        <CharString name="bn_chandrabindu">
          -529 665 48 75 83 hstem
          -35 81 vstem
          46 827 rmoveto
          24 -18 20 -23 -22 -18 -17 -22 -24 17 -20 24 24 16 17 22 vhcurveto
          98 -22 rmoveto
          -32 11 rlineto
          -59 -14 -39 -44 -53 hhcurveto
          -48 -34 35 40 -11 hvcurveto
          -45 -18 rlineto
          -56 11 50 -49 71 hhcurveto
          75 56 60 80 13 hvcurveto
          endchar
        </CharString>
        <CharString name="bn_currency1">
          -17 -14 580 hstem
          64 428 252 callgsubr
          -68 -226 -135 -174 -182 -125 rrcurveto
          endchar
        </CharString>
        <CharString name="bn_currency16">
          21 172 47 317 48 hstem
          72 38 287 40 vstem
          437 408 rmoveto
          106 -56 70 -109 -135 -65 -130 -105 -106 56 -71 109 135 65 130 106 vhcurveto
          -327 -57 rmoveto
          105 63 80 97 70 57 -37 -94 -105 -61 -81 -99 -68 -59 38 94 vhcurveto
          endchar
        </CharString>
        <CharString name="bn_currency2">
          -17 200 266 callgsubr
          hstem
          19 42 172 43 252 callgsubr
          -39 -129 -61 -113 -79 -96 rrcurveto
          4 17 2 15 15 vvcurveto
          98 -65 53 -76 265 callsubr
          5 callgsubr
          46 51 -39 -68 -50 -27 -60 -67 -60 hvcurveto
          -24 -20 -25 -18 -26 -18 rrcurveto
          0 vmoveto
          3 2 rlineto
          -3 -2 0 0 0 vvcurveto
          endchar
        </CharString>
        <CharString name="bn_currency3">
          -17 -16 45 413 42 hstemhm
          35 52 0 53 153 53 hintmask 11011000
          212 442 rmoveto
          50 31 -33 -43 hvcurveto
          hintmask 11101000
          -155 -258 37 -146 vvcurveto
          -64 46 -54 113 194 89 240 326 75 vhcurveto
          -14 7 -15 6 -14 3 rrcurveto
          -323 -74 -96 -214 -150 hhcurveto
          -52 -50 21 49 hvcurveto
          100 259 -18 186 vvcurveto
          68 -62 49 -76 vhcurveto
          hintmask 11011000
          -75 -46 -51 -71 -22 4 -15 5 -5 hvcurveto
          -3 14 24 -3 18 hhcurveto
          -7 10 -5 21 24 vvcurveto
          47 22 26 50 vhcurveto
          endchar
        </CharString>
        <CharString name="bn_currency4">
          -274 -81 676 hstem
          65 44 vstem
          138 -81 rmoveto
          52 callgsubr
          -43 3 -40 1 -37 vhcurveto
          endchar
        </CharString>
        <CharString name="bn_currencyless">
          -60 -16 630 hstem
          354 callsubr
          vstem
          356 -16 rmoveto
          149 callsubr
          vvcurveto
          28 0 29 -2 25 vhcurveto
          -34 -6 -2 -142 -22 -173 -44 -148 rlinecurve
          31 callgsubr
          -15 -60 -10 -75 -79 vvcurveto
          258 callgsubr
          endchar
        </CharString>
        <CharString name="bn_d_ba">
          -18 461 42 59 50 hstemhm
          0 511 -391 39 238 43 hintmask 11011000
          440 352 rmoveto
          107 -46 44 -54 -63 -79 -67 -86 -66 vhcurveto
          18 66 9 74 61 2 0 2 2 vvcurveto
          3 37 40 2 38 hhcurveto
          hintmask 11100000
          103 87 -13 -14 47 hvcurveto
          2 5 3 10 0 12 0 7 -2 8 4 flex1
          17 -44 -89 14 -100 hhcurveto
          -103 -113 -14 -17 -62 hvcurveto
          -3 -6 -70 callgsubr
          -11 2 -8 -6 flex1
          hintmask 11011000
          31 7 42 7 47 5 -5 -100 -28 -115 -44 -100 12 -16 19 -14 18 -4 rrcurveto
          115 66 124 141 71 hhcurveto
          29 15 -23 -40 -28 -1 -26 -1 -25 hvcurveto
          -96 -39 -128 -80 -55 -54 88 callsubr
          83 -27 65 -58 41 -107 rrcurveto
          -4 14 20 -4 20 hhcurveto
          36 100 18 228 134 vvcurveto
          -94 -410 rmoveto
          -35 92 -66 59 347 callsubr
          -105 -25 -90 rrcurveto
          endchar
        </CharString>
        <CharString name="bn_d_bh_ra">
          66 -216 52 -15 51 102 40 548 50 hstemhm
          75 46 90 45 -27 35 147 48 hintmask 01111011
          525 -250 rmoveto
          193 callsubr
          -15 108 -3 115 -23 82 -22 callsubr
          hintmask 01111101
          -18 -35 -31 -10 -32 hhcurveto
          -40 -28 16 30 32 30 25 62 13 hvcurveto
          -6 18 -14 14 -15 6 rrcurveto
          -49 -14 -53 -35 -52 vvcurveto
          -55 59 -38 69 57 48 26 35 50 vhcurveto
          12 -83 7 -58 7 -78 rrcurveto
          39 -26 -40 17 -57 hhcurveto
          hintmask 10111011
          -65 -87 -36 -60 -96 callsubr
          hintmask 01111011
          142 callgsubr
        </CharString>
        <CharString name="bn_d_bha">
          388 callgsubr
          hstemhm
          211 45 -27 35 147 48 66 46 hintmask 11101110
          373 -260 rmoveto
          122 76 72 113 51 -15 55 -22 42 hvcurveto
          -22 callsubr
          hintmask 11110110
          -18 -35 -31 -10 -32 86 callgsubr
          hintmask 11101110
          370 callsubr
        </CharString>
        <CharString name="bn_d_d_ba">
          101 568 50 hstem
          115 37 104 54 184 48 vstem
          584 -232 rmoveto
          -26 104 -16 97 93 vvcurveto
          80 16 75 31 68 146 callsubr
          -75 -46 -93 -43 -67 -81 10 105 34 103 39 77 23 callgsubr
          107 98 69 -37 -79 -36 -109 -1 -123 10 -18 20 -16 16 -5 41 76 99 67 89 54 rrcurveto
          -16 -45 -12 -53 -6 -56 -80 -43 -81 -60 -47 -42 2 -19 5 -17 18 -18 88 -15 73 -49 59 -92 188 callgsubr
          -90 268 rmoveto
          -71 9 -73 14 -71 vhcurveto
          -46 61 -62 38 -64 21 43 36 60 44 46 29 rrcurveto
          -5 0 -4 -5 vvcurveto
          endchar
        </CharString>
        <CharString name="bn_d_da">
          101 568 50 hstem
          115 37 84 54 204 48 vstem
          567 -135 rmoveto
          -17 69 -8 66 62 vvcurveto
          80 16 75 31 68 146 callsubr
          -87 -54 -90 -79 -78 -114 11 134 43 131 49 97 23 callgsubr
          106 97 70 -46 -98 -45 -138 -2 -155 10 -18 20 -16 16 -5 53 99 97 109 98 68 rrcurveto
          -22 -63 -14 -77 -82 vvcurveto
          -63 7 -65 16 -61 389 callsubr
        </CharString>
        <CharString name="bn_d_dh_ba">
          77 469 42 57 50 hstemhm
          122 39 202 44 -20 44 76 44 hintmask 11110100
          434 -212 rmoveto
          -22 58 -5 95 66 vvcurveto
          115 6 77 12 100 vhcurveto
          31 15 32 14 30 12 rrcurveto
          -8 -57 -3 -57 -56 vvcurveto
          -90 9 -87 18 -77 vhcurveto
          18 23 4 10 13 hvcurveto
          -26 83 -11 87 86 vvcurveto
          57 5 58 9 56 vhcurveto
          -26 43 rlineto
          hintmask 11101100
          -35 -11 -37 -15 -36 -16 rrcurveto
          2 vlineto
          107 -44 44 -52 -62 -73 -63 -81 -64 vhcurveto
          17 59 8 64 71 vvcurveto
          5 42 47 2 52 hhcurveto
          127 101 -14 -19 76 hvcurveto
          -86 callgsubr
          20 -74 -100 17 -129 hhcurveto
          -130 -99 -17 -20 -74 hvcurveto
          -3 -5 -2 -10 0 -7 0 -9 2 -10 -5 flex1
          36 8 40 8 46 6 -5 -97 -29 -113 -47 -99 12 -16 19 -14 17 -4 rrcurveto
          114 66 122 141 71 hhcurveto
          26 13 -23 -40 -26 -1 -21 -1 -17 hvcurveto
          -93 -44 -121 -82 -53 -52 rrcurveto
          -18 8 -22 18 -16 vhcurveto
          35 -11 33 -15 26 -23 -40 -25 -34 -26 -25 -22 2 -19 5 -17 18 -18 rrcurveto
          hintmask 11110100
          88 -15 73 -49 59 -92 rrcurveto
          18 19 4 8 13 hvcurveto
          -167 290 rmoveto
          -25 29 -31 23 -36 17 57 47 90 59 61 33 -6 -51 -4 -48 -4 -51 -34 -18 -35 -20 -33 -20 rrcurveto
          96 -59 rmoveto
          -67 2 -60 6 -50 vhcurveto
          -47 63 -63 40 -66 22 49 40 71 46 51 28 rrcurveto
          -2 -19 -1 -21 -22 vvcurveto
          endchar
        </CharString>
        <CharString name="bn_d_dha">
          77 461 42 65 50 hstemhm
          120 39 224 47 -43 44 76 44 hintmask 11101100
          507 155 rmoveto
          56 callsubr
          -35 -11 -37 -14 -36 -16 rlinecurve
          5 0 4 5 vvcurveto
          107 -44 44 -52 -62 -76 -66 -84 -64 vhcurveto
          17 66 9 74 68 vvcurveto
          4 43 47 3 53 hhcurveto
          127 101 -14 -19 76 hvcurveto
          -86 callgsubr
          20 -74 -100 17 -129 hhcurveto
          -130 -99 -17 -20 -74 hvcurveto
          -3 -5 -2 -10 0 -7 0 -9 2 -10 -5 flex1
          35 8 40 8 45 6 -5 -100 -27 -116 -45 -102 11 -16 20 -14 17 -4 rrcurveto
          115 65 122 141 70 hhcurveto
          26 13 -23 -40 -28 0 -26 -2 -25 hvcurveto
          -93 -43 -121 -80 -53 -51 78 callgsubr
          hintmask 11110100
          233 callgsubr
          31 85 18 174 5 137 30 14 29 13 29 11 rrcurveto
          hintmask 11101100
          -8 -56 -3 -56 -54 vvcurveto
          hintmask 11110100
          -171 -217 rmoveto
          -32 95 -60 60 -70 35 57 46 90 57 62 33 -6 -130 -15 -105 -26 -91 rrcurveto
          endchar
        </CharString>
        <CharString name="bn_d_ga">
          328 424 47 87 55 -51 50 hstemhm
          354 callsubr
          57 306 callsubr
          81 39 hintmask 10111111
          737 -16 rmoveto
          21 callgsubr
          hintmask 11011111
          91 -30 -57 59 -80 hhcurveto
          -50 -40 -20 -31 -26 hvcurveto
          hintmask 10111111
          7 -1 7 -2 5 vhcurveto
          17 -44 -94 14 -86 hhcurveto
          -90 -98 -14 -17 -57 150 callsubr
          -11 -6 flex1
          31 7 40 7 44 6 -4 -129 -25 -150 -39 -131 73 callgsubr
          9 0 9 8 274 callsubr
          82 84 -11 -12 50 hvcurveto
          -12 -22 -6 -25 -26 vvcurveto
          189 callgsubr
          vhcurveto
          27 -30 rlineto
          27 37 43 15 32 hhcurveto
          32 18 -15 -29 -45 -59 -66 -71 -66 hvcurveto
          11 -17 18 -17 19 -9 rrcurveto
          45 49 77 89 75 vvcurveto
          17 callgsubr
          hintmask 11011111
          141 callgsubr
          hintmask 10111111
          -5 15 17 -3 21 hhcurveto
          endchar
        </CharString>
        <CharString name="bn_d_gha">
          328 332 37 199 50 hstem
          354 callsubr
          48 49 245 49 vstem
          652 229 callsubr
          124 callgsubr
          41 29 44 87 37 hvcurveto
          53 -2 50 -4 46 -5 rrcurveto
          -15 -112 -5 -107 199 callgsubr
          276 -255 rmoveto
          314 callgsubr
          4 64 15 86 vhcurveto
          24 -4 22 -4 20 -4 rrcurveto
          -86 callgsubr
          24 -99 -167 13 -173 hhcurveto
          -166 -158 -14 -23 -94 -67 callsubr
          32 7 39 6 44 5 -4 -128 -26 -150 -38 -130 73 callgsubr
          8 0 9 8 vvcurveto
          7 80 92 4 94 hhcurveto
          29 29 0 -1 28 hvcurveto
          -50 -37 -24 -37 -50 vvcurveto
          -69 48 -38 66 -4 vhcurveto
          2 hlineto
          -92 -69 1 -19 6 -18 21 -18 rlinecurve
          105 -23 87 -69 71 -132 rrcurveto
          19 20 2 8 13 hvcurveto
          endchar
        </CharString>
        <CharString name="bn_d_ma">
          193 276 callsubr
          465 50 hstemhm
          71 40 4 37 302 49 hintmask 11101100
          393 443 rmoveto
          67 callsubr
          -77 -48 -81 -69 -74 -92 rrcurveto
          23 91 12 106 58 vvcurveto
          30 vlineto
          7 58 68 5 82 hhcurveto
          42 38 -1 -3 35 hvcurveto
          -14 -106 -7 -130 389 callgsubr
          -50 78 -89 59 -54 31 15 114 37 171 52 104 rrcurveto
          109 -653 -37 callsubr
          152 3 40 11 93 vhcurveto
          86 -8 66 -13 53 -11 rrcurveto
          -89 callsubr
          20 -72 -120 23 -171 hhcurveto
          -170 -109 -22 -21 -80 -106 callgsubr
          33 7 37 8 45 7 -5 -119 -28 -134 -46 -125 10 -18 19 -15 16 -5 53 95 99 107 97 69 -38 -87 -34 -129 -16 -115 rrcurveto
          hintmask 11110100
          19 -18 -30 9 -31 52 callsubr
          hintmask 11101100
          153 callsubr
          hintmask 11110100
          -6 callgsubr
        </CharString>
        <CharString name="bn_d_na">
          13 -151 266 callgsubr
          487 50 hstemhm
          156 42 -9 35 180 48 hintmask 11101100
          445 -152 283 callsubr
          -27 115 -16 112 104 38 callsubr
          48 11 68 10 73 4 -4 -130 -26 -152 -39 -133 31 callgsubr
          -16 -63 -11 -79 -84 vvcurveto
          -60 5 -61 8 -61 vhcurveto
          53 -39 -54 33 -52 hhcurveto
          hintmask 11110100
          -90 callgsubr
          77 67 -73 -85 24 hvcurveto
          hintmask 11101100
          1 -6 2 -5 1 -6 rrcurveto
          endchar
        </CharString>
        <CharString name="bn_d_ra">
          13 -46 52 -15 51 520 295 callgsubr
          hintmask 01111100
          435 -80 rmoveto
          18 4 16 6 16 8 rrcurveto
          -21 90 -12 88 81 38 callsubr
          47 11 69 10 73 4 -4 -130 -26 -152 -39 -133 31 callgsubr
          -16 -63 -11 -79 -84 vvcurveto
          -56 5 -58 9 -57 vhcurveto
          29 -25 -37 13 -49 hhcurveto
          hintmask 10111100
          -65 -87 -36 -60 -96 callsubr
          hintmask 01111100
          142 callgsubr
        </CharString>
        <CharString name="bn_d_ra_ukaar">
          209 -46 52 -15 51 123 49 191 47 116 295 callgsubr
          76 391 callsubr
          hintmask 0111111111000000
          289 callgsubr
          25 1 25 2 24 vhcurveto
          -67 29 47 -39 57 -93 callsubr
          -48 -47 40 74 -23 hvcurveto
          6 33 7 31 10 30 40 callsubr
          11 0 10 10 vvcurveto
          3 20 callgsubr
          hintmask 1011111111000000
          -65 -87 -36 -60 -96 callsubr
          hintmask 0111111111000000
          142 callgsubr
        </CharString>
        <CharString name="bn_d_ra_uukaar">
          210 -46 52 -15 51 526 295 callgsubr
          138 44 hintmask 01111110
          289 callgsubr
          33 2 32 4 31 vhcurveto
          47 24 48 22 47 19 rrcurveto
          -7 -39 -97 callsubr
          -52 -17 -55 -24 -53 -24 rlinecurve
          5 23 6 23 7 22 40 callsubr
          11 0 10 11 vvcurveto
          2 20 callgsubr
          hintmask 10111110
          -65 -87 -36 -60 -96 callsubr
          hintmask 01111110
          142 callgsubr
        </CharString>
        <CharString name="bn_da">
          -60 562 50 hstem
          354 callsubr
          vstem
          406 2 rmoveto
          -17 72 -8 70 65 vvcurveto
          76 11 72 21 65 vhcurveto
          -45 callsubr
          31 callgsubr
          -15 -60 -10 -75 -79 vvcurveto
          -66 7 -69 16 -64 389 callsubr
        </CharString>
        <CharString name="bn_da.half">
          -60 562 50 hstemhm
          0 469 -354 36 182 48 hintmask 10110000
          406 155 rmoveto
          -17 54 -8 52 49 vvcurveto
          57 11 54 21 49 vhcurveto
          -11 14 -13 10 -20 8 -83 -39 -89 -57 -79 -79 rrcurveto
          22 70 11 86 69 2 0 2 2 274 callsubr
          hintmask 11000000
          90 92 -13 -14 47 hvcurveto
          2 6 1 71 callgsubr
          17 -44 -94 14 -86 hhcurveto
          -90 -98 -14 -17 -57 150 callsubr
          -11 -6 flex1
          hintmask 10110000
          30 7 41 7 44 5 -7 -93 -24 -106 -37 -93 11 -9 23 -8 17 -2 57 74 103 82 100 52 rrcurveto
          -15 -45 -10 -56 -60 vvcurveto
          -49 7 -52 16 -48 vhcurveto
          18 3 16 5 16 6 rrcurveto
          endchar
        </CharString>
        <CharString name="bn_da_ukaar">
          -60 -256 47 99 49 623 50 hstemhm
          47 46 22 36 164.43 47.04 hintmask 11101100
          411 -282 rmoveto
          166 callgsubr
          -130 92 rcurveline
          73 154 -33 284 64 135 -45 callsubr
          12 -14 22 -8 17 -3 56 96 100 108 99 69 -47 -134 23 -255 -63 -131 rrcurveto
          hintmask 11111100
          35 -32 -40 31 -50 315 callsubr
          64 44 26 42 30 hvcurveto
          -138 -21 314 callsubr
          41 32 -27 -27 22 hvcurveto
          -28 -23 -30 -17 -42 hhcurveto
          endchar
        </CharString>
        <CharString name="bn_da_uukaar">
          -60 -256 47 179 49 543 50 hstem
          27 46 42 36 vstem
          439 -243 rmoveto
          -168 119 rlineto
          -52 -29 -36 -33 -47 hhcurveto
          -52 -34 36 53 56 48 34 68 61 47 -31 -35 26 hvcurveto
          45 160 -11 238 56 120 -45 callsubr
          12 -14 22 -8 17 -3 56 96 100 108 99 69 -35 -103 5 -174 -23 -135 rrcurveto
          26 -31 -34 12 -51 hhcurveto
          -86 -71 -50 -91 -87 57 -47 75 61 41 25 41 29 hvcurveto
          121 -92 166 callgsubr
          rlinecurve
          endchar
        </CharString>
        <CharString name="bn_danda">
          57 -99 694 hstem
          396 44 vstem
          469 -81 rmoveto
          52 callgsubr
          -58 7 -54 2 -50 vhcurveto
          20 22 9 9 22 hvcurveto
          endchar
        </CharString>
        <CharString name="bn_dd_dda">
          458 -17 300 callgsubr
          262 54 hstem
          222 45 222 45 119 45 222 46 vstem
          783 38 rmoveto
          -102 -85 64 176 -67 hvcurveto
          -8 46 -14 41 -17 34 87 callsubr
          54 22 69 19 71 hvcurveto
          59 2 64 2 69 67 64 -2 58 hflex1
          -17 -64 -19 -71 -52 298 callgsubr
          224 callgsubr
          vhcurveto
          89 callsubr
          -50 -63 -87 vhcurveto
          -55 vmoveto
          195 callgsubr
          53 21 69 20 69 hvcurveto
          96 -6 82 -8 70 -10 79 callgsubr
          -119 -161 16 -206 hhcurveto
          -218 -160 -15 -20 -123 -26 callgsubr
          74 9 84 9 99 6 rrcurveto
          -17 -63 -18 -70 -51 298 callgsubr
          224 callgsubr
          vhcurveto
          89 callsubr
          -50 -63 -87 -126 -91 109 308 -83 vhcurveto
          -15 -7 -14 -8 -13 -10 rrcurveto
          -223 59 86 -224 197 hhcurveto
          108 66 77 119 8 hvcurveto
          -113 54 76 -83 119 hhcurveto
          endchar
        </CharString>
        <CharString name="bn_dd_ra">
          27 -182 49 -22 49 89 300 callgsubr
          266 50 hstemhm
          -1 47 176 45 130 39 53 46 hintmask 0111111110000000
          392 -214 10 callsubr
          4 66 2 70 3 76 rrcurveto
          58 35 32 70 91 vvcurveto
          74 -19 70 -26 52 vhcurveto
          -73 callgsubr
          16 15 2 3 14 hvcurveto
          -2 -53 -1 -50 -3 -45 147 callgsubr
          hintmask 1011111110000000
          -62 -59 -27 -49 -101 callgsubr
          hintmask 0111111110000000
          49 callsubr
        </CharString>
        <CharString name="bn_dda">
          27 -17 300 callgsubr
          266 50 hstem
          222 45 222 46 vstem
          352 -17 rmoveto
          115 68 88 132 74 -19 70 -26 52 hvcurveto
          -73 callgsubr
          endchar
        </CharString>
        <CharString name="bn_dda.half">
          27 141 45 148 45 187 50 hstem
          222 45 222 46 vstem
          -25 callsubr
          endchar
        </CharString>
        <CharString name="bn_ddh_ra">
          -61 377 callsubr
          89 246 callgsubr
          hstemhm
          -17 47 53 47 180 38 28 55 hintmask 0111111100000000
          304 -234 10 callsubr
          6 92 1 100 5 109 rrcurveto
          hintmask 0111111110000000
          41 50 30 64 61 vvcurveto
          -68 callsubr
          vhcurveto
          hintmask 0111111100000000
          34 39 17 28 35 hvcurveto
          334 callgsubr
          hintmask 1011111100000000
          -43 -38 -11 -33 -51 callgsubr
          hintmask 0111111100000000
          186 callsubr
        </CharString>
        <CharString name="bn_ddha">
          -61 -17 246 callgsubr
          hstem
          83 47 246 55 vstem
          431 251 rmoveto
          -68 callsubr
          133 callsubr
          vhcurveto
          endchar
        </CharString>
        <CharString name="bn_ddha.half">
          -61 138 41 212 38 133 50 hstem
          83 49 244 55 vstem
          -11 callgsubr
          endchar
        </CharString>
        <CharString name="bn_dh_ba">
          262 378 33 150 50 hstemhm
          32 51 246 47 275 47 -21 114 hintmask 01111000
          725 -4 116 callsubr
          105 5 65 16 88 vhcurveto
          hintmask 11110100
          26 -4 25 -5 21 247 callsubr
          9 0 11 134 callsubr
          16 -55 -72 14 -87 hhcurveto
          -100 -73 -30 -30 -30 hvcurveto
          -17 -17 -8 -20 -3 -23 rrcurveto
          -2 -1 -3 -2 vvcurveto
          292 callsubr
          46 23 26 35 36 26 -27 -36 3 hvcurveto
          -42 callsubr
          106 -25 89 -80 71 -153 rrcurveto
          20 20 3 9 14 hvcurveto
          -14 71 -4 109 -1 81 4 -10 7 -10 10 -10 rrcurveto
          hintmask 01111000
          -49 callsubr
          -341 473 rmoveto
          2 26 5 22 20 14 rrcurveto
          hintmask 01110100
          17 24 30 13 108 hhcurveto
          34 36 -3 -4 34 hvcurveto
          -3 -17 -2 -16 -2 -17 -113 -53 -121 -88 -60 -71 rrcurveto
          hintmask 01111000
          69 4 55 4 53 vhcurveto
          267 -270 -33 callsubr
          69 33 rrcurveto
          -7 -75 -4 -77 -90 vvcurveto
          -322 hmoveto
          205 callsubr
        </CharString>
        <CharString name="bn_dh_na">
          -62 -81 266 callgsubr
          233 33 151 49 hstemhm
          32 51 -14 42 218 47 hintmask 11110110
          329 199 rmoveto
          -46 2 -39 2 -33 vhcurveto
          -58 105 -82 63 -83 35 240 callgsubr
          29 -281 70 callgsubr
          -25 163 -3 101 101 vvcurveto
          70 4 55 4 53 vhcurveto
          2 22 1 8 19 12 13 8 18 8 30 8 -105 callsubr
          -41 -9 -31 -13 -20 -15 -19 -14 -7 -16 -3 -23 rrcurveto
          -2 -1 -3 -2 vvcurveto
          247 callgsubr
          hintmask 11111010
          152 callgsubr
          46 23 26 35 36 26 -27 -36 3 hvcurveto
          -42 callsubr
          80 -19 72 -47 61 -84 rrcurveto
          33 -31 -36 20 -36 hhcurveto
          hintmask 11110110
          -90 callgsubr
          82 72 -93 -82 18 hvcurveto
          endchar
        </CharString>
        <CharString name="bn_dh_ra">
          -62 -38 52 -15 51 328 33 151 312 callsubr
          hintmask 10110110
          105 callsubr
          -75 -80 vvcurveto
          hintmask 01110110
          29 -281 70 callgsubr
          -25 163 -3 101 101 7 callgsubr
          99 -23 87 -67 68 -126 rrcurveto
          16 -15 -19 8 -25 hhcurveto
          hintmask 10111010
          -10 callsubr
          hintmask 01110110
          248 callsubr
          51 135 callgsubr
        </CharString>
        <CharString name="bn_dh_ra_ukaar">
          104 -38 52 -15 51 115 49 164 33 -6 47 52 47 11 312 callsubr
          47 391 callsubr
          hintmask 1010110011010000
          105 callsubr
          -74 -81 vvcurveto
          hintmask 0110110011110000
          29 -281 70 callgsubr
          -20 127 -6 90 -1 81 rrcurveto
          -38 27 37 -21 42 -93 callsubr
          -38 -37 25 46 -25 hvcurveto
          2 0 2 2 vvcurveto
          69 3 54 5 52 vhcurveto
          2 23 11 -86 callsubr
          rrcurveto
          hintmask 1011010011010000
          -37 -5 -30 -15 -8 -42 292 callsubr
          hvcurveto
          hintmask 0111011011010000
          85 callsubr
          hintmask 1010110101010000
          -10 callsubr
          hintmask 0110110011010000
          248 callsubr
          hintmask 0110110011110000
          51 135 callgsubr
        </CharString>
        <CharString name="bn_dh_ra_uukaar">
          104 -38 52 -15 51 328 33 93 47 11 312 callsubr
          119 44 hintmask 1011001110000000
          105 callsubr
          -74 -81 vvcurveto
          75 -273 rmoveto
          -22 143 -5 95 -1 90 44 23 43 23 160 callsubr
          -16 -53 -28 -53 -25 rlinecurve
          1 60 2 49 5 47 2 23 11 -86 callsubr
          -37 -5 -30 -15 -8 -42 292 callsubr
          hvcurveto
          hintmask 0111101110000000
          85 callsubr
          hintmask 1011010110000000
          -10 callsubr
          hintmask 0111001110000000
          248 callsubr
          51 13 -41 -40 20 hvcurveto
          hintmask 1011001110000000
          96 callsubr
          endchar
        </CharString>
        <CharString name="bn_dha">
          -62 378 33 151 49 hstem
          32 51 246 47 vstem
          395 -4 rmoveto
          -16 81 -3 132 82 7 callgsubr
          106 -25 89 -80 71 -153 rrcurveto
          20 20 3 9 14 hvcurveto
          -66 203 rmoveto
          205 callsubr
        </CharString>
        <CharString name="bn_dha.half">
          -62 436 25 113 37 hstem
          32 51 246 47 vstem
          395 150 rmoveto
          -16 61 -3 99 61 vvcurveto
          54 0 -8 4 53 vhcurveto
          2 22 3 5 21 14 13 8 18 8 30 8 -105 callsubr
          -41 -9 -31 -13 -20 -15 -12 -9 -8 -8 -6 -10 -29 -9 -30 -10 -29 -11 -7 -3 -6 -2 -7 -3 rrcurveto
          -10 -27 -27 -8 -26 hhcurveto
          -38 -40 20 39 35 23 19 35 36 26 -20 -27 3 hvcurveto
          17 3 21 14 7 10 rrcurveto
          33 -15 -43 24 -47 hhcurveto
          -69 -45 -39 -46 -50 50 -33 61 -7 hvcurveto
          -39 -19 -33 -20 -23 -19 2 -15 5 -14 20 -15 106 -18 89 -60 71 -115 rrcurveto
          20 20 2 7 14 hvcurveto
          -66 152 rmoveto
          -43 1 -32 2 -24 vhcurveto
          -57 86 -78 52 -83 28 61 41 96 39 67 20 rrcurveto
          -8 -70 -1 -24 -73 vvcurveto
          endchar
        </CharString>
        <CharString name="bn_doubledanda">
          307 -99 694 hstem
          396 44 206 44 vstem
          719 -81 rmoveto
          52 callgsubr
          -58 7 -54 2 -50 vhcurveto
          20 22 9 9 22 hvcurveto
          -250 hmoveto
          52 callgsubr
          -58 7 -54 2 -50 vhcurveto
          20 22 9 9 22 hvcurveto
          endchar
        </CharString>
        <CharString name="bn_e">
          39 279 callsubr
          hintmask 01111110
          429 -17 rmoveto
          15 17 235 callsubr
          17 134 10 156 203 346 callsubr
          -64 callsubr
          hintmask 10111110
          -9 callsubr
          hintmask 01111110
          167 callsubr
          endchar
        </CharString>
        <CharString name="bn_eight">
          21 -17 52 262 44 -16 49 hstemhm
          76 46 -26 50 230 56 hintmask 11010100
          213 -17 rmoveto
          111 108 147 107 26 -8 23 -14 18 hvcurveto
          -5 14 14 -2 12 hhcurveto
          43 36 27 20 17 hvcurveto
          -4 19 -7 18 -10 17 rrcurveto
          -23 -20 -40 -34 -46 hhcurveto
          hintmask 10110100
          -45 -32 33 -55 hhcurveto
          -47 -42 -21 -7 -19 hvcurveto
          -19 4 -18 8 -19 vhcurveto
          15 29 47 20 40 hhcurveto
          28 41 -10 -66 -106 -89 -108 -90 -50 -25 36 64 hvcurveto
          hintmask 10101100
          65 24 143 116 vvcurveto
          68 -13 32 -72 27 vhcurveto
          -16 -9 -13 -16 -12 -19 rrcurveto
          72 -12 4 -34 -45 -117 -20 -137 -58 vvcurveto
          hintmask 11010100
          -106 70 -50 67 vhcurveto
          endchar
        </CharString>
        <CharString name="bn_ekaar">
          -285 -63 44 hstemhm
          0 244 -174 56 hintmask 10100000
          196 -63 0 callgsubr
          hintmask 11000000
          50 callsubr
          hintmask 10100000
          159 callsubr
          endchar
        </CharString>
        <CharString name="bn_ekaar.b">
          -285 -63 44 560 45 hstemhm
          0 244 -174 56 hintmask 11010000
          196 -63 0 callgsubr
          hintmask 11100000
          79 callsubr
          -56 -13 -34 -18 -17 -25 rrcurveto
          42 -19 -39 19 -31 hhcurveto
          -16 -17 -2 -3 -15 hvcurveto
          -3 -5 -1 -9 -6 callsubr
          -10 259 callgsubr
          hintmask 11010000
          4 19 13 2 12 hhcurveto
          27 24 -20 -35 12 hvcurveto
          -23 -56 -14 -99 -102 vvcurveto
          274 callgsubr
          endchar
        </CharString>
        <CharString name="bn_ekaar.init">
          -252 -63 44 hstem
          55 57 vstem
          271 -1 rmoveto
          150 callgsubr
          -149 -30 -73 -121 -214 vvcurveto
          -165 52 -114 75 34 34 24 38 21 vhcurveto
          endchar
        </CharString>
        <CharString name="bn_five">
          21 -19 43 376 43 hstem
          69 50 219 46 vstem
          441 36 rmoveto
          -42 37 -15 57 54 vvcurveto
          118 67 61 45 38 vhcurveto
          -25 56 rlineto
          -6 -9 -25 -8 -26 hhcurveto
          -77 -69 68 79 -17 hvcurveto
          -77 -63 -102 -141 -165 vvcurveto
          -141 75 -99 130 64 69 26 29 34 vhcurveto
          -171 -12 rmoveto
          -90 -61 63 123 111 49 112 69 72 hvcurveto
          -63 40 66 -42 69 2 3 0 2 hhcurveto
          -38 -43 -43 -63 -96 vvcurveto
          -51 12 -48 27 -39 vhcurveto
          -23 -30 -37 -13 -40 hhcurveto
          endchar
        </CharString>
        <CharString name="bn_four">
          25 -19 53 496 53 hstemhm
          75 47 -37 42 293 42 -37 47 hintmask 11011000
          256 -19 rmoveto
          hintmask 11010100
          139 77 92 89 69 -45 50 -62 18 hvcurveto
          hintmask 11101000
          55 34 42 43 67 vvcurveto
          77 -57 63 -115 -139 -76 -92 -89 -70 47 -51 63 -17 vhcurveto
          hintmask 11011000
          -56 -33 -44 -42 -68 vvcurveto
          -77 56 -63 115 vhcurveto
          hintmask 11101000
          -134 409 rmoveto
          68 58 72 125 76 39 -27 -52 -79 -90 -36 -87 -42 vhcurveto
          -72 3 -49 30 63 vvcurveto
          hintmask 11010100
          119 -356 rmoveto
          -77 -37 30 48 77 95 36 90 45 hvcurveto
          66 -2 47 -31 -60 vvcurveto
          -72 -59 -71 -125 vhcurveto
          endchar
        </CharString>
        <CharString name="bn_g_ba">
          20 424 47 87 55 hstem
          107 323 callgsubr
          vstem
          436 -118 rmoveto
          19 18 5 18 20 hvcurveto
          -19 61 -1 155 156 -74 callgsubr
          104 callsubr
        </CharString>
        <CharString name="bn_g_da">
          270 435 45 72 50 -41 52 hstemhm
          107 306 callsubr
          93.5 46.5 181 48 hintmask 11011110
          683 -16 rmoveto
          19 4 17 6 17 60 callgsubr
          -83 -52 -89 -76 -80 -105 17 75 7 90 11 69 rrcurveto
          67 10 41 19 107 hhcurveto
          62 64 -7 -10 33 hvcurveto
          2 6 1 71 callgsubr
          12 -31 -61 9 -62 hhcurveto
          -108 -89 -34 -86 -11 hvcurveto
          -1 -7 -1 -8 -1 -7 rrcurveto
          hintmask 10111110
          93 -30 -61 60 -86 75 callgsubr
          71 80 -53 -124 17 vhcurveto
          -11 -79 -13 -83 -23 -77 31 callgsubr
          -15 -60 -10 -75 -79 vvcurveto
          hintmask 11011110
          -66 4 -69 16 -64 vhcurveto
          endchar
        </CharString>
        <CharString name="bn_g_dh_ba">
          203 424 321 callgsubr
          107 306 callsubr
          84 47 118 44 hintmask 10111110
          500 -235 rmoveto
          -25 78 -2 185 195 vvcurveto
          42 20 45 15 41 14 rrcurveto
          -7 -39 -97 callsubr
          -51 -16 -53 -19 -52 -24 rlinecurve
          3 vlineto
          -22 callgsubr
          -1 -26 -1 -27 -1 -26 -113 -47 201 callgsubr
          127 -16 74 -17 66 -96 rrcurveto
          6 callgsubr
          -146 279 rmoveto
          -37 20 -44 13 -52 11 59 41 72 43 72 32 rrcurveto
          -43 0 -44 1 -42 vhcurveto
          -24 -10 -24 -10 -23 -11 rrcurveto
          83 -243 rmoveto
          -49 63 -73 24 -99 22 61 41 74 42 75 32 2 -87 4 -75 5 -62 rrcurveto
          endchar
        </CharString>
        <CharString name="bn_g_dh_ra">
          203 -166 60 530 321 callgsubr
          2 46 59 323 callgsubr
          118 44 hintmask 1101111110000000
          428 -57 rmoveto
          -47 61 -68 24 -92 21 59 41 72 42 72 32 rrcurveto
          -82 2 -74 2 -65 vhcurveto
          15 -201 rmoveto
          6 callgsubr
          -23 73 -3 165 -1 180 42 20 45 15 41 14 rrcurveto
          -7 -39 -97 callsubr
          -51 -16 -53 -19 -52 -24 rlinecurve
          14 0 15 14 vvcurveto
          hintmask 1110111110000000
          70 4 66 6 53 vhcurveto
          3 23 10 -86 callsubr
          -38 -5 -34 -12 -7 -43 -2 234 callgsubr
          hintmask 1101111110000000
          96 -31 -62 61 -86 hhcurveto
          -99 callsubr
          76 89 -67 -157 6 vhcurveto
          -2 -40 -1 -41 -39 vvcurveto
          334 callsubr
          121 -16 71 -17 63 -89 1 -25 2 -24 2 -22 rrcurveto
          51 -27 -37 25 -57 -63 -83 -8 -57 -96 callsubr
          68 89 9 58 hhcurveto
          305 callsubr
        </CharString>
        <CharString name="bn_g_dha">
          203 424 321 callgsubr
          107 323 callgsubr
          118 44 hintmask 10111110
          493 -97 rmoveto
          -15 49 -4 109 -1 122 43 21 44 14 41 14 rrcurveto
          -7 -39 -97 callsubr
          -51 -16 -53 -19 -52 -24 rlinecurve
          14 0 15 14 vvcurveto
          -22 callgsubr
          -2 -40 -1 -41 -39 vvcurveto
          334 callsubr
          124 -16 71 -18 65 -95 rrcurveto
          19 19 4 17 19 hvcurveto
          -62 37 rmoveto
          -47 63 -69 24 -94 22 59 40 72 43 72 32 1 -89 1 -75 5 -60 rrcurveto
          endchar
        </CharString>
</ttFont>
